{"glyphs":{"0":{"ha":506,"x_min":41,"x_max":467,"o":"m 366 900 q 339 1070 366 1017 q 252 1124 312 1124 q 167 1071 193 1124 q 141 901 141 1018 l 141 319 q 167 128 141 187 q 252 69 193 69 q 339 128 312 69 q 366 319 366 187 l 366 900 m 41 892 q 91 1133 41 1058 q 254 1208 141 1208 q 417 1133 366 1208 q 467 892 467 1058 l 467 322 q 416 66 467 146 q 253 -14 365 -14 q 91 66 141 -14 q 41 322 41 146 l 41 892 z "},"1":{"ha":386,"x_min":24,"x_max":273,"o":"m 213 1194 l 273 1194 l 273 0 l 172 0 l 172 1040 q 107 997 149 1013 q 24 982 65 982 l 24 1045 q 134 1092 82 1053 q 213 1194 186 1131 z "},"2":{"ha":506,"x_min":80,"x_max":448,"o":"m 80 884 q 127 1131 80 1054 q 270 1207 174 1207 q 407 1132 367 1207 q 448 882 448 1056 q 369 533 448 707 q 298 388 335 458 q 184 82 206 207 l 431 82 l 431 0 l 82 0 l 82 62 q 82 64 82 63 q 178 344 82 145 q 258 515 217 427 q 354 868 354 727 q 334 1066 354 1010 q 268 1122 313 1122 q 203 1065 223 1122 q 182 881 182 1008 l 182 722 l 80 722 l 80 884 z "},"3":{"ha":506,"x_min":26,"x_max":450,"o":"m 30 896 q 77 1131 30 1055 q 235 1207 123 1207 q 397 1130 347 1207 q 448 896 448 1053 q 330 620 448 665 q 420 509 390 593 q 450 317 450 425 q 398 67 450 148 q 234 -14 346 -14 q 74 67 121 -14 q 26 321 26 149 l 26 351 l 129 351 l 129 321 q 148 120 129 170 q 234 71 168 71 q 325 124 300 71 q 349 299 349 178 q 333 477 349 420 q 287 557 317 534 q 203 579 256 579 l 177 579 l 177 666 l 202 666 q 289 683 264 666 q 325 726 315 700 q 347 873 347 780 q 315 1080 347 1037 q 241 1122 283 1122 q 179 1105 199 1122 q 132 894 132 1066 l 132 873 l 30 873 l 30 896 z "},"4":{"ha":506,"x_min":35,"x_max":504,"o":"m 304 317 l 304 968 l 126 317 l 304 317 m 302 1194 l 399 1194 l 399 317 l 504 317 l 504 239 l 399 239 l 399 -1 l 304 -1 l 304 239 l 35 239 l 35 304 l 302 1194 z "},"5":{"ha":506,"x_min":75,"x_max":429,"o":"m 92 1194 l 404 1194 l 404 1101 l 183 1101 l 183 777 q 219 812 193 797 q 273 828 245 828 q 326 821 300 828 q 404 735 378 804 q 429 521 429 667 l 429 323 q 412 108 429 167 q 374 27 395 49 q 256 -14 335 -14 q 75 197 75 -14 l 75 311 l 178 311 l 178 178 q 256 69 178 69 q 334 186 334 69 l 334 589 q 316 704 334 668 q 260 740 299 740 q 199 705 222 740 q 176 602 176 670 l 92 617 l 92 1194 z "},"6":{"ha":506,"x_min":58,"x_max":471,"o":"m 369 371 q 350 602 369 541 q 277 663 331 663 q 192 646 223 663 q 158 628 160 629 l 158 342 q 175 134 158 178 q 222 79 191 90 q 274 73 240 73 q 329 92 308 73 q 360 159 351 111 q 369 302 369 207 l 369 371 m 158 687 q 279 747 203 747 q 428 667 385 747 q 471 379 471 587 l 471 300 q 428 65 471 144 q 269 -14 385 -14 q 105 65 152 -14 q 58 343 58 144 l 58 857 q 76 1068 58 1008 q 117 1154 94 1128 q 259 1207 165 1207 q 400 1152 354 1207 q 448 871 446 1097 l 448 849 l 345 849 l 345 870 q 331 1070 345 1030 q 293 1118 318 1109 q 255 1122 279 1122 q 168 1038 180 1122 q 158 851 158 980 l 158 687 z "},"7":{"ha":506,"x_min":38,"x_max":467,"o":"m 38 1194 l 467 1194 l 467 1122 q 465 1122 467 1122 q 432 1022 463 1122 q 368 797 400 922 q 239 1 263 380 l 134 1 q 268 790 167 420 q 365 1080 323 983 l 379 1115 l 38 1115 l 38 1194 z "},"8":{"ha":506,"x_min":48,"x_max":463,"o":"m 259 666 q 285 666 259 666 q 335 726 311 666 q 359 905 359 785 q 335 1073 359 1025 q 259 1121 311 1121 q 184 1072 208 1121 q 161 903 161 1023 q 184 725 161 784 q 259 666 208 666 m 258 589 q 149 315 149 589 q 176 122 149 175 q 258 70 203 70 q 337 124 313 70 q 361 315 361 178 q 337 520 361 451 q 258 589 313 589 m 49 273 l 48 294 q 73 512 48 433 q 153 629 98 591 q 82 731 104 663 q 60 933 60 798 q 108 1137 60 1067 q 261 1207 156 1207 q 413 1137 366 1207 q 460 934 460 1067 q 436 734 460 801 q 361 631 413 667 q 438 513 414 593 q 463 294 463 433 l 463 280 q 411 56 459 126 q 258 -14 362 -14 q 103 55 153 -14 q 49 273 54 123 z "},"9":{"ha":506,"x_min":59,"x_max":456,"o":"m 354 851 q 339 1054 354 1006 q 296 1114 323 1101 q 258 1121 279 1120 q 191 1088 212 1121 q 166 999 171 1055 q 161 852 161 943 l 161 819 q 176 591 161 639 q 222 532 192 543 q 276 526 239 526 q 354 545 313 526 l 354 851 m 59 849 q 69 1036 59 996 q 91 1112 79 1076 q 144 1177 103 1147 q 267 1207 186 1207 q 395 1154 348 1207 q 452 979 443 1101 q 456 850 456 924 l 456 368 q 436 112 456 180 q 376 15 416 44 q 280 -14 336 -14 q 193 0 224 -14 q 109 108 132 26 q 86 345 86 190 l 183 345 l 183 328 q 199 118 185 155 q 242 73 213 81 q 277 70 256 70 q 340 107 326 70 q 354 252 354 144 l 354 483 q 261 449 319 449 q 169 465 203 449 q 80 587 102 498 q 59 831 59 675 l 59 849 z "}," ":{"ha":229,"x_min":0,"x_max":0,"o":""},"!":{"ha":366,"x_min":119,"x_max":247,"o":"m 119 137 l 245 137 l 245 0 l 119 0 l 119 137 m 119 1194 l 247 1194 l 203 250 l 162 250 l 119 1194 z "},"\"":{"ha":640,"x_min":181,"x_max":469,"o":"m 181 1194 l 287 1194 l 243 763 l 220 763 l 181 1194 m 363 1194 l 469 1194 l 425 763 l 402 763 l 363 1194 z "},"#":{"ha":873,"x_min":123,"x_max":732,"o":"m 484 519 l 519 702 l 371 702 l 334 519 l 484 519 m 616 1194 l 705 1194 l 621 772 l 732 772 l 732 706 l 608 706 l 571 520 l 703 520 l 703 454 l 558 454 l 468 0 l 380 0 l 469 454 l 322 454 l 233 0 l 146 0 l 235 454 l 123 454 l 123 520 l 249 520 l 286 706 l 152 706 l 152 772 l 298 772 l 382 1194 l 470 1194 l 385 772 l 532 772 l 616 1194 z "},"$":{"ha":583,"x_min":81,"x_max":481,"o":"m 81 799 q 136 970 81 911 q 222 1021 170 1007 l 222 1194 l 294 1194 l 294 1028 q 425 951 382 1024 q 467 702 467 878 l 467 648 l 362 648 l 362 720 q 343 882 362 828 q 278 935 325 935 q 208 904 232 935 q 184 793 184 873 q 294 568 184 675 l 347 517 q 481 219 481 382 q 437 51 481 111 q 309 -14 393 -8 l 309 -184 l 236 -184 l 236 -9 q 137 54 174 4 q 87 271 87 123 q 87 275 87 273 l 87 362 l 191 362 l 191 292 q 285 77 191 77 q 356 110 335 77 q 377 225 377 142 q 271 456 377 348 l 218 510 q 81 799 81 648 z "},"%":{"ha":1457,"x_min":122,"x_max":1335,"o":"m 1235 566 q 1215 679 1235 650 q 1142 709 1196 709 q 1068 679 1088 709 q 1049 566 1049 650 l 1049 227 q 1068 110 1049 140 q 1142 79 1088 79 q 1216 110 1196 79 q 1235 227 1235 140 l 1235 566 m 949 517 q 1009 765 949 716 q 1142 800 1053 800 q 1275 765 1232 800 q 1335 517 1335 715 l 1335 279 q 1326 135 1335 190 q 1295 46 1318 81 q 1236 -1 1272 12 q 1142 -14 1200 -14 q 1047 -1 1083 -14 q 989 46 1012 12 q 957 135 966 81 q 949 279 949 190 l 949 517 m 122 925 q 182 1173 122 1124 q 314 1208 225 1208 q 448 1173 404 1208 q 508 925 508 1124 l 508 686 q 499 543 508 597 q 468 454 491 488 q 409 407 445 420 q 315 394 374 394 q 220 407 256 394 q 162 454 184 420 q 131 543 139 488 q 122 686 122 597 l 122 925 m 408 974 q 388 1087 408 1057 q 315 1116 369 1116 q 241 1087 261 1116 q 222 974 222 1057 l 222 635 q 241 517 222 548 q 315 487 260 487 q 388 517 369 487 q 408 635 408 548 l 408 974 m 930 1194 l 1025 1194 l 536 0 l 435 0 l 930 1194 z "},"&":{"ha":621,"x_min":41,"x_max":629,"o":"m 218 1005 l 218 977 q 294 717 218 904 q 375 845 347 782 q 403 985 403 907 q 386 1095 403 1062 q 306 1128 369 1128 q 219 1034 224 1128 q 218 1014 218 1019 q 218 1005 218 1010 m 509 248 q 626 0 606 45 l 542 0 q 470 153 524 42 q 400 43 436 77 q 329 -2 364 10 q 247 -14 293 -14 q 98 50 155 -14 q 41 225 41 114 q 63 390 41 336 q 106 484 86 444 q 233 644 127 525 q 119 979 119 898 q 313 1208 119 1208 q 462 1149 427 1208 q 498 982 498 1089 q 451 795 498 875 q 332 627 404 715 q 462 348 380 516 q 583 541 517 463 l 629 468 q 509 248 568 392 m 420 255 q 274 554 321 454 q 180 400 217 478 q 143 222 144 322 q 259 71 143 71 q 366 146 323 71 q 420 255 388 184 z "},"'":{"ha":274,"x_min":84,"x_max":191,"o":"m 84 1194 l 191 1194 l 147 763 l 125 763 l 84 1194 z "},"(":{"ha":352,"x_min":90,"x_max":286,"o":"m 272 9 l 286 9 l 286 -67 q 171 -53 201 -67 q 127 -20 140 -38 q 102 41 115 -2 q 90 212 90 85 l 90 941 q 102 1112 90 1069 q 127 1174 115 1156 q 171 1206 140 1192 q 286 1221 201 1221 l 286 1144 l 279 1144 q 221 1137 227 1144 q 208 1119 214 1129 q 191 944 191 1094 l 191 210 q 208 35 191 60 q 221 17 214 24 q 272 9 228 9 z "},")":{"ha":352,"x_min":66,"x_max":262,"o":"m 66 1144 l 66 1221 q 181 1206 151 1221 q 225 1174 212 1192 q 250 1112 237 1156 q 262 941 262 1069 l 262 212 q 250 41 262 85 q 225 -20 237 -2 q 181 -53 212 -38 q 66 -67 151 -67 l 66 9 l 73 9 q 132 17 125 9 q 145 35 138 24 q 161 198 161 59 q 161 210 161 204 l 161 944 q 161 956 161 950 q 145 1119 161 1095 q 132 1137 138 1129 q 86 1144 125 1144 l 66 1144 z "},"*":{"ha":651,"x_min":96,"x_max":555,"o":"m 281 1205 l 371 1205 l 357 1023 l 509 1140 l 555 1061 l 386 972 l 555 877 l 509 798 l 357 918 l 371 733 l 281 733 l 297 920 l 146 804 l 101 884 l 265 972 l 96 1055 l 142 1133 l 297 1023 l 281 1205 z "},"+":{"ha":548,"x_min":76,"x_max":471,"o":"m 232 819 l 312 819 l 312 643 l 471 643 l 471 571 l 312 571 l 312 391 l 232 391 l 232 571 l 76 571 l 76 643 l 232 643 l 232 819 z "},",":{"ha":296,"x_min":102,"x_max":238,"o":"m 102 117 l 238 117 l 238 6 l 168 -237 l 115 -237 l 180 0 l 102 0 l 102 117 z "},"-":{"ha":472,"x_min":60,"x_max":350,"o":"m 60 650 l 350 650 l 350 582 l 60 582 l 60 650 z "},".":{"ha":361,"x_min":118,"x_max":222,"o":"m 118 111 l 222 111 l 222 0 l 118 0 l 118 111 z "},"/":{"ha":504,"x_min":60,"x_max":456,"o":"m 365 1199 l 456 1199 l 151 0 l 60 0 l 365 1199 z "},":":{"ha":376,"x_min":121,"x_max":245,"o":"m 121 867 l 245 867 l 245 711 l 121 711 l 121 867 m 121 368 l 245 368 l 245 212 l 121 212 l 121 368 z "},";":{"ha":380,"x_min":121,"x_max":258,"o":"m 123 355 l 258 355 l 258 243 l 188 0 l 136 0 l 201 237 l 123 237 l 123 355 m 121 867 l 245 867 l 245 711 l 121 711 l 121 867 z "},"<":{"ha":495,"x_min":43,"x_max":435,"o":"m 43 558 l 435 827 l 435 713 l 118 514 l 435 304 l 435 195 l 43 467 l 43 558 z "},"=":{"ha":490,"x_min":71,"x_max":419,"o":"m 71 497 l 419 497 l 419 408 l 71 408 l 71 497 m 71 695 l 419 695 l 419 605 l 71 605 l 71 695 z "},">":{"ha":495,"x_min":57,"x_max":450,"o":"m 57 718 l 57 827 l 450 555 l 450 464 l 57 195 l 57 309 l 374 508 l 57 718 z "},"?":{"ha":480,"x_min":106,"x_max":422,"o":"m 154 203 l 239 203 l 239 1 l 154 1 l 154 203 m 107 926 l 106 1001 q 106 1006 106 1004 q 130 1138 106 1095 q 250 1208 170 1208 q 351 1191 329 1208 q 385 1161 373 1173 q 422 938 422 1123 l 422 891 q 383 624 422 711 q 239 509 343 538 l 239 335 l 155 335 l 155 549 q 260 610 212 571 q 308 702 285 631 q 321 930 321 743 l 321 935 q 314 1089 321 1055 q 266 1122 306 1122 q 218 1088 227 1122 q 209 932 209 1055 l 209 787 l 107 787 l 107 926 z "},"@":{"ha":899,"x_min":62,"x_max":842,"o":"m 574 720 q 443 810 511 810 q 359 747 391 810 q 327 555 327 684 q 359 373 327 426 q 448 321 391 321 q 539 375 505 321 q 574 515 574 430 l 574 720 m 698 335 q 761 587 761 335 q 753 823 761 757 q 492 1127 714 1127 q 250 1024 330 1127 q 147 572 147 891 q 277 90 147 191 q 426 41 340 41 q 576 60 511 41 l 587 -16 q 439 -36 492 -36 q 62 567 62 -36 q 62 570 62 569 q 197 1090 62 935 q 485 1208 298 1208 q 487 1208 486 1208 q 842 617 842 1208 q 764 284 842 360 q 697 256 735 256 q 631 301 660 256 q 593 397 602 346 q 542 288 581 331 q 458 245 502 245 q 314 314 374 245 q 254 539 254 382 q 298 783 254 696 q 423 870 341 870 q 522 840 480 870 q 580 770 563 810 l 600 853 l 649 853 l 649 467 q 660 368 649 400 q 698 335 671 335 z "},"A":{"ha":583,"x_min":38,"x_max":545,"o":"m 230 1194 l 333 1194 l 545 0 l 448 0 l 408 242 l 170 242 l 134 0 l 38 0 l 230 1194 m 395 326 l 285 1001 l 283 1001 l 182 326 l 395 326 z "},"B":{"ha":600,"x_min":109,"x_max":522,"o":"m 286 1105 l 210 1105 l 210 681 l 300 681 q 363 691 347 681 q 385 715 379 701 q 404 883 404 758 q 392 1042 404 1008 q 358 1090 379 1076 q 286 1105 337 1105 m 319 600 l 210 600 l 210 87 l 317 87 q 389 119 366 87 q 416 221 412 152 q 420 339 420 290 l 420 395 q 400 548 420 496 q 319 600 379 600 m 109 1194 l 283 1194 q 438 1157 390 1194 q 499 1028 487 1120 q 505 926 505 987 l 505 911 q 490 734 505 795 q 429 642 475 673 q 502 541 481 616 q 522 351 522 465 l 522 330 q 477 78 519 156 q 313 0 435 0 l 109 0 l 109 1194 z "},"C":{"ha":587,"x_min":91,"x_max":508,"o":"m 91 848 q 145 1137 91 1065 q 301 1208 200 1208 q 445 1159 401 1208 q 486 1088 476 1123 q 508 840 508 1005 l 508 737 l 406 737 l 406 852 q 389 1054 406 1003 q 343 1118 373 1105 q 306 1126 327 1126 q 217 1060 241 1126 q 192 853 192 994 l 192 374 q 214 135 192 201 q 300 69 235 69 q 386 135 366 69 q 406 374 406 201 l 406 469 l 507 469 l 507 374 q 490 149 507 218 q 450 50 472 80 q 302 -14 402 -14 q 153 50 203 -14 q 91 373 91 127 l 91 848 z "},"D":{"ha":612,"x_min":108,"x_max":523,"o":"m 421 864 q 391 1052 421 994 q 298 1109 361 1109 l 208 1109 l 208 87 l 292 87 q 401 163 376 87 q 422 352 422 227 l 421 864 m 108 1194 l 292 1194 q 496 1062 452 1194 q 522 853 522 985 l 523 342 q 470 78 523 155 q 288 0 417 0 l 108 0 l 108 1194 z "},"E":{"ha":481,"x_min":109,"x_max":424,"o":"m 109 1194 l 424 1194 l 424 1115 l 210 1115 l 210 648 l 411 648 l 411 566 l 210 566 l 210 80 l 422 80 l 422 0 l 109 0 l 109 1194 z "},"F":{"ha":468,"x_min":109,"x_max":422,"o":"m 109 1194 l 422 1194 l 422 1115 l 209 1115 l 209 682 l 410 682 l 410 601 l 209 601 l 209 0 l 109 0 l 109 1194 z "},"G":{"ha":603,"x_min":91,"x_max":507,"o":"m 91 844 q 127 1102 91 1029 q 302 1208 180 1208 q 421 1178 380 1208 q 475 1112 463 1147 q 502 984 498 1044 q 507 846 507 923 l 507 746 l 404 746 l 404 930 q 383 1079 404 1032 q 302 1126 363 1126 q 217 1065 241 1126 q 192 855 192 1004 l 192 368 q 214 134 192 199 q 299 69 235 69 q 385 135 363 69 q 406 367 406 201 l 406 517 l 304 517 l 304 604 l 507 604 l 507 0 l 440 0 l 429 69 q 370 7 404 27 q 283 -14 336 -14 q 137 74 182 -14 q 91 361 91 162 l 91 844 z "},"H":{"ha":637,"x_min":109,"x_max":529,"o":"m 428 1194 l 529 1194 l 529 0 l 428 0 l 428 601 l 210 601 l 210 0 l 109 0 l 109 1194 l 210 1194 l 210 677 l 428 677 l 428 1194 z "},"I":{"ha":342,"x_min":121,"x_max":222,"o":"m 121 1194 l 222 1194 l 222 0 l 121 0 l 121 1194 z "},"J":{"ha":541,"x_min":64,"x_max":438,"o":"m 337 1194 l 438 1194 l 438 285 q 396 57 438 129 q 251 -14 353 -14 q 106 52 149 -14 q 64 264 64 118 l 64 366 l 166 366 l 166 224 q 186 104 166 130 q 221 74 205 78 q 254 70 236 70 q 334 164 326 70 q 337 237 337 202 l 337 1194 z "},"K":{"ha":561,"x_min":109,"x_max":564,"o":"m 450 1194 l 548 1194 l 302 604 l 564 0 l 459 0 l 211 583 l 211 0 l 109 0 l 109 1194 l 210 1194 l 210 606 l 450 1194 z "},"L":{"ha":433,"x_min":109,"x_max":421,"o":"m 109 1194 l 210 1194 l 210 80 l 421 80 l 421 0 l 109 0 l 109 1194 z "},"M":{"ha":812,"x_min":109,"x_max":704,"o":"m 591 1194 l 704 1194 l 704 0 l 612 0 l 612 511 l 628 992 l 458 26 l 361 26 l 185 992 l 201 511 l 201 0 l 109 0 l 109 1194 l 222 1194 l 410 191 l 591 1194 z "},"N":{"ha":659,"x_min":109,"x_max":550,"o":"m 462 1194 l 550 1194 l 550 0 l 471 0 l 197 899 l 203 576 l 203 0 l 109 0 l 109 1194 l 179 1194 l 472 271 l 462 682 l 462 1194 z "},"O":{"ha":602,"x_min":91,"x_max":511,"o":"m 410 868 q 389 1068 410 1010 q 304 1126 368 1126 q 216 1066 241 1126 q 192 869 192 1007 l 192 352 q 209 141 192 187 q 247 82 226 95 q 301 69 267 69 q 355 82 335 69 q 393 141 376 95 q 410 352 410 186 l 410 868 m 91 860 q 145 1142 91 1076 q 312 1208 199 1208 q 467 1135 425 1208 q 503 1020 496 1086 q 511 860 511 954 l 511 352 q 492 133 511 197 q 450 43 473 70 q 302 -14 401 -14 q 116 115 153 -14 q 91 352 91 199 l 91 860 z "},"P":{"ha":572,"x_min":109,"x_max":523,"o":"m 422 833 l 422 865 q 402 1053 422 997 q 321 1109 382 1109 l 210 1109 l 210 553 l 317 553 q 400 612 379 553 q 422 833 422 671 m 109 1194 l 316 1194 q 432 1166 389 1194 q 488 1105 474 1139 q 518 986 513 1044 q 523 847 523 928 l 523 835 q 504 616 523 680 q 460 524 484 552 q 310 467 410 467 l 210 467 l 210 0 l 109 0 l 109 1194 z "},"Q":{"ha":602,"x_min":91,"x_max":511,"o":"m 91 860 q 145 1142 91 1076 q 316 1208 199 1208 q 490 1086 450 1208 q 511 860 511 1023 l 511 352 q 486 113 511 197 q 365 -7 458 16 l 488 -229 l 422 -264 l 278 -13 q 153 43 197 -7 q 110 134 129 70 q 91 352 91 199 l 91 860 m 410 868 q 389 1068 410 1010 q 304 1126 368 1126 q 216 1066 241 1126 q 192 869 192 1007 l 192 352 q 209 141 192 187 q 247 82 226 95 q 301 69 267 69 q 355 82 335 69 q 393 141 376 95 q 410 352 410 186 l 410 868 z "},"R":{"ha":612,"x_min":109,"x_max":538,"o":"m 422 905 q 414 1038 422 996 q 386 1095 406 1080 q 322 1109 366 1109 l 209 1109 l 209 656 l 315 656 q 385 674 366 656 q 413 733 404 692 q 422 897 422 774 l 422 905 m 109 1194 l 311 1194 q 475 1142 434 1194 q 515 1047 507 1103 q 524 885 524 991 q 499 711 524 779 q 414 627 474 644 q 454 613 437 623 q 483 577 470 602 q 523 193 523 499 q 525 47 523 66 q 538 0 528 28 l 437 0 q 425 77 427 20 q 422 258 422 134 l 422 389 q 407 548 422 514 q 317 582 392 582 l 210 589 l 210 0 l 109 0 l 109 1194 z "},"S":{"ha":539,"x_min":62,"x_max":491,"o":"m 66 1010 q 124 1158 77 1107 q 271 1208 171 1208 q 411 1158 372 1208 q 445 1104 433 1131 q 471 842 471 1049 l 471 775 l 368 775 l 368 850 q 357 1040 368 1007 q 336 1090 347 1074 q 266 1122 317 1122 q 163 930 163 1122 q 176 839 163 863 q 195 801 189 814 q 281 707 201 787 l 347 642 q 491 301 491 493 q 436 47 491 109 q 272 -14 380 -14 q 80 188 105 -14 q 71 355 71 256 l 71 479 l 174 479 l 174 357 q 196 134 174 195 q 283 73 217 73 q 367 113 349 73 q 386 209 385 153 q 388 330 388 265 q 283 565 388 463 l 214 631 q 92 780 123 720 q 62 904 62 841 q 66 1010 62 966 z "},"T":{"ha":391,"x_min":27,"x_max":364,"o":"m 27 1194 l 364 1194 l 364 1115 l 252 1115 l 252 0 l 152 0 l 152 1115 l 27 1115 l 27 1194 z "},"U":{"ha":618,"x_min":99,"x_max":519,"o":"m 418 1194 l 519 1194 l 519 307 q 476 62 519 138 q 310 -14 433 -14 q 143 62 186 -14 q 99 307 99 139 l 99 1194 l 200 1194 l 200 310 q 211 144 200 186 q 306 69 231 69 q 392 104 367 69 q 418 309 418 139 l 418 1194 z "},"V":{"ha":595,"x_min":43,"x_max":553,"o":"m 456 1194 l 553 1194 l 360 0 l 255 0 l 43 1194 l 140 1194 l 307 216 l 307 216 l 456 1194 z "},"W":{"ha":907,"x_min":47,"x_max":860,"o":"m 764 1194 l 860 1194 l 715 0 l 616 0 l 468 982 l 309 0 l 216 0 l 47 1194 l 146 1194 l 271 218 l 420 1194 l 505 1194 l 664 218 l 764 1194 z "},"X":{"ha":511,"x_min":50,"x_max":462,"o":"m 311 578 l 460 0 l 370 0 l 250 461 l 134 0 l 50 0 l 208 623 l 60 1194 l 153 1194 l 268 747 l 378 1194 l 462 1194 l 311 578 z "},"Y":{"ha":544,"x_min":16,"x_max":528,"o":"m 423 1194 l 528 1194 l 333 524 l 333 0 l 232 0 l 232 524 l 16 1194 l 118 1194 l 281 666 l 283 666 l 423 1194 z "},"Z":{"ha":469,"x_min":76,"x_max":409,"o":"m 82 1194 l 409 1194 l 409 1124 l 178 80 l 405 80 l 405 0 l 76 0 l 76 85 l 306 1115 l 82 1115 l 82 1194 z "},"[":{"ha":518,"x_min":172,"x_max":418,"o":"m 172 1194 l 418 1194 l 418 1116 l 273 1116 l 273 78 l 418 78 l 418 0 l 172 0 l 172 1194 z "},"\\":{"ha":589,"x_min":90,"x_max":455,"o":"m 90 1194 l 177 1194 l 455 0 l 369 0 l 90 1194 z "},"]":{"ha":518,"x_min":133,"x_max":378,"o":"m 133 1194 l 378 1194 l 378 0 l 133 0 l 133 78 l 277 78 l 277 1116 l 133 1116 l 133 1194 z "},"^":{"ha":699,"x_min":115,"x_max":582,"o":"m 279 1017 l 418 1017 l 582 391 l 481 391 l 349 941 l 218 391 l 115 391 l 279 1017 z "},"_":{"ha":507,"x_min":33,"x_max":474,"o":"m 33 -43 l 474 -43 l 474 -125 l 33 -125 l 33 -43 z "},"`":{"ha":441,"x_min":92,"x_max":317,"o":"m 92 9 l 92 118 l 317 -7 l 317 -54 l 92 9 z "},"a":{"ha":593,"x_min":98,"x_max":494,"o":"m 110 713 q 116 856 110 823 q 129 912 122 888 q 146 951 136 936 q 171 983 156 967 q 204 1009 185 1000 q 249 1024 223 1018 q 305 1029 274 1029 q 361 1024 336 1029 q 406 1012 387 1019 q 438 988 425 1005 q 462 958 452 970 q 494 707 494 913 l 494 0 l 393 0 l 393 76 q 350 21 385 49 q 260 -7 315 -7 q 139 60 180 -7 q 98 256 98 127 l 98 386 q 131 494 98 456 q 189 549 165 533 q 319 617 254 589 q 393 648 384 644 l 393 762 q 386 878 393 861 q 374 907 378 896 q 302 941 359 941 q 228 893 245 941 q 212 711 212 845 l 212 686 l 110 686 l 110 713 m 393 568 q 264 504 281 517 q 233 477 247 491 q 198 345 198 442 l 198 264 q 214 118 198 159 q 273 77 231 77 q 347 98 315 77 q 393 143 380 119 l 393 568 z "},"b":{"ha":594,"x_min":109,"x_max":506,"o":"m 405 720 q 395 868 405 839 q 375 912 385 898 q 326 940 357 940 q 281 936 296 940 q 227 878 244 926 q 210 718 210 830 l 210 312 q 230 131 210 184 q 309 78 251 78 q 386 131 366 78 q 405 316 405 184 l 405 720 m 109 1209 l 210 1209 l 210 930 q 253 1001 217 971 q 331 1030 289 1030 q 486 899 452 1030 q 506 686 506 814 l 506 332 q 479 91 506 158 q 407 4 453 23 q 346 -7 381 -7 q 210 77 246 -7 l 210 0 l 109 0 l 109 1209 z "},"c":{"ha":536,"x_min":87,"x_max":475,"o":"m 87 697 q 121 933 87 867 q 212 1019 155 1000 q 302 1029 245 1029 q 406 998 359 1029 q 456 920 437 978 q 475 692 475 863 l 475 660 l 372 660 l 372 722 q 364 876 372 840 q 289 937 349 937 q 197 851 215 937 q 188 717 188 805 l 188 309 q 198 145 188 171 q 220 105 209 119 q 288 81 239 81 q 354 124 337 81 q 372 218 371 167 q 372 304 372 269 l 372 381 l 475 381 l 475 351 q 465 142 475 198 q 293 -12 438 -12 q 129 64 170 -12 q 94 180 101 115 q 87 347 87 245 l 87 697 z "},"d":{"ha":591,"x_min":88,"x_max":486,"o":"m 385 703 q 365 887 385 834 q 287 939 345 939 q 210 885 229 939 q 190 699 190 831 l 190 296 q 212 117 190 156 q 277 77 234 77 q 339 93 321 77 q 371 147 358 109 q 385 294 385 184 l 385 703 m 384 1209 l 486 1209 l 486 0 l 384 0 l 384 77 q 249 -7 349 -7 q 105 127 136 -7 q 88 326 88 201 l 88 684 q 137 959 88 888 q 276 1029 186 1029 q 340 1005 311 1029 q 384 945 370 980 l 384 1209 z "},"e":{"ha":554,"x_min":87,"x_max":473,"o":"m 372 595 l 372 731 q 363 881 372 846 q 289 941 349 941 q 194 836 209 941 q 188 731 188 793 q 188 719 188 725 l 188 595 l 372 595 m 87 688 q 119 932 87 865 q 210 1018 153 998 q 289 1029 244 1029 q 366 1019 333 1029 q 449 930 415 1002 q 473 680 473 879 l 473 510 l 188 510 l 188 305 q 211 112 188 148 q 280 77 235 77 q 345 105 326 77 q 368 179 363 134 q 372 301 372 224 l 372 377 l 471 377 l 471 344 q 460 138 471 193 q 293 -12 435 -12 q 129 64 170 -12 q 94 178 101 114 q 87 347 87 243 l 87 688 z "},"f":{"ha":414,"x_min":57,"x_max":389,"o":"m 152 1025 q 185 1166 152 1119 q 297 1213 218 1213 q 389 1201 352 1213 l 389 1119 q 320 1124 358 1124 q 268 1104 282 1124 q 254 1040 254 1084 l 254 978 l 389 978 l 389 901 l 254 901 l 254 0 l 152 0 l 152 901 l 57 901 l 57 978 l 152 978 l 152 1025 z "},"g":{"ha":583,"x_min":85,"x_max":483,"o":"m 382 712 q 358 903 382 865 q 284 941 334 941 q 214 904 235 941 q 190 813 193 867 q 186 713 186 759 l 186 414 q 209 228 186 283 q 294 173 232 173 q 345 191 327 174 q 382 416 382 229 l 382 712 m 85 687 q 129 933 85 838 q 264 1029 173 1029 q 382 958 355 1029 l 382 1017 l 483 1017 l 483 66 q 370 -138 483 -85 q 278 -159 326 -159 q 177 -143 230 -159 q 90 -100 125 -127 l 128 -22 q 277 -71 195 -71 q 356 -37 330 -71 q 382 54 382 -3 l 382 166 q 331 103 361 121 q 258 86 300 86 q 106 218 141 86 q 85 429 85 300 l 85 687 z "},"h":{"ha":626,"x_min":109,"x_max":524,"o":"m 340 937 q 210 808 210 937 l 210 0 l 109 0 l 109 1209 l 210 1209 l 210 918 q 270 997 223 963 q 380 1030 317 1030 q 484 978 444 1030 q 524 821 524 926 l 524 0 l 422 0 l 422 814 q 398 910 422 884 q 340 937 374 937 z "},"i":{"ha":321,"x_min":110,"x_max":212,"o":"m 110 1017 l 212 1017 l 212 0 l 110 0 l 110 1017 m 110 1208 l 211 1208 l 211 1111 l 110 1111 l 110 1208 z "},"j":{"ha":342,"x_min":58,"x_max":233,"o":"m 132 1208 l 233 1208 l 233 1111 l 132 1111 l 132 1208 m 198 -125 q 168 -145 183 -138 q 117 -152 152 -152 q 61 -148 81 -152 l 58 -148 l 58 -75 q 84 -77 72 -77 q 107 -75 96 -77 q 132 -30 132 -71 l 132 1017 l 233 1017 l 233 -23 q 198 -125 232 -98 z "},"k":{"ha":542,"x_min":109,"x_max":548,"o":"m 109 1209 l 210 1209 l 210 515 l 435 1017 l 536 1017 l 304 513 l 548 0 l 442 0 l 210 503 l 210 0 l 109 0 l 109 1209 z "},"l":{"ha":319,"x_min":109,"x_max":210,"o":"m 109 1209 l 210 1209 l 210 0 l 109 0 l 109 1209 z "},"m":{"ha":924,"x_min":109,"x_max":822,"o":"m 720 831 q 627 937 720 937 q 528 891 549 937 q 515 840 518 871 l 515 0 l 414 0 l 414 831 q 390 913 414 890 q 317 937 366 937 q 239 907 268 937 q 210 820 210 878 l 210 0 l 109 0 l 109 1017 l 210 1017 l 210 916 q 266 996 223 962 q 365 1030 309 1030 q 501 927 467 1030 q 572 1002 526 973 q 680 1030 618 1030 q 781 979 741 1030 q 822 825 822 928 l 822 0 l 720 0 l 720 831 z "},"n":{"ha":625,"x_min":109,"x_max":524,"o":"m 210 918 q 270 997 223 963 q 379 1030 316 1030 q 483 978 442 1030 q 524 821 524 926 l 524 0 l 422 0 l 422 829 q 396 915 422 888 q 324 941 369 941 q 210 827 210 941 l 210 0 l 109 0 l 109 1017 l 210 1017 l 210 918 z "},"o":{"ha":573,"x_min":87,"x_max":486,"o":"m 385 714 q 339 925 385 889 q 290 941 319 941 q 198 854 213 941 q 188 714 188 801 l 188 314 q 213 120 188 164 q 294 77 239 77 q 368 139 350 77 q 385 314 385 201 l 385 714 m 87 690 q 120 933 87 867 q 210 1019 153 1000 q 286 1029 244 1029 q 479 843 458 1029 q 486 690 486 779 l 486 349 q 481 194 486 229 q 471 133 476 159 q 283 -12 444 -12 q 178 15 217 -12 q 92 204 103 66 q 87 349 87 265 l 87 690 z "},"p":{"ha":592,"x_min":109,"x_max":505,"o":"m 404 720 q 394 868 404 839 q 371 919 385 898 q 326 940 357 940 q 280 936 295 940 q 227 877 243 926 q 210 718 210 829 l 210 314 q 230 131 210 184 q 309 78 251 78 q 385 131 366 78 q 404 317 404 184 l 404 720 m 210 939 q 345 1025 245 1025 q 449 979 414 1025 q 494 861 484 933 q 505 687 505 789 l 505 322 q 505 317 505 320 q 455 57 505 125 q 318 -12 405 -12 q 253 13 283 -12 q 210 73 223 37 l 210 -180 l 109 -180 l 109 1017 l 210 1017 l 210 939 z "},"q":{"ha":582,"x_min":87,"x_max":485,"o":"m 382 703 q 356 900 382 861 q 277 939 329 939 q 206 886 225 939 q 187 699 187 833 l 187 296 q 209 116 187 155 q 274 77 231 77 q 337 94 318 77 q 369 149 355 111 q 382 299 382 187 l 382 703 m 87 687 q 114 926 87 860 q 186 1013 140 993 q 247 1025 212 1024 q 383 937 347 1025 l 383 1017 l 485 1017 l 485 -180 l 383 -180 l 383 72 q 338 12 368 36 q 263 -12 309 -12 q 180 13 218 -12 q 87 325 87 75 l 87 687 z "},"r":{"ha":418,"x_min":109,"x_max":386,"o":"m 383 1029 q 386 1008 386 1029 q 385 964 386 986 l 385 943 q 291 922 332 943 q 210 845 250 901 l 210 0 l 109 0 l 109 1017 l 210 1017 l 210 904 q 272 997 228 964 q 383 1029 317 1029 z "},"s":{"ha":554,"x_min":81,"x_max":481,"o":"m 81 800 q 135 971 81 913 q 284 1029 189 1029 q 423 954 379 1029 q 467 703 467 879 l 467 649 l 362 649 l 362 722 q 343 883 362 829 q 278 937 325 937 q 208 906 232 937 q 184 799 184 875 q 184 795 184 797 q 294 569 184 676 l 347 518 q 481 220 481 383 q 435 49 481 112 q 288 -14 388 -14 q 137 56 187 -14 q 87 276 87 125 l 87 363 l 191 363 l 191 294 q 285 79 191 79 q 356 111 335 79 q 377 227 377 144 q 271 457 377 349 l 218 511 q 81 800 81 650 z "},"t":{"ha":395,"x_min":31,"x_max":354,"o":"m 132 1194 l 234 1194 l 234 1021 l 354 1021 l 354 943 l 234 943 l 234 142 q 241 100 234 111 q 269 84 249 88 q 353 80 290 80 l 353 -6 l 283 -6 q 159 28 186 -6 q 137 74 142 47 q 132 147 132 101 l 132 943 l 31 943 l 31 1021 l 132 1021 l 132 1194 z "},"u":{"ha":627,"x_min":102,"x_max":518,"o":"m 203 198 q 307 81 203 81 q 387 114 357 81 q 417 205 417 148 l 416 1017 l 518 1017 l 518 0 l 417 0 l 417 102 q 362 21 404 56 q 264 -14 319 -14 q 155 32 208 -14 q 102 193 102 78 l 102 1017 l 203 1017 l 203 198 z "},"v":{"ha":459,"x_min":31,"x_max":428,"o":"m 337 1017 l 428 1017 l 280 0 l 179 0 l 31 1017 l 121 1017 l 201 423 l 229 176 l 235 176 l 262 424 l 337 1017 z "},"w":{"ha":729,"x_min":39,"x_max":690,"o":"m 600 1017 l 690 1017 l 572 0 l 471 0 l 372 870 l 254 0 l 158 0 l 39 1017 l 132 1017 l 193 416 l 209 205 l 217 205 l 237 416 l 323 1017 l 409 1017 l 502 438 l 529 205 l 536 205 l 549 439 l 600 1017 z "},"x":{"ha":454,"x_min":23,"x_max":432,"o":"m 272 528 l 432 0 l 338 0 l 222 389 l 113 0 l 23 0 l 184 517 l 35 1017 l 123 1017 l 232 660 l 333 1017 l 429 1017 l 272 528 z "},"y":{"ha":497,"x_min":41,"x_max":468,"o":"m 367 1017 l 468 1017 l 306 2 q 270 -127 290 -102 q 224 -157 250 -153 q 172 -161 199 -161 l 88 -161 l 88 -75 l 125 -75 q 209 -67 198 -75 q 218 -40 218 -58 q 216 -10 218 -22 q 211 26 214 2 l 41 1017 l 143 1017 l 224 479 l 256 203 l 265 203 l 294 479 l 367 1017 z "},"z":{"ha":431,"x_min":56,"x_max":387,"o":"m 73 1017 l 387 1017 l 387 954 l 160 88 l 373 88 l 373 0 l 56 0 l 56 73 l 279 930 l 73 930 l 73 1017 z "},"{":{"ha":541,"x_min":132,"x_max":422,"o":"m 381 1208 l 422 1208 l 422 1115 q 358 1105 374 1115 q 334 1069 341 1095 q 328 970 328 1043 l 328 803 q 311 629 328 664 q 256 578 294 594 q 211 563 240 571 q 283 531 264 547 q 309 500 302 514 q 328 323 328 462 l 328 156 q 351 25 328 39 q 422 11 374 11 l 422 -82 l 381 -82 q 258 -34 290 -82 q 227 147 227 14 l 227 334 q 212 466 227 442 q 176 492 198 489 q 132 494 155 494 l 132 631 q 209 655 195 631 q 225 716 223 678 q 227 792 227 753 l 227 979 q 258 1160 227 1112 q 381 1208 290 1208 z "},"|":{"ha":364,"x_min":135,"x_max":239,"o":"m 135 1141 l 239 1141 l 239 -57 l 135 -57 l 135 1141 z "},"}":{"ha":541,"x_min":132,"x_max":422,"o":"m 132 1208 l 173 1208 q 296 1160 264 1208 q 328 979 328 1112 l 328 792 q 342 660 328 684 q 378 634 356 637 q 422 631 399 631 l 422 494 q 345 471 359 494 q 329 410 331 448 q 328 334 328 372 l 328 147 q 296 -34 328 14 q 173 -82 264 -82 l 132 -82 l 132 11 q 183 15 166 11 q 210 35 199 18 q 224 78 221 52 q 227 156 227 104 l 227 323 q 243 497 227 462 q 298 548 260 532 q 343 563 315 555 q 246 625 265 585 q 227 803 227 664 l 227 970 q 224 1048 227 1022 q 210 1091 221 1074 q 183 1111 199 1107 q 132 1115 166 1115 l 132 1208 z "},"~":{"ha":758,"x_min":82,"x_max":663,"o":"m 663 745 q 524 578 621 578 q 373 606 477 578 q 232 633 269 633 q 169 570 196 633 l 82 621 q 227 747 135 747 q 373 720 266 747 q 498 693 480 693 q 566 773 544 699 l 663 745 z "}," ":{"ha":229,"x_min":0,"x_max":0,"o":""},"¡":{"ha":382,"x_min":146,"x_max":275,"o":"m 275 916 l 149 916 l 149 1053 l 275 1053 l 275 916 m 274 -140 l 146 -140 l 191 804 l 231 804 l 274 -140 z "},"¢":{"ha":534,"x_min":87,"x_max":475,"o":"m 87 697 q 99 865 87 794 q 246 1025 123 1006 l 246 1199 l 323 1199 l 323 1028 q 402 1001 368 1023 q 464 897 437 979 q 475 692 475 863 l 475 660 l 372 660 l 372 722 q 364 876 372 840 q 294 937 349 937 q 213 896 238 937 q 188 717 188 856 l 188 309 q 193 181 188 229 q 218 107 198 133 q 290 81 238 81 q 363 153 347 81 q 372 304 372 193 l 372 381 l 475 381 l 475 351 q 465 142 475 198 q 380 7 447 39 q 323 -9 357 -5 l 323 -169 l 246 -169 l 246 -10 q 164 22 201 -5 q 107 113 127 48 q 87 347 87 178 l 87 697 z "},"£":{"ha":549,"x_min":42,"x_max":526,"o":"m 110 940 q 321 1208 110 1208 q 513 1050 471 1208 q 526 937 526 1001 l 526 845 l 435 845 l 435 945 q 315 1123 435 1123 q 203 956 203 1123 q 256 635 203 839 l 464 635 l 464 565 l 270 565 q 281 395 281 475 q 188 73 281 171 l 519 73 l 519 0 l 42 0 l 42 58 q 157 178 125 94 q 190 429 190 262 q 177 565 190 498 l 53 565 l 53 635 l 158 635 q 110 940 110 815 z "},"¤":{"ha":786,"x_min":85,"x_max":701,"o":"m 393 645 q 438 645 393 645 q 538 707 483 645 q 594 861 594 769 q 539 1013 594 954 q 394 1073 484 1073 q 248 1011 303 1073 q 192 859 192 950 q 247 706 192 768 q 393 645 302 645 m 541 1108 l 600 1167 l 701 1066 l 640 1005 q 677 859 677 939 q 640 713 677 779 l 701 652 l 600 551 l 539 610 q 393 575 477 575 q 246 611 309 575 l 186 551 l 85 652 l 146 714 q 111 860 111 781 q 146 1004 111 939 l 85 1065 l 186 1167 l 245 1107 q 393 1145 311 1145 q 541 1108 475 1145 z "},"¥":{"ha":557,"x_min":16,"x_max":528,"o":"m 423 1194 l 528 1194 l 343 559 l 511 559 l 511 503 l 333 503 l 333 369 l 511 369 l 511 313 l 333 313 l 333 0 l 232 0 l 232 313 l 52 313 l 52 369 l 232 369 l 232 503 l 52 503 l 52 559 l 220 559 l 16 1194 l 118 1194 l 281 666 l 283 666 l 423 1194 z "},"¦":{"ha":359,"x_min":83,"x_max":186,"o":"m 83 491 l 186 491 l 186 -57 l 83 -57 l 83 491 m 83 1194 l 186 1194 l 186 631 l 83 631 l 83 1194 z "},"§":{"ha":554,"x_min":136,"x_max":536,"o":"m 397 463 q 401 509 401 477 q 392 565 401 541 q 364 614 382 589 q 328 660 346 639 q 282 710 309 680 q 237 763 254 741 q 228 708 228 741 q 237 651 228 674 q 265 604 245 628 q 301 561 284 579 q 349 512 318 543 q 397 463 379 481 m 186 832 q 136 979 136 911 q 188 1148 136 1089 q 319 1208 240 1208 q 439 1176 397 1208 q 522 882 522 1114 l 522 827 l 417 827 l 417 900 q 397 1064 417 1012 q 322 1116 376 1116 q 262 1084 285 1116 q 239 1000 239 1051 q 276 895 239 948 q 362 786 313 842 q 449 662 411 729 q 488 517 488 594 q 463 387 488 441 q 536 220 536 294 q 490 49 536 112 q 342 -14 443 -14 q 192 56 242 -14 q 142 276 142 125 l 142 363 l 246 363 l 246 294 q 340 79 246 79 q 412 105 391 79 q 432 203 432 132 q 374 340 432 275 q 293 423 349 369 q 199 525 237 477 q 141 680 141 597 q 186 832 141 763 z "},"¨":{"ha":662,"x_min":105,"x_max":520,"o":"m 105 64 l 229 64 l 229 -26 l 105 -26 l 105 64 m 397 64 l 520 64 l 520 -26 l 397 -26 l 397 64 z "},"©":{"ha":994,"x_min":52,"x_max":943,"o":"m 837 382 q 862 429 837 382 q 888 585 888 475 q 837 787 888 694 q 695 932 785 879 q 497 985 606 985 q 299 932 389 985 q 158 787 209 879 q 106 585 106 694 q 158 382 106 475 q 299 237 209 290 q 497 184 389 184 q 695 237 606 184 q 837 382 785 290 m 345 711 q 494 885 345 885 q 642 752 642 885 l 642 662 l 576 662 l 576 717 q 560 799 576 775 q 497 823 543 823 q 435 799 452 823 q 418 726 418 774 l 418 443 q 436 370 418 395 q 499 345 455 345 q 560 367 543 345 q 576 443 576 389 l 576 517 l 645 517 l 645 433 q 612 322 645 357 q 499 288 579 288 q 345 439 345 288 l 345 711 m 110 358 q 81 409 110 358 q 52 585 52 460 q 110 811 52 709 q 270 972 168 913 q 497 1030 372 1030 q 724 972 622 1030 q 884 811 826 913 q 943 585 943 709 q 884 358 943 460 q 724 197 826 256 q 497 139 622 139 q 270 197 372 139 q 110 358 168 256 z "},"ª":{"ha":629,"x_min":159,"x_max":477,"o":"m 168 814 l 168 836 q 178 979 168 948 q 233 1067 199 1044 q 315 1090 267 1090 q 389 1084 363 1090 q 458 1017 429 1073 q 477 850 477 981 l 477 264 l 396 264 l 396 326 q 360 280 388 302 q 288 257 333 257 q 159 469 159 257 l 159 573 q 195 672 159 635 q 282 734 232 710 q 360 769 333 758 q 396 785 387 781 l 396 847 q 389 974 396 956 q 371 1006 382 992 q 318 1019 360 1019 q 263 981 277 1019 q 250 834 250 942 l 250 814 l 168 814 m 396 378 l 396 721 q 265 647 287 672 q 241 596 243 622 q 239 542 239 570 l 239 476 q 252 358 239 391 q 299 325 265 325 q 358 342 332 325 q 396 378 385 359 z "},"«":{"ha":884,"x_min":52,"x_max":722,"o":"m 52 538 l 368 722 l 368 621 l 156 508 l 368 389 l 368 281 l 52 474 l 52 538 m 406 538 l 722 722 l 722 621 l 511 508 l 722 389 l 722 281 l 406 474 l 406 538 z "},"¬":{"ha":642,"x_min":66,"x_max":560,"o":"m 66 582 l 560 582 l 560 298 l 475 298 l 475 504 l 66 504 l 66 582 z "},"­":{"ha":472,"x_min":61,"x_max":411,"o":"m 61 503 l 411 503 l 411 425 l 61 425 l 61 503 z "},"®":{"ha":1019,"x_min":52,"x_max":943,"o":"m 837 382 q 862 429 837 382 q 888 585 888 475 q 837 787 888 694 q 695 932 785 879 q 497 985 606 985 q 299 932 389 985 q 158 787 209 879 q 106 585 106 694 q 158 382 106 475 q 299 237 209 290 q 497 184 389 184 q 695 237 606 184 q 837 382 785 290 m 110 358 q 81 409 110 358 q 52 585 52 460 q 110 811 52 709 q 270 972 168 913 q 497 1030 372 1030 q 724 972 622 1030 q 884 811 826 913 q 943 585 943 709 q 884 358 943 460 q 724 197 826 256 q 497 139 622 139 q 270 197 372 139 q 110 358 168 256 m 492 645 q 494 645 493 645 q 585 736 585 645 q 556 803 585 785 q 439 821 527 821 l 439 645 l 492 645 m 511 587 l 439 586 l 439 302 l 357 302 l 357 880 l 502 880 q 623 845 581 880 q 665 727 665 810 q 582 617 665 644 q 634 590 612 612 q 656 534 656 568 l 656 302 l 576 302 l 576 507 q 554 573 576 559 q 511 587 532 587 z "},"¯":{"ha":472,"x_min":61,"x_max":397,"o":"m 61 29 l 397 29 l 397 -47 l 61 -47 l 61 29 z "},"°":{"ha":621,"x_min":77,"x_max":543,"o":"m 454 787 q 461 803 454 787 q 467 861 467 820 q 454 934 467 901 q 418 987 441 967 q 368 1018 395 1007 q 310 1028 340 1028 q 253 1018 280 1028 q 203 987 225 1007 q 167 934 180 967 q 154 861 154 901 q 167 787 154 820 q 203 734 180 754 q 253 704 226 714 q 311 693 281 693 q 369 704 341 693 q 418 734 396 714 q 454 787 441 754 m 149 1029 q 184 1058 149 1029 q 310 1087 220 1087 q 472 1029 401 1087 q 543 863 543 971 q 474 694 543 755 q 312 634 406 634 q 148 692 219 634 q 77 860 77 749 q 149 1029 77 971 z "},"±":{"ha":579,"x_min":94,"x_max":488,"o":"m 117 256 l 467 256 l 467 176 l 117 176 l 117 256 m 250 804 l 330 804 l 330 628 l 488 628 l 488 556 l 330 556 l 330 376 l 250 376 l 250 556 l 94 556 l 94 628 l 250 628 l 250 804 z "},"²":{"ha":584,"x_min":176,"x_max":454,"o":"m 344 770 q 380 977 380 848 q 371 1077 380 1036 q 350 1128 362 1117 q 321 1140 338 1140 q 273 1106 291 1140 q 254 956 254 1072 l 254 836 l 176 836 l 176 891 q 180 1036 176 1008 q 187 1086 183 1063 q 252 1189 199 1159 q 323 1206 282 1206 q 441 1099 419 1206 q 454 961 454 1036 q 391 700 454 829 q 335 590 363 644 q 254 338 266 455 l 441 338 l 441 285 l 179 285 l 179 334 q 312 690 179 370 q 344 770 344 766 q 344 770 344 770 z "},"³":{"ha":597,"x_min":158,"x_max":441,"o":"m 359 801 q 441 572 441 764 q 407 423 441 478 q 297 368 372 368 q 190 423 222 368 q 158 597 158 478 l 158 616 l 226 616 l 226 596 q 239 458 226 492 q 297 425 252 425 q 358 462 342 425 q 375 598 375 499 q 353 735 375 698 q 278 773 331 773 l 257 773 l 257 832 l 277 832 q 320 837 304 832 q 350 858 336 842 q 373 1003 373 886 q 326 1140 373 1120 q 294 1145 313 1145 q 260 1134 274 1145 q 229 989 229 1107 l 229 975 l 161 975 l 161 990 q 192 1152 161 1099 q 297 1204 222 1204 q 406 1151 372 1204 q 440 990 440 1098 q 359 801 440 832 z "},"´":{"ha":441,"x_min":68,"x_max":338,"o":"m 68 1349 l 338 1456 l 338 1358 l 68 1302 l 68 1349 z "},"¶":{"ha":759,"x_min":108,"x_max":639,"o":"m 452 1194 l 639 1194 l 639 0 l 528 0 l 528 1099 l 431 1099 l 431 0 l 321 0 l 321 800 q 162 863 217 812 q 108 996 108 914 q 137 1117 108 1077 q 240 1176 167 1158 q 452 1194 313 1194 z "},"·":{"ha":326,"x_min":111,"x_max":226,"o":"m 111 652 l 226 652 l 226 533 l 111 533 l 111 652 z "},"¸":{"ha":688,"x_min":260,"x_max":501,"o":"m 260 -340 q 416 -244 416 -340 q 385 -172 416 -201 q 308 -133 353 -143 l 335 0 l 374 0 l 380 -100 q 501 -264 501 -161 q 449 -360 501 -315 q 319 -404 397 -404 q 260 -398 292 -404 l 260 -340 z "},"¹":{"ha":425,"x_min":70,"x_max":256,"o":"m 210 1193 l 256 1193 l 256 281 l 180 281 l 180 1075 q 132 1041 164 1053 q 70 1029 100 1029 l 70 1079 q 150 1115 113 1086 q 210 1193 187 1143 z "},"º":{"ha":616,"x_min":162,"x_max":481,"o":"m 400 837 q 363 1006 400 978 q 325 1019 347 1019 q 251 950 264 1019 q 243 837 243 907 l 243 515 q 252 387 243 412 q 274 343 261 361 q 318 324 287 324 q 364 337 349 324 q 400 515 400 367 l 400 837 m 162 817 q 188 1012 162 960 q 260 1081 214 1065 q 305 1090 286 1090 q 327 1090 324 1090 q 443 1038 404 1090 q 481 817 481 987 l 481 543 q 452 319 481 369 q 339 254 412 254 q 242 270 265 254 q 206 300 218 287 q 178 358 194 314 q 162 543 162 401 l 162 817 z "},"»":{"ha":884,"x_min":131,"x_max":802,"o":"m 131 621 l 131 722 l 447 538 l 447 474 l 131 281 l 131 389 l 342 508 l 131 621 m 486 621 l 486 722 l 802 538 l 802 474 l 486 281 l 486 389 l 697 508 l 486 621 z "},"¼":{"ha":1041,"x_min":68,"x_max":945,"o":"m 808 830 l 871 830 l 871 221 l 945 221 l 945 165 l 871 165 l 871 0 l 806 0 l 806 165 l 621 165 l 621 213 l 808 830 m 806 221 l 806 671 l 683 221 l 806 221 m 212 1203 l 260 1203 l 260 282 l 181 282 l 181 1083 q 132 1049 164 1061 q 68 1037 99 1037 l 68 1088 q 151 1124 112 1095 q 212 1203 189 1153 m 643 1199 l 724 1199 l 412 0 l 332 0 l 643 1199 z "},"½":{"ha":1099,"x_min":68,"x_max":1046,"o":"m 934 491 q 970 699 970 567 q 962 799 970 758 q 941 852 953 840 q 911 863 928 863 q 862 829 881 863 q 844 679 844 794 l 844 557 l 764 557 l 764 613 q 793 864 765 812 q 904 930 831 930 q 1004 890 977 930 q 1039 796 1031 849 q 1046 676 1046 743 q 1028 542 1046 608 q 982 420 1009 476 q 926 309 954 364 q 844 56 855 174 l 1033 56 l 1033 1 l 767 1 l 767 50 q 903 413 767 89 q 934 491 934 488 q 934 491 934 491 m 212 1203 l 260 1203 l 260 282 l 181 282 l 181 1083 q 132 1049 164 1061 q 68 1037 99 1037 l 68 1088 q 151 1124 112 1095 q 212 1203 189 1153 m 643 1199 l 724 1199 l 412 0 l 332 0 l 643 1199 z "},"¾":{"ha":1055,"x_min":103,"x_max":958,"o":"m 822 830 l 884 830 l 884 221 l 958 221 l 958 165 l 884 165 l 884 0 l 819 0 l 819 165 l 635 165 l 635 213 l 822 830 m 819 221 l 819 671 l 696 221 l 819 221 m 313 813 q 397 582 397 774 q 360 430 397 486 q 247 374 324 374 q 136 429 169 374 q 103 606 103 485 l 103 627 l 174 627 l 174 606 q 188 467 174 501 q 247 433 201 433 q 309 470 292 433 q 326 608 326 508 q 303 746 326 708 q 227 785 281 785 l 205 785 l 205 844 l 227 844 q 283 854 264 844 q 324 989 324 876 q 302 1132 324 1103 q 245 1160 280 1160 q 194 1127 211 1160 q 177 1004 177 1095 l 177 988 l 106 988 l 106 1004 q 138 1168 106 1115 q 248 1221 170 1221 q 360 1167 325 1221 q 395 1004 395 1114 q 313 813 395 844 m 687 1199 l 768 1199 l 456 0 l 376 0 l 687 1199 z "},"¿":{"ha":708,"x_min":172,"x_max":488,"o":"m 440 810 l 355 810 l 355 1013 l 440 1013 l 440 810 m 487 87 l 488 12 q 488 7 488 9 q 464 -125 488 -82 q 345 -195 424 -195 q 243 -177 265 -195 q 210 -148 221 -159 q 172 75 172 -110 l 172 122 q 211 389 172 302 q 355 505 251 475 l 355 678 l 439 678 l 439 464 q 334 403 382 442 q 286 311 309 382 q 273 83 273 271 l 273 78 q 280 -76 273 -42 q 328 -109 288 -109 q 376 -75 368 -109 q 385 81 385 -41 l 385 227 l 487 227 l 487 87 z "},"À":{"ha":583,"x_min":38,"x_max":545,"o":"m 172 1305 l 172 1413 l 397 1288 l 397 1241 l 172 1305 m 230 1194 l 333 1194 l 545 0 l 448 0 l 408 242 l 170 242 l 134 0 l 38 0 l 230 1194 m 395 326 l 285 1001 l 283 1001 l 182 326 l 395 326 z "},"Á":{"ha":583,"x_min":38,"x_max":545,"o":"m 164 1331 l 434 1438 l 434 1341 l 164 1284 l 164 1331 m 230 1194 l 333 1194 l 545 0 l 448 0 l 408 242 l 170 242 l 134 0 l 38 0 l 230 1194 m 395 326 l 285 1001 l 283 1001 l 182 326 l 395 326 z "},"Â":{"ha":583,"x_min":38,"x_max":545,"o":"m 226 1418 l 338 1418 l 420 1246 l 340 1246 l 282 1364 l 224 1246 l 144 1246 l 226 1418 m 230 1194 l 333 1194 l 545 0 l 448 0 l 408 242 l 170 242 l 134 0 l 38 0 l 230 1194 m 395 326 l 285 1001 l 283 1001 l 182 326 l 395 326 z "},"Ã":{"ha":583,"x_min":38,"x_max":545,"o":"m 84 1319 q 132 1398 103 1385 q 194 1411 161 1411 q 291 1385 228 1411 q 368 1360 353 1360 l 370 1360 q 390 1372 382 1362 q 408 1409 399 1381 l 479 1390 l 473 1372 q 434 1292 454 1310 q 380 1274 414 1274 q 286 1301 347 1274 q 206 1329 225 1329 q 176 1326 186 1329 q 147 1288 165 1324 l 84 1319 m 230 1194 l 333 1194 l 545 0 l 448 0 l 408 242 l 170 242 l 134 0 l 38 0 l 230 1194 m 395 326 l 285 1001 l 283 1001 l 182 326 l 395 326 z "},"Ä":{"ha":583,"x_min":38,"x_max":545,"o":"m 56 1360 l 180 1360 l 180 1270 l 56 1270 l 56 1360 m 348 1360 l 471 1360 l 471 1270 l 348 1270 l 348 1360 m 230 1194 l 333 1194 l 545 0 l 448 0 l 408 242 l 170 242 l 134 0 l 38 0 l 230 1194 m 395 326 l 285 1001 l 283 1001 l 182 326 l 395 326 z "},"Å":{"ha":583,"x_min":38,"x_max":545,"o":"m 331 1295 q 340 1305 331 1295 q 349 1344 349 1316 q 331 1393 349 1373 q 282 1413 313 1413 q 233 1393 251 1413 q 216 1344 216 1372 q 233 1296 216 1316 q 282 1275 251 1275 q 331 1295 313 1275 m 282 1240 q 254 1240 282 1240 q 197 1272 227 1240 q 167 1344 167 1303 q 197 1416 167 1385 q 282 1447 227 1447 q 366 1416 336 1447 q 396 1343 396 1385 q 366 1271 396 1302 q 282 1240 336 1240 m 230 1194 l 333 1194 l 545 0 l 448 0 l 408 242 l 170 242 l 134 0 l 38 0 l 230 1194 m 395 326 l 285 1001 l 283 1001 l 182 326 l 395 326 z "},"Æ":{"ha":762,"x_min":38,"x_max":704,"o":"m 382 328 l 382 1116 l 370 1116 l 204 328 l 382 328 m 302 1194 l 704 1194 l 704 1115 l 484 1115 l 484 648 l 691 648 l 691 567 l 484 567 l 484 80 l 702 80 l 702 0 l 382 0 l 382 242 l 184 242 l 133 0 l 38 0 l 302 1194 z "},"Ç":{"ha":587,"x_min":91,"x_max":508,"o":"m 211 -340 q 368 -244 368 -340 q 336 -172 368 -201 q 259 -133 304 -143 l 286 0 l 325 0 l 331 -100 q 452 -264 452 -161 q 400 -360 452 -315 q 270 -404 348 -404 q 211 -398 243 -404 l 211 -340 m 91 848 q 145 1137 91 1065 q 301 1208 200 1208 q 445 1159 401 1208 q 486 1088 476 1123 q 508 840 508 1005 l 508 737 l 406 737 l 406 852 q 389 1054 406 1003 q 343 1118 373 1105 q 306 1126 327 1126 q 217 1060 241 1126 q 192 853 192 994 l 192 374 q 214 135 192 201 q 300 69 235 69 q 386 135 366 69 q 406 374 406 201 l 406 469 l 507 469 l 507 374 q 490 149 507 218 q 450 50 472 80 q 302 -14 402 -14 q 153 50 203 -14 q 91 373 91 127 l 91 848 z "},"È":{"ha":481,"x_min":109,"x_max":424,"o":"m 160 1305 l 160 1413 l 385 1288 l 385 1241 l 160 1305 m 109 1194 l 424 1194 l 424 1115 l 210 1115 l 210 648 l 411 648 l 411 566 l 210 566 l 210 80 l 422 80 l 422 0 l 109 0 l 109 1194 z "},"É":{"ha":481,"x_min":109,"x_max":424,"o":"m 109 1194 l 424 1194 l 424 1115 l 210 1115 l 210 648 l 411 648 l 411 566 l 210 566 l 210 80 l 422 80 l 422 0 l 109 0 l 109 1194 m 148 1331 l 418 1438 l 418 1341 l 148 1284 l 148 1331 z "},"Ê":{"ha":481,"x_min":109,"x_max":424,"o":"m 109 1194 l 424 1194 l 424 1115 l 210 1115 l 210 648 l 411 648 l 411 566 l 210 566 l 210 80 l 422 80 l 422 0 l 109 0 l 109 1194 m 209 1418 l 321 1418 l 403 1246 l 323 1246 l 265 1364 l 207 1246 l 127 1246 l 209 1418 z "},"Ë":{"ha":481,"x_min":39,"x_max":454,"o":"m 109 1194 l 424 1194 l 424 1115 l 210 1115 l 210 648 l 411 648 l 411 566 l 210 566 l 210 80 l 422 80 l 422 0 l 109 0 l 109 1194 m 39 1360 l 163 1360 l 163 1270 l 39 1270 l 39 1360 m 331 1360 l 454 1360 l 454 1270 l 331 1270 l 331 1360 z "},"Ì":{"ha":342,"x_min":61,"x_max":286,"o":"m 61 1305 l 61 1413 l 286 1288 l 286 1241 l 61 1305 m 121 1194 l 222 1194 l 222 0 l 121 0 l 121 1194 z "},"Í":{"ha":342,"x_min":53,"x_max":323,"o":"m 53 1331 l 323 1438 l 323 1341 l 53 1284 l 53 1331 m 121 1194 l 222 1194 l 222 0 l 121 0 l 121 1194 z "},"Î":{"ha":342,"x_min":33,"x_max":309,"o":"m 115 1418 l 227 1418 l 309 1246 l 229 1246 l 171 1364 l 113 1246 l 33 1246 l 115 1418 m 121 1194 l 222 1194 l 222 0 l 121 0 l 121 1194 z "},"Ï":{"ha":342,"x_min":-55,"x_max":360,"o":"m -55 1360 l 68 1360 l 68 1270 l -55 1270 l -55 1360 m 237 1360 l 360 1360 l 360 1270 l 237 1270 l 237 1360 m 121 1194 l 222 1194 l 222 0 l 121 0 l 121 1194 z "},"Ð":{"ha":612,"x_min":60,"x_max":523,"o":"m 421 864 q 391 1052 421 994 q 298 1109 361 1109 l 208 1109 l 208 87 l 292 87 q 401 163 376 87 q 422 352 422 227 l 421 864 m 108 1194 l 292 1194 q 496 1062 452 1194 q 522 853 522 985 l 523 342 q 470 78 523 155 q 288 0 417 0 l 108 0 l 108 1194 m 60 650 l 350 650 l 350 582 l 60 582 l 60 650 z "},"Ñ":{"ha":659,"x_min":109,"x_max":550,"o":"m 131 1319 q 179 1398 150 1385 q 241 1411 208 1411 q 337 1385 275 1411 q 414 1360 400 1360 l 417 1360 q 437 1372 429 1362 q 455 1409 446 1381 l 526 1390 l 520 1372 q 480 1292 500 1310 q 427 1274 460 1274 q 333 1301 394 1274 q 253 1329 272 1329 q 222 1326 233 1329 q 194 1288 212 1324 l 131 1319 m 462 1194 l 550 1194 l 550 0 l 471 0 l 197 899 l 203 576 l 203 0 l 109 0 l 109 1194 l 179 1194 l 472 271 l 462 682 l 462 1194 z "},"Ò":{"ha":602,"x_min":91,"x_max":511,"o":"m 191 1304 l 191 1413 l 416 1287 l 416 1240 l 191 1304 m 410 868 q 389 1068 410 1010 q 304 1126 368 1126 q 216 1066 241 1126 q 192 869 192 1007 l 192 352 q 209 141 192 187 q 247 82 226 95 q 301 69 267 69 q 355 82 335 69 q 393 141 376 95 q 410 352 410 186 l 410 868 m 91 860 q 145 1142 91 1076 q 312 1208 199 1208 q 467 1135 425 1208 q 503 1020 496 1086 q 511 860 511 954 l 511 352 q 492 133 511 197 q 450 43 473 70 q 302 -14 401 -14 q 116 115 153 -14 q 91 352 91 199 l 91 860 z "},"Ó":{"ha":602,"x_min":91,"x_max":511,"o":"m 410 868 q 389 1068 410 1010 q 304 1126 368 1126 q 216 1066 241 1126 q 192 869 192 1007 l 192 352 q 209 141 192 187 q 247 82 226 95 q 301 69 267 69 q 355 82 335 69 q 393 141 376 95 q 410 352 410 186 l 410 868 m 91 860 q 145 1142 91 1076 q 312 1208 199 1208 q 467 1135 425 1208 q 503 1020 496 1086 q 511 860 511 954 l 511 352 q 492 133 511 197 q 450 43 473 70 q 302 -14 401 -14 q 116 115 153 -14 q 91 352 91 199 l 91 860 m 181 1331 l 451 1438 l 451 1340 l 181 1284 l 181 1331 z "},"Ô":{"ha":602,"x_min":91,"x_max":511,"o":"m 410 868 q 389 1068 410 1010 q 304 1126 368 1126 q 216 1066 241 1126 q 192 869 192 1007 l 192 352 q 209 141 192 187 q 247 82 226 95 q 301 69 267 69 q 355 82 335 69 q 393 141 376 95 q 410 352 410 186 l 410 868 m 91 860 q 145 1142 91 1076 q 312 1208 199 1208 q 467 1135 425 1208 q 503 1020 496 1086 q 511 860 511 954 l 511 352 q 492 133 511 197 q 450 43 473 70 q 302 -14 401 -14 q 116 115 153 -14 q 91 352 91 199 l 91 860 m 242 1417 l 355 1417 l 436 1245 l 357 1245 l 298 1364 l 240 1245 l 160 1245 l 242 1417 z "},"Õ":{"ha":602,"x_min":91,"x_max":511,"o":"m 103 1318 q 151 1397 122 1384 q 213 1410 180 1410 q 310 1385 247 1410 q 387 1360 372 1360 l 389 1360 q 409 1371 401 1362 q 427 1408 418 1380 l 498 1389 l 492 1371 q 453 1291 473 1310 q 399 1273 433 1273 q 305 1301 366 1273 q 225 1329 244 1329 q 195 1326 205 1329 q 166 1287 184 1323 l 103 1318 m 410 868 q 389 1068 410 1010 q 304 1126 368 1126 q 216 1066 241 1126 q 192 869 192 1007 l 192 352 q 209 141 192 187 q 247 82 226 95 q 301 69 267 69 q 355 82 335 69 q 393 141 376 95 q 410 352 410 186 l 410 868 m 91 860 q 145 1142 91 1076 q 312 1208 199 1208 q 467 1135 425 1208 q 503 1020 496 1086 q 511 860 511 954 l 511 352 q 492 133 511 197 q 450 43 473 70 q 302 -14 401 -14 q 116 115 153 -14 q 91 352 91 199 l 91 860 z "},"Ö":{"ha":602,"x_min":73,"x_max":511,"o":"m 410 868 q 389 1068 410 1010 q 304 1126 368 1126 q 216 1066 241 1126 q 192 869 192 1007 l 192 352 q 209 141 192 187 q 247 82 226 95 q 301 69 267 69 q 355 82 335 69 q 393 141 376 95 q 410 352 410 186 l 410 868 m 91 860 q 145 1142 91 1076 q 312 1208 199 1208 q 467 1135 425 1208 q 503 1020 496 1086 q 511 860 511 954 l 511 352 q 492 133 511 197 q 450 43 473 70 q 302 -14 401 -14 q 116 115 153 -14 q 91 352 91 199 l 91 860 m 73 1359 l 196 1359 l 196 1269 l 73 1269 l 73 1359 m 364 1359 l 488 1359 l 488 1269 l 364 1269 l 364 1359 z "},"×":{"ha":481,"x_min":57,"x_max":425,"o":"m 368 635 l 425 578 l 297 451 l 425 324 l 368 267 l 241 395 l 114 267 l 57 324 l 184 451 l 57 578 l 114 635 l 241 507 l 368 635 z "},"Ø":{"ha":610,"x_min":39,"x_max":605,"o":"m 408 939 q 389 1068 404 1026 q 305 1126 369 1126 q 216 1066 241 1126 q 192 869 192 1007 l 192 352 q 192 324 192 338 l 408 939 m 207 146 q 244 83 222 98 q 301 69 267 69 q 355 82 335 69 q 393 141 376 95 q 410 352 410 186 l 410 718 l 207 146 m 117 111 q 91 352 91 195 l 91 860 q 145 1142 91 1076 q 315 1208 199 1208 q 473 1124 430 1208 l 532 1293 l 605 1268 l 506 989 q 511 860 511 933 l 511 352 q 492 133 511 197 q 450 43 473 70 q 308 -14 401 -14 q 166 31 215 -14 l 106 -140 l 39 -113 l 117 111 z "},"Ù":{"ha":618,"x_min":99,"x_max":519,"o":"m 199 1305 l 199 1414 l 424 1289 l 424 1242 l 199 1305 m 418 1194 l 519 1194 l 519 307 q 476 62 519 138 q 310 -14 433 -14 q 143 62 186 -14 q 99 307 99 139 l 99 1194 l 200 1194 l 200 310 q 211 144 200 186 q 306 69 231 69 q 392 104 367 69 q 418 309 418 139 l 418 1194 z "},"Ú":{"ha":618,"x_min":99,"x_max":519,"o":"m 418 1194 l 519 1194 l 519 307 q 476 62 519 138 q 310 -14 433 -14 q 143 62 186 -14 q 99 307 99 139 l 99 1194 l 200 1194 l 200 310 q 211 144 200 186 q 306 69 231 69 q 392 104 367 69 q 418 309 418 139 l 418 1194 m 199 1331 l 469 1438 l 469 1341 l 199 1284 l 199 1331 z "},"Û":{"ha":618,"x_min":99,"x_max":519,"o":"m 418 1194 l 519 1194 l 519 307 q 476 62 519 138 q 310 -14 433 -14 q 143 62 186 -14 q 99 307 99 139 l 99 1194 l 200 1194 l 200 310 q 211 144 200 186 q 306 69 231 69 q 392 104 367 69 q 418 309 418 139 l 418 1194 m 260 1419 l 372 1419 l 454 1246 l 374 1246 l 316 1365 l 258 1246 l 178 1246 l 260 1419 z "},"Ü":{"ha":618,"x_min":90,"x_max":519,"o":"m 418 1194 l 519 1194 l 519 307 q 476 62 519 138 q 310 -14 433 -14 q 143 62 186 -14 q 99 307 99 139 l 99 1194 l 200 1194 l 200 310 q 211 144 200 186 q 306 69 231 69 q 392 104 367 69 q 418 309 418 139 l 418 1194 m 90 1360 l 214 1360 l 214 1270 l 90 1270 l 90 1360 m 382 1360 l 505 1360 l 505 1270 l 382 1270 l 382 1360 z "},"Ý":{"ha":544,"x_min":16,"x_max":528,"o":"m 159 1331 l 429 1438 l 429 1341 l 159 1284 l 159 1331 m 423 1194 l 528 1194 l 333 524 l 333 0 l 232 0 l 232 524 l 16 1194 l 118 1194 l 281 666 l 283 666 l 423 1194 z "},"Þ":{"ha":594,"x_min":120,"x_max":534,"o":"m 434 684 q 414 878 434 821 q 333 934 393 934 l 221 934 l 221 380 l 329 380 q 413 438 391 380 q 434 659 434 497 l 434 684 m 120 1194 l 221 1194 l 221 1018 l 328 1018 q 490 945 445 1018 q 527 833 519 897 q 534 673 534 768 l 534 660 q 515 441 534 505 q 471 351 495 378 q 321 294 421 294 l 221 294 l 221 0 l 120 0 l 120 1194 z "},"ß":{"ha":633,"x_min":104,"x_max":564,"o":"m 104 961 q 107 1078 104 1055 q 117 1119 111 1101 q 302 1208 141 1208 q 411 1197 368 1208 q 479 1156 453 1185 q 514 1081 505 1126 q 523 961 523 1036 l 523 827 q 499 701 523 740 q 408 641 475 663 q 502 598 469 626 q 549 519 535 571 q 564 375 564 467 l 564 323 q 552 141 564 193 q 517 59 541 90 q 351 0 471 0 l 281 0 l 281 86 q 396 96 369 86 q 434 116 423 105 q 454 154 444 126 q 463 268 463 182 l 463 445 q 426 559 463 529 q 287 589 389 589 l 287 683 q 395 706 365 683 q 426 793 426 730 l 426 1017 q 401 1118 426 1091 q 312 1144 376 1144 q 226 1117 248 1144 q 203 1017 203 1090 l 203 0 l 104 0 l 104 961 z "},"à":{"ha":593,"x_min":98,"x_max":494,"o":"m 199 1128 l 199 1237 l 424 1112 l 424 1065 l 199 1128 m 110 713 q 116 856 110 823 q 129 912 122 888 q 146 951 136 936 q 171 983 156 967 q 204 1009 185 1000 q 249 1024 223 1018 q 305 1029 274 1029 q 361 1024 336 1029 q 406 1012 387 1019 q 438 988 425 1005 q 462 958 452 970 q 494 707 494 913 l 494 0 l 393 0 l 393 76 q 350 21 385 49 q 260 -7 315 -7 q 139 60 180 -7 q 98 256 98 127 l 98 386 q 131 494 98 456 q 189 549 165 533 q 319 617 254 589 q 393 648 384 644 l 393 762 q 386 878 393 861 q 374 907 378 896 q 302 941 359 941 q 228 893 245 941 q 212 711 212 845 l 212 686 l 110 686 l 110 713 m 393 568 q 264 504 281 517 q 233 477 247 491 q 198 345 198 442 l 198 264 q 214 118 198 159 q 273 77 231 77 q 347 98 315 77 q 393 143 380 119 l 393 568 z "},"á":{"ha":593,"x_min":98,"x_max":494,"o":"m 191 1155 l 460 1262 l 460 1164 l 191 1108 l 191 1155 m 110 713 q 116 856 110 823 q 129 912 122 888 q 146 951 136 936 q 171 983 156 967 q 204 1009 185 1000 q 249 1024 223 1018 q 305 1029 274 1029 q 361 1024 336 1029 q 406 1012 387 1019 q 438 988 425 1005 q 462 958 452 970 q 494 707 494 913 l 494 0 l 393 0 l 393 76 q 350 21 385 49 q 260 -7 315 -7 q 139 60 180 -7 q 98 256 98 127 l 98 386 q 131 494 98 456 q 189 549 165 533 q 319 617 254 589 q 393 648 384 644 l 393 762 q 386 878 393 861 q 374 907 378 896 q 302 941 359 941 q 228 893 245 941 q 212 711 212 845 l 212 686 l 110 686 l 110 713 m 393 568 q 264 504 281 517 q 233 477 247 491 q 198 345 198 442 l 198 264 q 214 118 198 159 q 273 77 231 77 q 347 98 315 77 q 393 143 380 119 l 393 568 z "},"â":{"ha":593,"x_min":98,"x_max":494,"o":"m 252 1242 l 365 1242 l 446 1069 l 367 1069 l 309 1188 l 250 1069 l 170 1069 l 252 1242 m 110 713 q 116 856 110 823 q 129 912 122 888 q 146 951 136 936 q 171 983 156 967 q 204 1009 185 1000 q 249 1024 223 1018 q 305 1029 274 1029 q 361 1024 336 1029 q 406 1012 387 1019 q 438 988 425 1005 q 462 958 452 970 q 494 707 494 913 l 494 0 l 393 0 l 393 76 q 350 21 385 49 q 260 -7 315 -7 q 139 60 180 -7 q 98 256 98 127 l 98 386 q 131 494 98 456 q 189 549 165 533 q 319 617 254 589 q 393 648 384 644 l 393 762 q 386 878 393 861 q 374 907 378 896 q 302 941 359 941 q 228 893 245 941 q 212 711 212 845 l 212 686 l 110 686 l 110 713 m 393 568 q 264 504 281 517 q 233 477 247 491 q 198 345 198 442 l 198 264 q 214 118 198 159 q 273 77 231 77 q 347 98 315 77 q 393 143 380 119 l 393 568 z "},"ã":{"ha":593,"x_min":98,"x_max":506,"o":"m 111 1143 q 158 1221 130 1208 q 221 1234 187 1234 q 317 1209 254 1234 q 394 1184 380 1184 l 397 1184 q 417 1195 408 1186 q 435 1232 425 1204 l 506 1213 l 500 1196 q 460 1116 480 1134 q 407 1097 440 1097 q 313 1125 374 1097 q 232 1153 252 1153 q 202 1150 213 1153 q 174 1112 191 1147 l 111 1143 m 110 713 q 116 856 110 823 q 129 912 122 888 q 146 951 136 936 q 171 983 156 967 q 204 1009 185 1000 q 249 1024 223 1018 q 305 1029 274 1029 q 361 1024 336 1029 q 406 1012 387 1019 q 438 988 425 1005 q 462 958 452 970 q 494 707 494 913 l 494 0 l 393 0 l 393 76 q 350 21 385 49 q 260 -7 315 -7 q 139 60 180 -7 q 98 256 98 127 l 98 386 q 131 494 98 456 q 189 549 165 533 q 319 617 254 589 q 393 648 384 644 l 393 762 q 386 878 393 861 q 374 907 378 896 q 302 941 359 941 q 228 893 245 941 q 212 711 212 845 l 212 686 l 110 686 l 110 713 m 393 568 q 264 504 281 517 q 233 477 247 491 q 198 345 198 442 l 198 264 q 214 118 198 159 q 273 77 231 77 q 347 98 315 77 q 393 143 380 119 l 393 568 z "},"ä":{"ha":593,"x_min":83,"x_max":498,"o":"m 83 1183 l 206 1183 l 206 1093 l 83 1093 l 83 1183 m 374 1183 l 498 1183 l 498 1093 l 374 1093 l 374 1183 m 110 713 q 116 856 110 823 q 129 912 122 888 q 146 951 136 936 q 171 983 156 967 q 204 1009 185 1000 q 249 1024 223 1018 q 305 1029 274 1029 q 361 1024 336 1029 q 406 1012 387 1019 q 438 988 425 1005 q 462 958 452 970 q 494 707 494 913 l 494 0 l 393 0 l 393 76 q 350 21 385 49 q 260 -7 315 -7 q 139 60 180 -7 q 98 256 98 127 l 98 386 q 131 494 98 456 q 189 549 165 533 q 319 617 254 589 q 393 648 384 644 l 393 762 q 386 878 393 861 q 374 907 378 896 q 302 941 359 941 q 228 893 245 941 q 212 711 212 845 l 212 686 l 110 686 l 110 713 m 393 568 q 264 504 281 517 q 233 477 247 491 q 198 345 198 442 l 198 264 q 214 118 198 159 q 273 77 231 77 q 347 98 315 77 q 393 143 380 119 l 393 568 z "},"å":{"ha":593,"x_min":98,"x_max":494,"o":"m 358 1119 q 367 1129 358 1119 q 376 1168 376 1139 q 358 1217 376 1196 q 309 1237 340 1237 q 260 1216 277 1237 q 242 1168 242 1196 q 260 1119 242 1140 q 309 1099 277 1099 q 358 1119 340 1099 m 308 1064 q 281 1064 308 1064 q 223 1095 254 1064 q 193 1167 193 1126 q 223 1240 193 1208 q 308 1271 254 1271 q 393 1240 363 1271 q 422 1167 422 1208 q 393 1095 422 1126 q 308 1064 363 1064 m 110 713 q 116 856 110 823 q 129 912 122 888 q 146 951 136 936 q 171 983 156 967 q 204 1009 185 1000 q 249 1024 223 1018 q 305 1029 274 1029 q 361 1024 336 1029 q 406 1012 387 1019 q 438 988 425 1005 q 462 958 452 970 q 494 707 494 913 l 494 0 l 393 0 l 393 76 q 350 21 385 49 q 260 -7 315 -7 q 139 60 180 -7 q 98 256 98 127 l 98 386 q 131 494 98 456 q 189 549 165 533 q 319 617 254 589 q 393 648 384 644 l 393 762 q 386 878 393 861 q 374 907 378 896 q 302 941 359 941 q 228 893 245 941 q 212 711 212 845 l 212 686 l 110 686 l 110 713 m 393 568 q 264 504 281 517 q 233 477 247 491 q 198 345 198 442 l 198 264 q 214 118 198 159 q 273 77 231 77 q 347 98 315 77 q 393 143 380 119 l 393 568 z "},"æ":{"ha":858,"x_min":98,"x_max":780,"o":"m 678 593 l 678 734 q 670 881 678 862 q 650 921 663 901 q 594 941 638 941 q 529 911 551 941 q 501 837 507 882 q 494 721 494 791 l 494 593 l 678 593 m 393 143 l 393 570 q 264 505 282 518 q 233 478 247 491 q 198 347 198 444 l 198 264 q 214 117 198 159 q 273 76 231 76 q 347 97 315 76 q 393 143 380 119 m 305 1029 q 444 968 414 1029 q 590 1029 493 1029 q 720 987 686 1029 q 766 887 753 944 q 779 680 779 829 l 780 511 l 494 511 l 494 300 q 505 146 495 184 q 581 77 523 77 q 582 77 581 77 q 621 81 608 76 q 675 189 668 99 q 678 298 678 227 l 678 377 l 777 377 l 777 342 q 769 148 777 178 q 732 46 748 62 q 697 15 716 31 q 589 -12 663 -12 q 425 70 470 -12 q 332 11 383 30 q 252 -7 281 -7 q 98 254 98 -7 l 98 384 q 156 521 98 469 q 350 629 216 572 q 393 648 382 643 l 393 722 q 385 883 393 862 q 363 923 376 905 q 306 941 351 941 q 219 861 230 941 q 212 710 212 802 l 212 686 l 110 686 l 110 713 q 122 892 110 856 q 190 1000 149 970 q 305 1029 231 1029 z "},"ç":{"ha":536,"x_min":87,"x_max":475,"o":"m 184 -340 q 340 -244 340 -340 q 309 -172 340 -201 q 232 -133 277 -143 l 259 0 l 298 0 l 304 -100 q 425 -264 425 -161 q 373 -360 425 -315 q 243 -404 321 -404 q 184 -398 216 -404 l 184 -340 m 87 697 q 121 933 87 867 q 212 1019 155 1000 q 302 1029 245 1029 q 406 998 359 1029 q 456 920 437 978 q 475 692 475 863 l 475 660 l 372 660 l 372 722 q 364 876 372 840 q 289 937 349 937 q 197 851 215 937 q 188 717 188 805 l 188 309 q 198 145 188 171 q 220 105 209 119 q 288 81 239 81 q 354 124 337 81 q 372 218 371 167 q 372 304 372 269 l 372 381 l 475 381 l 475 351 q 465 142 475 198 q 293 -12 438 -12 q 129 64 170 -12 q 94 180 101 115 q 87 347 87 245 l 87 697 z "},"è":{"ha":554,"x_min":87,"x_max":473,"o":"m 176 1128 l 176 1237 l 401 1112 l 401 1065 l 176 1128 m 372 595 l 372 731 q 363 881 372 846 q 289 941 349 941 q 194 836 209 941 q 188 731 188 793 q 188 719 188 725 l 188 595 l 372 595 m 87 688 q 119 932 87 865 q 210 1018 153 998 q 289 1029 244 1029 q 366 1019 333 1029 q 449 930 415 1002 q 473 680 473 879 l 473 510 l 188 510 l 188 305 q 211 112 188 148 q 280 77 235 77 q 345 105 326 77 q 368 179 363 134 q 372 301 372 224 l 372 377 l 471 377 l 471 344 q 460 138 471 193 q 293 -12 435 -12 q 129 64 170 -12 q 94 178 101 114 q 87 347 87 243 l 87 688 z "},"é":{"ha":554,"x_min":87,"x_max":473,"o":"m 372 595 l 372 731 q 363 881 372 846 q 289 941 349 941 q 194 836 209 941 q 188 731 188 793 q 188 719 188 725 l 188 595 l 372 595 m 87 688 q 119 932 87 865 q 210 1018 153 998 q 289 1029 244 1029 q 366 1019 333 1029 q 449 930 415 1002 q 473 680 473 879 l 473 510 l 188 510 l 188 305 q 211 112 188 148 q 280 77 235 77 q 345 105 326 77 q 368 179 363 134 q 372 301 372 224 l 372 377 l 471 377 l 471 344 q 460 138 471 193 q 293 -12 435 -12 q 129 64 170 -12 q 94 178 101 114 q 87 347 87 243 l 87 688 m 174 1155 l 444 1262 l 444 1164 l 174 1108 l 174 1155 z "},"ê":{"ha":554,"x_min":87,"x_max":473,"o":"m 372 595 l 372 731 q 363 881 372 846 q 289 941 349 941 q 194 836 209 941 q 188 731 188 793 q 188 719 188 725 l 188 595 l 372 595 m 87 688 q 119 932 87 865 q 210 1018 153 998 q 289 1029 244 1029 q 366 1019 333 1029 q 449 930 415 1002 q 473 680 473 879 l 473 510 l 188 510 l 188 305 q 211 112 188 148 q 280 77 235 77 q 345 105 326 77 q 368 179 363 134 q 372 301 372 224 l 372 377 l 471 377 l 471 344 q 460 138 471 193 q 293 -12 435 -12 q 129 64 170 -12 q 94 178 101 114 q 87 347 87 243 l 87 688 m 235 1242 l 348 1242 l 429 1069 l 350 1069 l 292 1188 l 233 1069 l 153 1069 l 235 1242 z "},"ë":{"ha":554,"x_min":66,"x_max":481,"o":"m 372 595 l 372 731 q 363 881 372 846 q 289 941 349 941 q 194 836 209 941 q 188 731 188 793 q 188 719 188 725 l 188 595 l 372 595 m 87 688 q 119 932 87 865 q 210 1018 153 998 q 289 1029 244 1029 q 366 1019 333 1029 q 449 930 415 1002 q 473 680 473 879 l 473 510 l 188 510 l 188 305 q 211 112 188 148 q 280 77 235 77 q 345 105 326 77 q 368 179 363 134 q 372 301 372 224 l 372 377 l 471 377 l 471 344 q 460 138 471 193 q 293 -12 435 -12 q 129 64 170 -12 q 94 178 101 114 q 87 347 87 243 l 87 688 m 66 1183 l 189 1183 l 189 1093 l 66 1093 l 66 1183 m 357 1183 l 481 1183 l 481 1093 l 357 1093 l 357 1183 z "},"ì":{"ha":321,"x_min":44,"x_max":269,"o":"m 44 1128 l 44 1237 l 269 1112 l 269 1065 l 44 1128 m 110 1017 l 212 1017 l 212 0 l 110 0 l 110 1017 z "},"í":{"ha":321,"x_min":36,"x_max":306,"o":"m 110 1017 l 212 1017 l 212 0 l 110 0 l 110 1017 m 36 1155 l 306 1262 l 306 1164 l 36 1108 l 36 1155 z "},"î":{"ha":321,"x_min":16,"x_max":292,"o":"m 110 1017 l 212 1017 l 212 0 l 110 0 l 110 1017 m 98 1242 l 210 1242 l 292 1069 l 212 1069 l 154 1188 l 96 1069 l 16 1069 l 98 1242 z "},"ï":{"ha":321,"x_min":-72,"x_max":343,"o":"m 110 1017 l 212 1017 l 212 0 l 110 0 l 110 1017 m -72 1183 l 52 1183 l 52 1093 l -72 1093 l -72 1183 m 220 1183 l 343 1183 l 343 1093 l 220 1093 l 220 1183 z "},"ð":{"ha":628,"x_min":77,"x_max":633,"o":"m 418 628 q 377 646 416 629 q 290 663 338 663 q 200 601 222 663 q 178 370 178 539 l 178 302 q 188 159 178 207 q 223 92 199 111 q 294 73 247 73 q 392 133 367 73 q 418 342 418 194 l 418 628 m 370 1040 q 210 1112 309 1112 q 200 1112 205 1112 l 200 1207 l 210 1207 q 461 1096 376 1207 l 597 1177 l 633 1109 l 498 1028 q 519 650 509 996 l 519 343 q 453 54 519 137 q 283 -14 399 -14 q 122 65 168 -14 q 77 300 77 144 l 77 378 q 122 668 77 587 q 280 748 167 748 q 308 747 288 748 q 363 730 328 747 q 419 684 399 713 q 406 972 414 944 l 253 881 l 217 949 l 370 1040 z "},"ñ":{"ha":625,"x_min":109,"x_max":524,"o":"m 115 1143 q 162 1221 134 1208 q 225 1234 191 1234 q 321 1209 258 1234 q 398 1184 384 1184 l 401 1184 q 421 1195 412 1186 q 439 1232 429 1204 l 510 1213 l 504 1196 q 464 1116 484 1134 q 411 1097 444 1097 q 317 1125 378 1097 q 236 1153 256 1153 q 206 1150 217 1153 q 178 1112 195 1147 l 115 1143 m 210 918 q 270 997 223 963 q 379 1030 316 1030 q 483 978 442 1030 q 524 821 524 926 l 524 0 l 422 0 l 422 829 q 396 915 422 888 q 324 941 369 941 q 210 827 210 941 l 210 0 l 109 0 l 109 1017 l 210 1017 l 210 918 z "},"ò":{"ha":573,"x_min":87,"x_max":486,"o":"m 177 1128 l 177 1237 l 402 1112 l 402 1065 l 177 1128 m 385 714 q 339 925 385 889 q 290 941 319 941 q 198 854 213 941 q 188 714 188 801 l 188 314 q 213 120 188 164 q 294 77 239 77 q 368 139 350 77 q 385 314 385 201 l 385 714 m 87 690 q 120 933 87 867 q 210 1019 153 1000 q 286 1029 244 1029 q 479 843 458 1029 q 486 690 486 779 l 486 349 q 481 194 486 229 q 471 133 476 159 q 283 -12 444 -12 q 178 15 217 -12 q 92 204 103 66 q 87 349 87 265 l 87 690 z "},"ó":{"ha":573,"x_min":87,"x_max":486,"o":"m 385 714 q 339 925 385 889 q 290 941 319 941 q 198 854 213 941 q 188 714 188 801 l 188 314 q 213 120 188 164 q 294 77 239 77 q 368 139 350 77 q 385 314 385 201 l 385 714 m 87 690 q 120 933 87 867 q 210 1019 153 1000 q 286 1029 244 1029 q 479 843 458 1029 q 486 690 486 779 l 486 349 q 481 194 486 229 q 471 133 476 159 q 283 -12 444 -12 q 178 15 217 -12 q 92 204 103 66 q 87 349 87 265 l 87 690 m 175 1155 l 445 1262 l 445 1164 l 175 1108 l 175 1155 z "},"ô":{"ha":573,"x_min":87,"x_max":486,"o":"m 385 714 q 339 925 385 889 q 290 941 319 941 q 198 854 213 941 q 188 714 188 801 l 188 314 q 213 120 188 164 q 294 77 239 77 q 368 139 350 77 q 385 314 385 201 l 385 714 m 87 690 q 120 933 87 867 q 210 1019 153 1000 q 286 1029 244 1029 q 479 843 458 1029 q 486 690 486 779 l 486 349 q 481 194 486 229 q 471 133 476 159 q 283 -12 444 -12 q 178 15 217 -12 q 92 204 103 66 q 87 349 87 265 l 87 690 m 236 1242 l 349 1242 l 430 1069 l 351 1069 l 292 1188 l 234 1069 l 154 1069 l 236 1242 z "},"õ":{"ha":573,"x_min":87,"x_max":486,"o":"m 89 1143 q 137 1221 108 1208 q 199 1234 165 1234 q 295 1209 233 1234 q 372 1184 358 1184 l 375 1184 q 395 1195 387 1186 q 413 1232 404 1204 l 484 1213 l 478 1196 q 438 1116 458 1134 q 385 1097 418 1097 q 291 1125 352 1097 q 211 1153 230 1153 q 180 1150 191 1153 q 152 1112 170 1147 l 89 1143 m 385 714 q 339 925 385 889 q 290 941 319 941 q 198 854 213 941 q 188 714 188 801 l 188 314 q 213 120 188 164 q 294 77 239 77 q 368 139 350 77 q 385 314 385 201 l 385 714 m 87 690 q 120 933 87 867 q 210 1019 153 1000 q 286 1029 244 1029 q 479 843 458 1029 q 486 690 486 779 l 486 349 q 481 194 486 229 q 471 133 476 159 q 283 -12 444 -12 q 178 15 217 -12 q 92 204 103 66 q 87 349 87 265 l 87 690 z "},"ö":{"ha":573,"x_min":66,"x_max":486,"o":"m 385 714 q 339 925 385 889 q 290 941 319 941 q 198 854 213 941 q 188 714 188 801 l 188 314 q 213 120 188 164 q 294 77 239 77 q 368 139 350 77 q 385 314 385 201 l 385 714 m 87 690 q 120 933 87 867 q 210 1019 153 1000 q 286 1029 244 1029 q 479 843 458 1029 q 486 690 486 779 l 486 349 q 481 194 486 229 q 471 133 476 159 q 283 -12 444 -12 q 178 15 217 -12 q 92 204 103 66 q 87 349 87 265 l 87 690 m 66 1183 l 190 1183 l 190 1093 l 66 1093 l 66 1183 m 358 1183 l 481 1183 l 481 1093 l 358 1093 l 358 1183 z "},"÷":{"ha":545,"x_min":64,"x_max":481,"o":"m 205 796 l 340 796 l 340 662 l 205 662 l 205 796 m 205 363 l 340 363 l 340 222 l 205 222 l 205 363 m 64 558 l 481 558 l 481 480 l 64 480 l 64 558 z "},"ø":{"ha":596,"x_min":87,"x_max":505,"o":"m 366 883 q 290 941 331 930 q 198 854 213 941 q 188 714 188 801 l 188 314 q 189 252 188 281 l 366 883 m 222 108 q 299 77 248 77 q 368 139 350 77 q 385 314 385 201 l 385 690 l 222 108 m 454 935 q 486 690 486 869 l 486 349 q 481 194 486 229 q 471 133 476 159 q 283 -12 444 -12 q 193 5 229 -12 l 159 -117 l 91 -98 l 135 59 q 93 189 99 113 q 87 349 87 265 l 87 690 q 120 933 87 867 q 210 1019 153 1000 q 299 1029 244 1029 q 399 1000 354 1029 l 436 1134 l 505 1115 l 454 935 z "},"ù":{"ha":627,"x_min":102,"x_max":518,"o":"m 218 1128 l 218 1237 l 443 1112 l 443 1065 l 218 1128 m 203 198 q 307 81 203 81 q 387 114 357 81 q 417 205 417 148 l 416 1017 l 518 1017 l 518 0 l 417 0 l 417 102 q 362 21 404 56 q 264 -14 319 -14 q 155 32 208 -14 q 102 193 102 78 l 102 1017 l 203 1017 l 203 198 z "},"ú":{"ha":627,"x_min":102,"x_max":518,"o":"m 203 198 q 307 81 203 81 q 387 114 357 81 q 417 205 417 148 l 416 1017 l 518 1017 l 518 0 l 417 0 l 417 102 q 362 21 404 56 q 264 -14 319 -14 q 155 32 208 -14 q 102 193 102 78 l 102 1017 l 203 1017 l 203 198 m 210 1155 l 479 1262 l 479 1164 l 210 1108 l 210 1155 z "},"û":{"ha":627,"x_min":102,"x_max":518,"o":"m 203 198 q 307 81 203 81 q 387 114 357 81 q 417 205 417 148 l 416 1017 l 518 1017 l 518 0 l 417 0 l 417 102 q 362 21 404 56 q 264 -14 319 -14 q 155 32 208 -14 q 102 193 102 78 l 102 1017 l 203 1017 l 203 198 m 271 1242 l 383 1242 l 465 1069 l 385 1069 l 327 1188 l 269 1069 l 189 1069 l 271 1242 z "},"ü":{"ha":627,"x_min":101,"x_max":518,"o":"m 203 198 q 307 81 203 81 q 387 114 357 81 q 417 205 417 148 l 416 1017 l 518 1017 l 518 0 l 417 0 l 417 102 q 362 21 404 56 q 264 -14 319 -14 q 155 32 208 -14 q 102 193 102 78 l 102 1017 l 203 1017 l 203 198 m 101 1183 l 224 1183 l 224 1093 l 101 1093 l 101 1183 m 393 1183 l 516 1183 l 516 1093 l 393 1093 l 393 1183 z "},"ý":{"ha":497,"x_min":41,"x_max":468,"o":"m 138 1155 l 408 1262 l 408 1164 l 138 1108 l 138 1155 m 367 1017 l 468 1017 l 306 2 q 270 -127 290 -102 q 224 -157 250 -153 q 172 -161 199 -161 l 88 -161 l 88 -75 l 125 -75 q 209 -67 198 -75 q 218 -40 218 -58 q 216 -10 218 -22 q 211 26 214 2 l 41 1017 l 143 1017 l 224 479 l 256 203 l 265 203 l 294 479 l 367 1017 z "},"þ":{"ha":598,"x_min":109,"x_max":507,"o":"m 405 720 q 395 869 405 840 q 372 919 385 898 q 327 940 358 940 q 308 940 322 940 q 227 878 249 940 q 210 718 210 829 l 210 314 q 231 131 210 184 q 309 78 252 78 q 386 131 367 78 q 405 317 405 184 l 405 720 m 109 1209 l 210 1209 l 210 939 q 345 1025 246 1025 q 490 888 460 1024 q 507 687 506 812 l 507 322 q 412 12 507 75 q 329 -12 374 -12 q 254 13 284 -12 q 210 73 224 37 l 210 -180 l 109 -180 l 109 1209 z "},"ÿ":{"ha":497,"x_min":30,"x_max":468,"o":"m 30 1183 l 153 1183 l 153 1093 l 30 1093 l 30 1183 m 321 1183 l 445 1183 l 445 1093 l 321 1093 l 321 1183 m 367 1017 l 468 1017 l 306 2 q 270 -127 290 -102 q 224 -157 250 -153 q 172 -161 199 -161 l 88 -161 l 88 -75 l 125 -75 q 209 -67 198 -75 q 218 -40 218 -58 q 216 -10 218 -22 q 211 26 214 2 l 41 1017 l 143 1017 l 224 479 l 256 203 l 265 203 l 294 479 l 367 1017 z "},"Ā":{"ha":583,"x_min":38,"x_max":545,"o":"m 107 1324 l 443 1324 l 443 1248 l 107 1248 l 107 1324 m 230 1194 l 333 1194 l 545 0 l 448 0 l 408 242 l 170 242 l 134 0 l 38 0 l 230 1194 m 395 326 l 285 1001 l 283 1001 l 182 326 l 395 326 z "},"ā":{"ha":593,"x_min":98,"x_max":494,"o":"m 134 1148 l 469 1148 l 469 1072 l 134 1072 l 134 1148 m 110 713 q 116 856 110 823 q 129 912 122 888 q 146 951 136 936 q 171 983 156 967 q 204 1009 185 1000 q 249 1024 223 1018 q 305 1029 274 1029 q 361 1024 336 1029 q 406 1012 387 1019 q 438 988 425 1005 q 462 958 452 970 q 494 707 494 913 l 494 0 l 393 0 l 393 76 q 350 21 385 49 q 260 -7 315 -7 q 139 60 180 -7 q 98 256 98 127 l 98 386 q 131 494 98 456 q 189 549 165 533 q 319 617 254 589 q 393 648 384 644 l 393 762 q 386 878 393 861 q 374 907 378 896 q 302 941 359 941 q 228 893 245 941 q 212 711 212 845 l 212 686 l 110 686 l 110 713 m 393 568 q 264 504 281 517 q 233 477 247 491 q 198 345 198 442 l 198 264 q 214 118 198 159 q 273 77 231 77 q 347 98 315 77 q 393 143 380 119 l 393 568 z "},"Ă":{"ha":583,"x_min":38,"x_max":545,"o":"m 366 1413 l 410 1413 l 410 1404 q 377 1309 410 1344 q 281 1274 344 1274 q 184 1309 218 1274 q 151 1402 151 1343 l 151 1413 l 195 1413 q 281 1336 195 1336 q 366 1413 366 1336 m 230 1194 l 333 1194 l 545 0 l 448 0 l 408 242 l 170 242 l 134 0 l 38 0 l 230 1194 m 395 326 l 285 1001 l 283 1001 l 182 326 l 395 326 z "},"ă":{"ha":593,"x_min":98,"x_max":494,"o":"m 393 1236 l 436 1236 l 436 1227 q 403 1133 436 1168 q 307 1098 370 1098 q 211 1132 244 1098 q 178 1226 178 1166 l 178 1236 l 221 1236 q 307 1160 222 1160 q 393 1236 393 1160 m 110 713 q 116 856 110 823 q 129 912 122 888 q 146 951 136 936 q 171 983 156 967 q 204 1009 185 1000 q 249 1024 223 1018 q 305 1029 274 1029 q 361 1024 336 1029 q 406 1012 387 1019 q 438 988 425 1005 q 462 958 452 970 q 494 707 494 913 l 494 0 l 393 0 l 393 76 q 350 21 385 49 q 260 -7 315 -7 q 139 60 180 -7 q 98 256 98 127 l 98 386 q 131 494 98 456 q 189 549 165 533 q 319 617 254 589 q 393 648 384 644 l 393 762 q 386 878 393 861 q 374 907 378 896 q 302 941 359 941 q 228 893 245 941 q 212 711 212 845 l 212 686 l 110 686 l 110 713 m 393 568 q 264 504 281 517 q 233 477 247 491 q 198 345 198 442 l 198 264 q 214 118 198 159 q 273 77 231 77 q 347 98 315 77 q 393 143 380 119 l 393 568 z "},"Ą":{"ha":583,"x_min":38,"x_max":553,"o":"m 553 -272 q 467 -286 524 -286 q 336 -187 336 -286 q 366 -89 336 -140 q 455 7 395 -38 l 498 7 q 424 -81 449 -35 q 399 -164 399 -127 q 473 -223 399 -223 q 530 -216 508 -223 q 553 -209 553 -210 l 553 -272 m 230 1194 l 333 1194 l 545 0 l 448 0 l 408 242 l 170 242 l 134 0 l 38 0 l 230 1194 m 395 326 l 285 1001 l 283 1001 l 182 326 l 395 326 z "},"ą":{"ha":593,"x_min":98,"x_max":550,"o":"m 550 -272 q 463 -286 520 -286 q 332 -187 332 -286 q 362 -89 332 -140 q 452 7 392 -38 l 495 7 q 421 -81 446 -35 q 396 -164 396 -127 q 469 -223 396 -223 q 527 -216 505 -223 q 550 -209 549 -210 l 550 -272 m 110 713 q 116 856 110 823 q 129 912 122 888 q 146 951 136 936 q 171 983 156 967 q 204 1009 185 1000 q 249 1024 223 1018 q 305 1029 274 1029 q 361 1024 336 1029 q 406 1012 387 1019 q 438 988 425 1005 q 462 958 452 970 q 494 707 494 913 l 494 0 l 393 0 l 393 76 q 350 21 385 49 q 260 -7 315 -7 q 139 60 180 -7 q 98 256 98 127 l 98 386 q 131 494 98 456 q 189 549 165 533 q 319 617 254 589 q 393 648 384 644 l 393 762 q 386 878 393 861 q 374 907 378 896 q 302 941 359 941 q 228 893 245 941 q 212 711 212 845 l 212 686 l 110 686 l 110 713 m 393 568 q 264 504 281 517 q 233 477 247 491 q 198 345 198 442 l 198 264 q 214 118 198 159 q 273 77 231 77 q 347 98 315 77 q 393 143 380 119 l 393 568 z "},"Ć":{"ha":587,"x_min":91,"x_max":508,"o":"m 91 848 q 145 1137 91 1065 q 301 1208 200 1208 q 445 1159 401 1208 q 486 1088 476 1123 q 508 840 508 1005 l 508 737 l 406 737 l 406 852 q 389 1054 406 1003 q 343 1118 373 1105 q 306 1126 327 1126 q 217 1060 241 1126 q 192 853 192 994 l 192 374 q 214 135 192 201 q 300 69 235 69 q 386 135 366 69 q 406 374 406 201 l 406 469 l 507 469 l 507 374 q 490 149 507 218 q 450 50 472 80 q 302 -14 402 -14 q 153 50 203 -14 q 91 373 91 127 l 91 848 m 179 1331 l 449 1438 l 449 1341 l 179 1284 l 179 1331 z "},"ć":{"ha":536,"x_min":87,"x_max":475,"o":"m 87 697 q 121 933 87 867 q 212 1019 155 1000 q 302 1029 245 1029 q 406 998 359 1029 q 456 920 437 978 q 475 692 475 863 l 475 660 l 372 660 l 372 722 q 364 876 372 840 q 289 937 349 937 q 197 851 215 937 q 188 717 188 805 l 188 309 q 198 145 188 171 q 220 105 209 119 q 288 81 239 81 q 354 124 337 81 q 372 218 371 167 q 372 304 372 269 l 372 381 l 475 381 l 475 351 q 465 142 475 198 q 293 -12 438 -12 q 129 64 170 -12 q 94 180 101 115 q 87 347 87 245 l 87 697 m 176 1155 l 446 1262 l 446 1164 l 176 1108 l 176 1155 z "},"Ĉ":{"ha":587,"x_min":91,"x_max":508,"o":"m 91 848 q 145 1137 91 1065 q 301 1208 200 1208 q 445 1159 401 1208 q 486 1088 476 1123 q 508 840 508 1005 l 508 737 l 406 737 l 406 852 q 389 1054 406 1003 q 343 1118 373 1105 q 306 1126 327 1126 q 217 1060 241 1126 q 192 853 192 994 l 192 374 q 214 135 192 201 q 300 69 235 69 q 386 135 366 69 q 406 374 406 201 l 406 469 l 507 469 l 507 374 q 490 149 507 218 q 450 50 472 80 q 302 -14 402 -14 q 153 50 203 -14 q 91 373 91 127 l 91 848 m 241 1418 l 353 1418 l 435 1246 l 355 1246 l 297 1364 l 239 1246 l 159 1246 l 241 1418 z "},"ĉ":{"ha":536,"x_min":87,"x_max":475,"o":"m 87 697 q 121 933 87 867 q 212 1019 155 1000 q 302 1029 245 1029 q 406 998 359 1029 q 456 920 437 978 q 475 692 475 863 l 475 660 l 372 660 l 372 722 q 364 876 372 840 q 289 937 349 937 q 197 851 215 937 q 188 717 188 805 l 188 309 q 198 145 188 171 q 220 105 209 119 q 288 81 239 81 q 354 124 337 81 q 372 218 371 167 q 372 304 372 269 l 372 381 l 475 381 l 475 351 q 465 142 475 198 q 293 -12 438 -12 q 129 64 170 -12 q 94 180 101 115 q 87 347 87 245 l 87 697 m 237 1242 l 350 1242 l 431 1069 l 352 1069 l 294 1188 l 235 1069 l 155 1069 l 237 1242 z "},"Ċ":{"ha":587,"x_min":91,"x_max":508,"o":"m 250 1348 l 357 1348 l 357 1258 l 250 1258 l 250 1348 m 91 848 q 145 1137 91 1065 q 301 1208 200 1208 q 445 1159 401 1208 q 486 1088 476 1123 q 508 840 508 1005 l 508 737 l 406 737 l 406 852 q 389 1054 406 1003 q 343 1118 373 1105 q 306 1126 327 1126 q 217 1060 241 1126 q 192 853 192 994 l 192 374 q 214 135 192 201 q 300 69 235 69 q 386 135 366 69 q 406 374 406 201 l 406 469 l 507 469 l 507 374 q 490 149 507 218 q 450 50 472 80 q 302 -14 402 -14 q 153 50 203 -14 q 91 373 91 127 l 91 848 z "},"ċ":{"ha":536,"x_min":87,"x_max":475,"o":"m 239 1172 l 347 1172 l 347 1082 l 239 1082 l 239 1172 m 87 697 q 121 933 87 867 q 212 1019 155 1000 q 302 1029 245 1029 q 406 998 359 1029 q 456 920 437 978 q 475 692 475 863 l 475 660 l 372 660 l 372 722 q 364 876 372 840 q 289 937 349 937 q 197 851 215 937 q 188 717 188 805 l 188 309 q 198 145 188 171 q 220 105 209 119 q 288 81 239 81 q 354 124 337 81 q 372 218 371 167 q 372 304 372 269 l 372 381 l 475 381 l 475 351 q 465 142 475 198 q 293 -12 438 -12 q 129 64 170 -12 q 94 180 101 115 q 87 347 87 245 l 87 697 z "},"Č":{"ha":587,"x_min":91,"x_max":508,"o":"m 91 848 q 145 1137 91 1065 q 301 1208 200 1208 q 445 1159 401 1208 q 486 1088 476 1123 q 508 840 508 1005 l 508 737 l 406 737 l 406 852 q 389 1054 406 1003 q 343 1118 373 1105 q 306 1126 327 1126 q 217 1060 241 1126 q 192 853 192 994 l 192 374 q 214 135 192 201 q 300 69 235 69 q 386 135 366 69 q 406 374 406 201 l 406 469 l 507 469 l 507 374 q 490 149 507 218 q 450 50 472 80 q 302 -14 402 -14 q 153 50 203 -14 q 91 373 91 127 l 91 848 m 355 1417 l 435 1417 l 353 1246 l 241 1246 l 159 1417 l 239 1417 l 297 1299 l 355 1417 z "},"č":{"ha":536,"x_min":87,"x_max":475,"o":"m 87 697 q 121 933 87 867 q 212 1019 155 1000 q 302 1029 245 1029 q 406 998 359 1029 q 456 920 437 978 q 475 692 475 863 l 475 660 l 372 660 l 372 722 q 364 876 372 840 q 289 937 349 937 q 197 851 215 937 q 188 717 188 805 l 188 309 q 198 145 188 171 q 220 105 209 119 q 288 81 239 81 q 354 124 337 81 q 372 218 371 167 q 372 304 372 269 l 372 381 l 475 381 l 475 351 q 465 142 475 198 q 293 -12 438 -12 q 129 64 170 -12 q 94 180 101 115 q 87 347 87 245 l 87 697 m 352 1241 l 431 1241 l 350 1069 l 237 1069 l 155 1241 l 235 1241 l 294 1122 l 352 1241 z "},"Ď":{"ha":612,"x_min":108,"x_max":523,"o":"m 421 864 q 391 1052 421 994 q 298 1109 361 1109 l 208 1109 l 208 87 l 292 87 q 401 163 376 87 q 422 352 422 227 l 421 864 m 108 1194 l 292 1194 q 496 1062 452 1194 q 522 853 522 985 l 523 342 q 470 78 523 155 q 288 0 417 0 l 108 0 l 108 1194 m 353 1417 l 433 1417 l 351 1246 l 239 1246 l 157 1417 l 237 1417 l 295 1299 l 353 1417 z "},"ď":{"ha":591,"x_min":88,"x_max":763,"o":"m 385 703 q 365 887 385 834 q 287 939 345 939 q 210 885 229 939 q 190 699 190 831 l 190 296 q 212 117 190 156 q 277 77 234 77 q 339 93 321 77 q 371 147 358 109 q 385 294 385 184 l 385 703 m 384 1209 l 486 1209 l 486 0 l 384 0 l 384 77 q 249 -7 349 -7 q 105 127 136 -7 q 88 326 88 201 l 88 684 q 137 959 88 888 q 276 1029 186 1029 q 340 1005 311 1029 q 384 945 370 980 l 384 1209 m 579 1209 l 763 1209 l 763 1078 l 686 789 l 614 789 l 675 1072 l 579 1072 l 579 1209 z "},"Đ":{"ha":612,"x_min":9,"x_max":523,"o":"m 421 864 q 391 1052 421 994 q 298 1109 361 1109 l 208 1109 l 208 87 l 292 87 q 401 163 376 87 q 422 352 422 227 l 421 864 m 108 1194 l 292 1194 q 496 1062 452 1194 q 522 853 522 985 l 523 342 q 470 78 523 155 q 288 0 417 0 l 108 0 l 108 1194 m 9 647 l 345 647 l 345 570 l 9 570 l 9 647 z "},"đ":{"ha":591,"x_min":88,"x_max":588,"o":"m 385 703 q 365 887 385 834 q 287 939 345 939 q 210 885 229 939 q 190 699 190 831 l 190 296 q 212 117 190 156 q 277 77 234 77 q 339 93 321 77 q 371 147 358 109 q 385 294 385 184 l 385 703 m 384 1209 l 486 1209 l 486 0 l 384 0 l 384 77 q 249 -7 349 -7 q 105 127 136 -7 q 88 326 88 201 l 88 684 q 137 959 88 888 q 276 1029 186 1029 q 340 1005 311 1029 q 384 945 370 980 l 384 1209 m 252 1143 l 588 1143 l 588 1066 l 252 1066 l 252 1143 z "},"Ē":{"ha":481,"x_min":95,"x_max":431,"o":"m 95 1324 l 431 1324 l 431 1248 l 95 1248 l 95 1324 m 109 1194 l 424 1194 l 424 1115 l 210 1115 l 210 648 l 411 648 l 411 566 l 210 566 l 210 80 l 422 80 l 422 0 l 109 0 l 109 1194 z "},"ē":{"ha":554,"x_min":87,"x_max":473,"o":"m 111 1148 l 447 1148 l 447 1072 l 111 1072 l 111 1148 m 372 595 l 372 731 q 363 881 372 846 q 289 941 349 941 q 194 836 209 941 q 188 731 188 793 q 188 719 188 725 l 188 595 l 372 595 m 87 688 q 119 932 87 865 q 210 1018 153 998 q 289 1029 244 1029 q 366 1019 333 1029 q 449 930 415 1002 q 473 680 473 879 l 473 510 l 188 510 l 188 305 q 211 112 188 148 q 280 77 235 77 q 345 105 326 77 q 368 179 363 134 q 372 301 372 224 l 372 377 l 471 377 l 471 344 q 460 138 471 193 q 293 -12 435 -12 q 129 64 170 -12 q 94 178 101 114 q 87 347 87 243 l 87 688 z "},"Ĕ":{"ha":481,"x_min":109,"x_max":424,"o":"m 354 1413 l 397 1413 l 397 1404 q 365 1309 397 1344 q 269 1274 332 1274 q 172 1309 205 1274 q 139 1402 139 1343 l 139 1413 l 182 1413 q 269 1336 183 1336 q 354 1413 354 1336 m 109 1194 l 424 1194 l 424 1115 l 210 1115 l 210 648 l 411 648 l 411 566 l 210 566 l 210 80 l 422 80 l 422 0 l 109 0 l 109 1194 z "},"ĕ":{"ha":554,"x_min":87,"x_max":473,"o":"m 370 1236 l 414 1236 l 414 1227 q 381 1133 414 1168 q 285 1098 348 1098 q 189 1132 222 1098 q 155 1226 155 1166 l 155 1236 l 199 1236 q 285 1160 199 1160 q 370 1236 370 1160 m 372 595 l 372 731 q 363 881 372 846 q 289 941 349 941 q 194 836 209 941 q 188 731 188 793 q 188 719 188 725 l 188 595 l 372 595 m 87 688 q 119 932 87 865 q 210 1018 153 998 q 289 1029 244 1029 q 366 1019 333 1029 q 449 930 415 1002 q 473 680 473 879 l 473 510 l 188 510 l 188 305 q 211 112 188 148 q 280 77 235 77 q 345 105 326 77 q 368 179 363 134 q 372 301 372 224 l 372 377 l 471 377 l 471 344 q 460 138 471 193 q 293 -12 435 -12 q 129 64 170 -12 q 94 178 101 114 q 87 347 87 243 l 87 688 z "},"Ė":{"ha":481,"x_min":109,"x_max":424,"o":"m 220 1348 l 328 1348 l 328 1258 l 220 1258 l 220 1348 m 109 1194 l 424 1194 l 424 1115 l 210 1115 l 210 648 l 411 648 l 411 566 l 210 566 l 210 80 l 422 80 l 422 0 l 109 0 l 109 1194 z "},"ė":{"ha":554,"x_min":87,"x_max":473,"o":"m 237 1172 l 345 1172 l 345 1082 l 237 1082 l 237 1172 m 372 595 l 372 731 q 363 881 372 846 q 289 941 349 941 q 194 836 209 941 q 188 731 188 793 q 188 719 188 725 l 188 595 l 372 595 m 87 688 q 119 932 87 865 q 210 1018 153 998 q 289 1029 244 1029 q 366 1019 333 1029 q 449 930 415 1002 q 473 680 473 879 l 473 510 l 188 510 l 188 305 q 211 112 188 148 q 280 77 235 77 q 345 105 326 77 q 368 179 363 134 q 372 301 372 224 l 372 377 l 471 377 l 471 344 q 460 138 471 193 q 293 -12 435 -12 q 129 64 170 -12 q 94 178 101 114 q 87 347 87 243 l 87 688 z "},"Ę":{"ha":481,"x_min":109,"x_max":427,"o":"m 109 1194 l 424 1194 l 424 1115 l 210 1115 l 210 648 l 411 648 l 411 566 l 210 566 l 210 80 l 422 80 l 422 0 l 109 0 l 109 1194 m 427 -272 q 340 -286 397 -286 q 210 -187 210 -286 q 239 -89 210 -140 q 329 7 269 -38 l 372 7 q 298 -81 323 -35 q 273 -164 273 -127 q 347 -223 273 -223 q 404 -216 382 -223 q 427 -209 427 -210 l 427 -272 z "},"ę":{"ha":554,"x_min":87,"x_max":473,"o":"m 411 -272 q 324 -286 381 -286 q 193 -187 193 -286 q 223 -89 193 -140 q 313 7 253 -38 l 356 7 q 282 -81 307 -35 q 257 -164 257 -127 q 330 -223 257 -223 q 388 -216 366 -223 q 411 -209 410 -210 l 411 -272 m 372 595 l 372 731 q 363 881 372 846 q 289 941 349 941 q 194 836 209 941 q 188 731 188 793 q 188 719 188 725 l 188 595 l 372 595 m 87 688 q 119 932 87 865 q 210 1018 153 998 q 289 1029 244 1029 q 366 1019 333 1029 q 449 930 415 1002 q 473 680 473 879 l 473 510 l 188 510 l 188 305 q 211 112 188 148 q 280 77 235 77 q 345 105 326 77 q 368 179 363 134 q 372 301 372 224 l 372 377 l 471 377 l 471 344 q 460 138 471 193 q 293 -12 435 -12 q 129 64 170 -12 q 94 178 101 114 q 87 347 87 243 l 87 688 z "},"Ě":{"ha":481,"x_min":109,"x_max":424,"o":"m 109 1194 l 424 1194 l 424 1115 l 210 1115 l 210 648 l 411 648 l 411 566 l 210 566 l 210 80 l 422 80 l 422 0 l 109 0 l 109 1194 m 323 1417 l 403 1417 l 321 1246 l 209 1246 l 127 1417 l 207 1417 l 265 1299 l 323 1417 z "},"ě":{"ha":554,"x_min":87,"x_max":473,"o":"m 372 595 l 372 731 q 363 881 372 846 q 289 941 349 941 q 194 836 209 941 q 188 731 188 793 q 188 719 188 725 l 188 595 l 372 595 m 87 688 q 119 932 87 865 q 210 1018 153 998 q 289 1029 244 1029 q 366 1019 333 1029 q 449 930 415 1002 q 473 680 473 879 l 473 510 l 188 510 l 188 305 q 211 112 188 148 q 280 77 235 77 q 345 105 326 77 q 368 179 363 134 q 372 301 372 224 l 372 377 l 471 377 l 471 344 q 460 138 471 193 q 293 -12 435 -12 q 129 64 170 -12 q 94 178 101 114 q 87 347 87 243 l 87 688 m 350 1241 l 429 1241 l 348 1069 l 235 1069 l 153 1241 l 233 1241 l 292 1122 l 350 1241 z "},"Ĝ":{"ha":603,"x_min":91,"x_max":507,"o":"m 91 844 q 127 1102 91 1029 q 302 1208 180 1208 q 421 1178 380 1208 q 475 1112 463 1147 q 502 984 498 1044 q 507 846 507 923 l 507 746 l 404 746 l 404 930 q 383 1079 404 1032 q 302 1126 363 1126 q 217 1065 241 1126 q 192 855 192 1004 l 192 368 q 214 134 192 199 q 299 69 235 69 q 385 135 363 69 q 406 367 406 201 l 406 517 l 304 517 l 304 604 l 507 604 l 507 0 l 440 0 l 429 69 q 370 7 404 27 q 283 -14 336 -14 q 137 74 182 -14 q 91 361 91 162 l 91 844 m 250 1418 l 363 1418 l 444 1246 l 365 1246 l 307 1364 l 248 1246 l 168 1246 l 250 1418 z "},"ĝ":{"ha":583,"x_min":85,"x_max":483,"o":"m 249 1242 l 361 1242 l 443 1069 l 363 1069 l 305 1188 l 247 1069 l 167 1069 l 249 1242 m 382 712 q 358 903 382 865 q 284 941 334 941 q 214 904 235 941 q 190 813 193 867 q 186 713 186 759 l 186 414 q 209 228 186 283 q 294 173 232 173 q 345 191 327 174 q 382 416 382 229 l 382 712 m 85 687 q 129 933 85 838 q 264 1029 173 1029 q 382 958 355 1029 l 382 1017 l 483 1017 l 483 66 q 370 -138 483 -85 q 278 -159 326 -159 q 177 -143 230 -159 q 90 -100 125 -127 l 128 -22 q 277 -71 195 -71 q 356 -37 330 -71 q 382 54 382 -3 l 382 166 q 331 103 361 121 q 258 86 300 86 q 106 218 141 86 q 85 429 85 300 l 85 687 z "},"Ğ":{"ha":603,"x_min":91,"x_max":507,"o":"m 393 1413 l 437 1413 l 437 1404 q 404 1309 437 1344 q 308 1274 371 1274 q 212 1309 245 1274 q 178 1402 178 1343 l 178 1413 l 222 1413 q 308 1336 222 1336 q 393 1413 393 1336 m 91 844 q 127 1102 91 1029 q 302 1208 180 1208 q 421 1178 380 1208 q 475 1112 463 1147 q 502 984 498 1044 q 507 846 507 923 l 507 746 l 404 746 l 404 930 q 383 1079 404 1032 q 302 1126 363 1126 q 217 1065 241 1126 q 192 855 192 1004 l 192 368 q 214 134 192 199 q 299 69 235 69 q 385 135 363 69 q 406 367 406 201 l 406 517 l 304 517 l 304 604 l 507 604 l 507 0 l 440 0 l 429 69 q 370 7 404 27 q 283 -14 336 -14 q 137 74 182 -14 q 91 361 91 162 l 91 844 z "},"ğ":{"ha":583,"x_min":85,"x_max":483,"o":"m 389 1236 l 433 1236 l 433 1227 q 400 1133 433 1168 q 304 1098 367 1098 q 208 1132 241 1098 q 174 1226 174 1166 l 174 1236 l 218 1236 q 304 1160 218 1160 q 389 1236 389 1160 m 382 712 q 358 903 382 865 q 284 941 334 941 q 214 904 235 941 q 190 813 193 867 q 186 713 186 759 l 186 414 q 209 228 186 283 q 294 173 232 173 q 345 191 327 174 q 382 416 382 229 l 382 712 m 85 687 q 129 933 85 838 q 264 1029 173 1029 q 382 958 355 1029 l 382 1017 l 483 1017 l 483 66 q 370 -138 483 -85 q 278 -159 326 -159 q 177 -143 230 -159 q 90 -100 125 -127 l 128 -22 q 277 -71 195 -71 q 356 -37 330 -71 q 382 54 382 -3 l 382 166 q 331 103 361 121 q 258 86 300 86 q 106 218 141 86 q 85 429 85 300 l 85 687 z "},"Ġ":{"ha":603,"x_min":91,"x_max":507,"o":"m 260 1348 l 368 1348 l 368 1258 l 260 1258 l 260 1348 m 91 844 q 127 1102 91 1029 q 302 1208 180 1208 q 421 1178 380 1208 q 475 1112 463 1147 q 502 984 498 1044 q 507 846 507 923 l 507 746 l 404 746 l 404 930 q 383 1079 404 1032 q 302 1126 363 1126 q 217 1065 241 1126 q 192 855 192 1004 l 192 368 q 214 134 192 199 q 299 69 235 69 q 385 135 363 69 q 406 367 406 201 l 406 517 l 304 517 l 304 604 l 507 604 l 507 0 l 440 0 l 429 69 q 370 7 404 27 q 283 -14 336 -14 q 137 74 182 -14 q 91 361 91 162 l 91 844 z "},"ġ":{"ha":583,"x_min":85,"x_max":483,"o":"m 256 1172 l 363 1172 l 363 1082 l 256 1082 l 256 1172 m 382 712 q 358 903 382 865 q 284 941 334 941 q 214 904 235 941 q 190 813 193 867 q 186 713 186 759 l 186 414 q 209 228 186 283 q 294 173 232 173 q 345 191 327 174 q 382 416 382 229 l 382 712 m 85 687 q 129 933 85 838 q 264 1029 173 1029 q 382 958 355 1029 l 382 1017 l 483 1017 l 483 66 q 370 -138 483 -85 q 278 -159 326 -159 q 177 -143 230 -159 q 90 -100 125 -127 l 128 -22 q 277 -71 195 -71 q 356 -37 330 -71 q 382 54 382 -3 l 382 166 q 331 103 361 121 q 258 86 300 86 q 106 218 141 86 q 85 429 85 300 l 85 687 z "},"Ģ":{"ha":603,"x_min":91,"x_max":507,"o":"m 250 -100 l 383 -100 l 383 -224 l 330 -415 l 288 -415 l 317 -230 l 250 -230 l 250 -100 m 91 844 q 127 1102 91 1029 q 302 1208 180 1208 q 421 1178 380 1208 q 475 1112 463 1147 q 502 984 498 1044 q 507 846 507 923 l 507 746 l 404 746 l 404 930 q 383 1079 404 1032 q 302 1126 363 1126 q 217 1065 241 1126 q 192 855 192 1004 l 192 368 q 214 134 192 199 q 299 69 235 69 q 385 135 363 69 q 406 367 406 201 l 406 517 l 304 517 l 304 604 l 507 604 l 507 0 l 440 0 l 429 69 q 370 7 404 27 q 283 -14 336 -14 q 137 74 182 -14 q 91 361 91 162 l 91 844 z "},"ģ":{"ha":583,"x_min":85,"x_max":483,"o":"m 210 1399 l 344 1399 l 344 1275 l 291 1084 l 249 1084 l 278 1269 l 210 1269 l 210 1399 m 382 712 q 358 903 382 865 q 284 941 334 941 q 214 904 235 941 q 190 813 193 867 q 186 713 186 759 l 186 414 q 209 228 186 283 q 294 173 232 173 q 345 191 327 174 q 382 416 382 229 l 382 712 m 85 687 q 129 933 85 838 q 264 1029 173 1029 q 382 958 355 1029 l 382 1017 l 483 1017 l 483 66 q 370 -138 483 -85 q 278 -159 326 -159 q 177 -143 230 -159 q 90 -100 125 -127 l 128 -22 q 277 -71 195 -71 q 356 -37 330 -71 q 382 54 382 -3 l 382 166 q 331 103 361 121 q 258 86 300 86 q 106 218 141 86 q 85 429 85 300 l 85 687 z "},"Ĥ":{"ha":637,"x_min":109,"x_max":529,"o":"m 428 1194 l 529 1194 l 529 0 l 428 0 l 428 601 l 210 601 l 210 0 l 109 0 l 109 1194 l 210 1194 l 210 677 l 428 677 l 428 1194 m 264 1418 l 377 1418 l 458 1246 l 379 1246 l 321 1364 l 262 1246 l 182 1246 l 264 1418 z "},"ĥ":{"ha":626,"x_min":109,"x_max":524,"o":"m 340 937 q 210 808 210 937 l 210 0 l 109 0 l 109 1209 l 210 1209 l 210 918 q 270 997 223 963 q 380 1030 317 1030 q 484 978 444 1030 q 524 821 524 926 l 524 0 l 422 0 l 422 814 q 398 910 422 884 q 340 937 374 937 m 258 1420 l 370 1420 l 452 1248 l 372 1248 l 314 1367 l 256 1248 l 176 1248 l 258 1420 z "},"Ħ":{"ha":632,"x_min":37,"x_max":610,"o":"m 210 960 l 210 677 l 428 677 l 428 960 l 210 960 m 428 1194 l 529 1194 l 529 1016 l 610 1016 l 610 960 l 529 960 l 529 0 l 428 0 l 428 601 l 210 601 l 210 0 l 109 0 l 109 960 l 37 960 l 37 1016 l 109 1016 l 109 1194 l 210 1194 l 210 1016 l 428 1016 l 428 1194 z "},"ħ":{"ha":627,"x_min":0,"x_max":524,"o":"m 340 937 q 210 808 210 937 l 210 0 l 109 0 l 109 1059 l 0 1059 l 0 1141 l 109 1141 l 109 1209 l 210 1209 l 210 1141 l 315 1141 l 315 1059 l 210 1059 l 210 918 q 270 997 223 963 q 380 1030 317 1030 q 484 978 444 1030 q 524 821 524 926 l 524 0 l 422 0 l 422 814 q 398 910 422 884 q 340 937 374 937 z "},"Ĩ":{"ha":342,"x_min":-27,"x_max":368,"o":"m -27 1319 q 21 1398 -8 1385 q 83 1411 50 1411 q 179 1385 117 1411 q 256 1360 242 1360 l 259 1360 q 279 1372 271 1362 q 297 1409 288 1381 l 368 1390 l 362 1372 q 322 1292 342 1310 q 269 1274 302 1274 q 175 1301 236 1274 q 95 1329 114 1329 q 64 1326 75 1329 q 36 1288 54 1324 l -27 1319 m 121 1194 l 222 1194 l 222 0 l 121 0 l 121 1194 z "},"ĩ":{"ha":321,"x_min":-44,"x_max":351,"o":"m -44 1143 q 4 1221 -25 1208 q 66 1234 33 1234 q 162 1209 100 1234 q 239 1184 225 1184 l 242 1184 q 262 1195 254 1186 q 280 1232 271 1204 l 351 1213 l 345 1196 q 306 1116 326 1134 q 252 1097 286 1097 q 158 1125 219 1097 q 78 1153 97 1153 q 47 1150 58 1153 q 19 1112 37 1147 l -44 1143 m 110 1017 l 212 1017 l 212 0 l 110 0 l 110 1017 z "},"Ī":{"ha":342,"x_min":-4,"x_max":332,"o":"m -4 1324 l 332 1324 l 332 1248 l -4 1248 l -4 1324 m 121 1194 l 222 1194 l 222 0 l 121 0 l 121 1194 z "},"ī":{"ha":321,"x_min":-21,"x_max":315,"o":"m -21 1148 l 315 1148 l 315 1072 l -21 1072 l -21 1148 m 110 1017 l 212 1017 l 212 0 l 110 0 l 110 1017 z "},"Ĭ":{"ha":342,"x_min":40,"x_max":298,"o":"m 255 1413 l 298 1413 l 298 1404 q 266 1309 298 1344 q 170 1274 233 1274 q 73 1309 106 1274 q 40 1402 40 1343 l 40 1413 l 83 1413 q 170 1336 84 1336 q 255 1413 255 1336 m 121 1194 l 222 1194 l 222 0 l 121 0 l 121 1194 z "},"ĭ":{"ha":321,"x_min":23,"x_max":281,"o":"m 238 1236 l 281 1236 l 281 1227 q 249 1133 281 1168 q 153 1098 216 1098 q 56 1132 90 1098 q 23 1226 23 1166 l 23 1236 l 66 1236 q 153 1160 67 1160 q 238 1236 238 1160 m 110 1017 l 212 1017 l 212 0 l 110 0 l 110 1017 z "},"Į":{"ha":342,"x_min":43,"x_max":260,"o":"m 260 -272 q 174 -286 231 -286 q 43 -187 43 -286 q 73 -89 43 -140 q 162 7 102 -38 l 205 7 q 131 -81 156 -35 q 106 -164 106 -127 q 180 -223 106 -223 q 237 -216 215 -223 q 260 -209 260 -210 l 260 -272 m 121 1194 l 222 1194 l 222 0 l 121 0 l 121 1194 z "},"į":{"ha":321,"x_min":40,"x_max":258,"o":"m 104 1172 l 212 1172 l 212 1082 l 104 1082 l 104 1172 m 258 -272 q 171 -286 228 -286 q 40 -187 40 -286 q 70 -89 40 -140 q 159 7 100 -38 l 203 7 q 129 -81 153 -35 q 104 -164 104 -127 q 177 -223 104 -223 q 235 -216 212 -223 q 258 -209 257 -210 l 258 -272 m 110 1017 l 212 1017 l 212 0 l 110 0 l 110 1017 z "},"İ":{"ha":342,"x_min":121,"x_max":229,"o":"m 121 1348 l 229 1348 l 229 1258 l 121 1258 l 121 1348 m 121 1194 l 222 1194 l 222 0 l 121 0 l 121 1194 z "},"ı":{"ha":321,"x_min":110,"x_max":212,"o":"m 110 1017 l 212 1017 l 212 0 l 110 0 l 110 1017 z "},"Ĳ":{"ha":883,"x_min":121,"x_max":780,"o":"m 679 1194 l 780 1194 l 780 285 q 738 57 780 129 q 593 -14 695 -14 q 448 52 490 -14 q 406 264 406 118 l 406 366 l 508 366 l 508 224 q 528 104 508 130 q 563 74 547 78 q 596 70 578 70 q 675 164 668 70 q 679 237 679 202 l 679 1194 m 121 1194 l 222 1194 l 222 0 l 121 0 l 121 1194 z "},"ĳ":{"ha":663,"x_min":110,"x_max":555,"o":"m 454 1208 l 555 1208 l 555 1111 l 454 1111 l 454 1208 m 519 -125 q 489 -145 505 -138 q 438 -152 473 -152 q 382 -148 403 -152 l 380 -148 l 380 -75 q 406 -77 393 -77 q 429 -75 418 -77 q 453 -30 453 -71 l 453 1017 l 554 1017 l 554 -23 q 519 -125 553 -98 m 110 1017 l 212 1017 l 212 0 l 110 0 l 110 1017 m 110 1208 l 211 1208 l 211 1111 l 110 1111 l 110 1208 z "},"Ĵ":{"ha":541,"x_min":64,"x_max":513,"o":"m 337 1194 l 438 1194 l 438 285 q 396 57 438 129 q 251 -14 353 -14 q 106 52 149 -14 q 64 264 64 118 l 64 366 l 166 366 l 166 224 q 186 104 166 130 q 221 74 205 78 q 254 70 236 70 q 334 164 326 70 q 337 237 337 202 l 337 1194 m 319 1418 l 432 1418 l 513 1246 l 434 1246 l 376 1364 l 317 1246 l 237 1246 l 319 1418 z "},"ĵ":{"ha":348,"x_min":58,"x_max":334,"o":"m 239 23 q 123 -106 239 -106 q 79 -103 103 -106 l 64 -102 l 64 -28 q 85 -30 68 -28 q 113 -29 102 -31 q 138 16 138 -25 l 138 1017 l 239 1017 l 239 23 m 140 1242 l 253 1242 l 334 1069 l 255 1069 l 197 1188 l 138 1069 l 58 1069 l 140 1242 z "},"Ķ":{"ha":561,"x_min":109,"x_max":564,"o":"m 228 -100 l 361 -100 l 361 -224 l 309 -415 l 267 -415 l 296 -230 l 228 -230 l 228 -100 m 450 1194 l 548 1194 l 302 604 l 564 0 l 459 0 l 211 583 l 211 0 l 109 0 l 109 1194 l 210 1194 l 210 606 l 450 1194 z "},"ķ":{"ha":542,"x_min":109,"x_max":548,"o":"m 212 -100 l 345 -100 l 345 -224 l 292 -415 l 250 -415 l 279 -230 l 212 -230 l 212 -100 m 109 1209 l 210 1209 l 210 515 l 435 1017 l 536 1017 l 304 513 l 548 0 l 442 0 l 210 503 l 210 0 l 109 0 l 109 1209 z "},"ĸ":{"ha":542,"x_min":109,"x_max":548,"o":"m 109 1017 l 210 1017 l 210 515 l 435 1017 l 536 1017 l 304 513 l 548 0 l 442 0 l 210 503 l 210 0 l 109 0 l 109 1017 z "},"Ĺ":{"ha":433,"x_min":109,"x_max":421,"o":"m 109 1194 l 210 1194 l 210 80 l 421 80 l 421 0 l 109 0 l 109 1194 m 115 1331 l 385 1438 l 385 1341 l 115 1284 l 115 1331 z "},"ĺ":{"ha":319,"x_min":41,"x_max":311,"o":"m 109 1209 l 210 1209 l 210 0 l 109 0 l 109 1209 m 41 1331 l 311 1438 l 311 1341 l 41 1284 l 41 1331 z "},"Ļ":{"ha":433,"x_min":109,"x_max":421,"o":"m 213 -100 l 347 -100 l 347 -224 l 294 -415 l 252 -415 l 281 -230 l 213 -230 l 213 -100 m 109 1194 l 210 1194 l 210 80 l 421 80 l 421 0 l 109 0 l 109 1194 z "},"ļ":{"ha":319,"x_min":100,"x_max":233,"o":"m 100 -100 l 233 -100 l 233 -224 l 180 -415 l 138 -415 l 168 -230 l 100 -230 l 100 -100 m 109 1209 l 210 1209 l 210 0 l 109 0 l 109 1209 z "},"Ľ":{"ha":480,"x_min":109,"x_max":534,"o":"m 109 1194 l 210 1194 l 210 80 l 421 80 l 421 0 l 109 0 l 109 1194 m 399 1196 l 534 1196 l 534 1072 l 480 880 l 439 880 l 467 1065 l 399 1065 l 399 1196 z "},"ľ":{"ha":319,"x_min":109,"x_max":544,"o":"m 360 1225 l 544 1225 l 544 1095 l 467 806 l 395 806 l 456 1088 l 360 1088 l 360 1225 m 109 1209 l 210 1209 l 210 0 l 109 0 l 109 1209 z "},"Ŀ":{"ha":433,"x_min":109,"x_max":456,"o":"m 340 671 l 456 671 l 456 553 l 340 553 l 340 671 m 109 1194 l 210 1194 l 210 80 l 421 80 l 421 0 l 109 0 l 109 1194 z "},"ŀ":{"ha":319,"x_min":109,"x_max":458,"o":"m 342 674 l 458 674 l 458 555 l 342 555 l 342 674 m 109 1209 l 210 1209 l 210 0 l 109 0 l 109 1209 z "},"Ł":{"ha":478,"x_min":-1,"x_max":421,"o":"m 109 1194 l 210 1194 l 210 713 l 337 768 l 337 686 l 210 630 l 210 80 l 421 80 l 421 0 l 109 0 l 109 586 l -1 538 l -1 621 l 109 669 l 109 1194 z "},"ł":{"ha":496,"x_min":67,"x_max":414,"o":"m 172 1209 l 274 1209 l 274 718 l 414 782 l 414 685 l 274 621 l 274 0 l 172 0 l 172 575 l 67 528 l 67 625 l 172 672 l 172 1209 z "},"Ń":{"ha":659,"x_min":109,"x_max":550,"o":"m 462 1194 l 550 1194 l 550 0 l 471 0 l 197 899 l 203 576 l 203 0 l 109 0 l 109 1194 l 179 1194 l 472 271 l 462 682 l 462 1194 m 209 1331 l 479 1438 l 479 1341 l 209 1284 l 209 1331 z "},"ń":{"ha":625,"x_min":109,"x_max":524,"o":"m 195 1155 l 465 1262 l 465 1164 l 195 1108 l 195 1155 m 210 918 q 270 997 223 963 q 379 1030 316 1030 q 483 978 442 1030 q 524 821 524 926 l 524 0 l 422 0 l 422 829 q 396 915 422 888 q 324 941 369 941 q 210 827 210 941 l 210 0 l 109 0 l 109 1017 l 210 1017 l 210 918 z "},"Ņ":{"ha":659,"x_min":109,"x_max":550,"o":"m 269 -100 l 403 -100 l 403 -224 l 350 -415 l 308 -415 l 337 -230 l 269 -230 l 269 -100 m 462 1194 l 550 1194 l 550 0 l 471 0 l 197 899 l 203 576 l 203 0 l 109 0 l 109 1194 l 179 1194 l 472 271 l 462 682 l 462 1194 z "},"ņ":{"ha":625,"x_min":109,"x_max":524,"o":"m 253 -100 l 387 -100 l 387 -224 l 334 -415 l 292 -415 l 321 -230 l 253 -230 l 253 -100 m 210 918 q 270 997 223 963 q 379 1030 316 1030 q 483 978 442 1030 q 524 821 524 926 l 524 0 l 422 0 l 422 829 q 396 915 422 888 q 324 941 369 941 q 210 827 210 941 l 210 0 l 109 0 l 109 1017 l 210 1017 l 210 918 z "},"Ň":{"ha":659,"x_min":109,"x_max":550,"o":"m 462 1194 l 550 1194 l 550 0 l 471 0 l 197 899 l 203 576 l 203 0 l 109 0 l 109 1194 l 179 1194 l 472 271 l 462 682 l 462 1194 m 385 1417 l 464 1417 l 382 1246 l 270 1246 l 188 1417 l 268 1417 l 326 1299 l 385 1417 z "},"ň":{"ha":625,"x_min":109,"x_max":524,"o":"m 371 1241 l 450 1241 l 369 1069 l 256 1069 l 174 1241 l 254 1241 l 313 1122 l 371 1241 m 210 918 q 270 997 223 963 q 379 1030 316 1030 q 483 978 442 1030 q 524 821 524 926 l 524 0 l 422 0 l 422 829 q 396 915 422 888 q 324 941 369 941 q 210 827 210 941 l 210 0 l 109 0 l 109 1017 l 210 1017 l 210 918 z "},"Ō":{"ha":602,"x_min":91,"x_max":511,"o":"m 132 1369 l 481 1369 l 481 1291 l 132 1291 l 132 1369 m 410 868 q 389 1068 410 1010 q 304 1126 368 1126 q 216 1066 241 1126 q 192 869 192 1007 l 192 352 q 209 141 192 187 q 247 82 226 95 q 301 69 267 69 q 355 82 335 69 q 393 141 376 95 q 410 352 410 186 l 410 868 m 91 860 q 145 1142 91 1076 q 312 1208 199 1208 q 467 1135 425 1208 q 503 1020 496 1086 q 511 860 511 954 l 511 352 q 492 133 511 197 q 450 43 473 70 q 302 -14 401 -14 q 116 115 153 -14 q 91 352 91 199 l 91 860 z "},"ō":{"ha":573,"x_min":87,"x_max":486,"o":"m 114 1190 l 464 1190 l 464 1112 l 114 1112 l 114 1190 m 385 714 q 339 925 385 889 q 290 941 319 941 q 198 854 213 941 q 188 714 188 801 l 188 314 q 213 120 188 164 q 294 77 239 77 q 368 139 350 77 q 385 314 385 201 l 385 714 m 87 690 q 120 933 87 867 q 210 1019 153 1000 q 286 1029 244 1029 q 479 843 458 1029 q 486 690 486 779 l 486 349 q 481 194 486 229 q 471 133 476 159 q 283 -12 444 -12 q 178 15 217 -12 q 92 204 103 66 q 87 349 87 265 l 87 690 z "},"Ŏ":{"ha":602,"x_min":91,"x_max":511,"o":"m 385 1412 l 429 1412 l 429 1403 q 396 1309 429 1343 q 300 1274 363 1274 q 203 1308 237 1274 q 170 1402 170 1342 l 170 1412 l 214 1412 q 300 1335 214 1335 q 385 1412 385 1335 m 410 868 q 389 1068 410 1010 q 304 1126 368 1126 q 216 1066 241 1126 q 192 869 192 1007 l 192 352 q 209 141 192 187 q 247 82 226 95 q 301 69 267 69 q 355 82 335 69 q 393 141 376 95 q 410 352 410 186 l 410 868 m 91 860 q 145 1142 91 1076 q 312 1208 199 1208 q 467 1135 425 1208 q 503 1020 496 1086 q 511 860 511 954 l 511 352 q 492 133 511 197 q 450 43 473 70 q 302 -14 401 -14 q 116 115 153 -14 q 91 352 91 199 l 91 860 z "},"ŏ":{"ha":573,"x_min":87,"x_max":486,"o":"m 371 1236 l 414 1236 l 414 1227 q 381 1133 414 1168 q 286 1098 349 1098 q 189 1132 222 1098 q 156 1226 156 1166 l 156 1236 l 199 1236 q 286 1160 200 1160 q 371 1236 371 1160 m 385 714 q 339 925 385 889 q 290 941 319 941 q 198 854 213 941 q 188 714 188 801 l 188 314 q 213 120 188 164 q 294 77 239 77 q 368 139 350 77 q 385 314 385 201 l 385 714 m 87 690 q 120 933 87 867 q 210 1019 153 1000 q 286 1029 244 1029 q 479 843 458 1029 q 486 690 486 779 l 486 349 q 481 194 486 229 q 471 133 476 159 q 283 -12 444 -12 q 178 15 217 -12 q 92 204 103 66 q 87 349 87 265 l 87 690 z "},"Ő":{"ha":602,"x_min":91,"x_max":551,"o":"m 410 868 q 389 1068 410 1010 q 304 1126 368 1126 q 216 1066 241 1126 q 192 869 192 1007 l 192 352 q 209 141 192 187 q 247 82 226 95 q 301 69 267 69 q 355 82 335 69 q 393 141 376 95 q 410 352 410 186 l 410 868 m 91 860 q 145 1142 91 1076 q 312 1208 199 1208 q 467 1135 425 1208 q 503 1020 496 1086 q 511 860 511 954 l 511 352 q 492 133 511 197 q 450 43 473 70 q 302 -14 401 -14 q 116 115 153 -14 q 91 352 91 199 l 91 860 m 157 1322 l 229 1587 l 340 1534 l 203 1302 l 157 1322 m 327 1322 l 438 1587 l 551 1527 l 373 1295 l 327 1322 z "},"ő":{"ha":573,"x_min":87,"x_max":545,"o":"m 385 714 q 339 925 385 889 q 290 941 319 941 q 198 854 213 941 q 188 714 188 801 l 188 314 q 213 120 188 164 q 294 77 239 77 q 368 139 350 77 q 385 314 385 201 l 385 714 m 87 690 q 120 933 87 867 q 210 1019 153 1000 q 286 1029 244 1029 q 479 843 458 1029 q 486 690 486 779 l 486 349 q 481 194 486 229 q 471 133 476 159 q 283 -12 444 -12 q 178 15 217 -12 q 92 204 103 66 q 87 349 87 265 l 87 690 m 151 1146 l 223 1411 l 334 1358 l 197 1126 l 151 1146 m 321 1146 l 432 1411 l 545 1351 l 367 1119 l 321 1146 z "},"Œ":{"ha":792,"x_min":91,"x_max":734,"o":"m 411 85 l 411 1108 l 307 1108 q 216 1057 240 1108 q 192 869 192 1005 l 192 351 q 221 120 192 154 q 302 85 250 85 l 411 85 m 307 1194 l 734 1194 l 734 1115 l 512 1115 l 512 648 l 721 648 l 721 567 l 512 567 l 512 80 l 732 80 l 732 0 l 302 0 q 153 52 203 0 q 91 352 91 116 l 91 861 q 108 1052 91 994 q 148 1137 125 1111 q 307 1194 199 1194 z "},"œ":{"ha":852,"x_min":87,"x_max":771,"o":"m 670 593 l 670 772 q 663 879 670 862 q 652 907 656 895 q 631 929 647 918 q 588 941 615 941 q 497 859 514 941 q 486 721 486 806 l 486 593 l 670 593 m 385 714 q 360 897 385 853 q 290 941 336 941 q 215 903 243 941 q 188 714 188 864 l 188 314 q 213 121 188 165 q 288 77 237 77 q 382 234 374 77 q 385 314 384 267 l 385 714 m 436 947 q 583 1029 488 1029 q 715 981 678 1029 q 747 929 735 955 q 771 690 771 879 q 771 680 771 685 l 771 511 l 486 511 l 486 305 q 509 112 486 147 q 578 77 533 77 q 643 105 624 77 q 665 177 661 134 q 669 298 669 221 l 669 377 l 768 377 l 768 342 q 758 136 768 193 q 673 5 740 36 q 583 -12 637 -12 q 431 72 482 -12 q 288 -12 381 -12 q 130 64 173 -12 q 94 184 102 115 q 87 349 87 252 l 87 690 q 120 934 87 868 q 210 1019 153 1000 q 288 1029 244 1029 q 436 947 387 1029 z "},"Ŕ":{"ha":612,"x_min":109,"x_max":538,"o":"m 422 905 q 414 1038 422 996 q 386 1095 406 1080 q 322 1109 366 1109 l 209 1109 l 209 656 l 315 656 q 385 674 366 656 q 413 733 404 692 q 422 897 422 774 l 422 905 m 109 1194 l 311 1194 q 475 1142 434 1194 q 515 1047 507 1103 q 524 885 524 991 q 499 711 524 779 q 414 627 474 644 q 454 613 437 623 q 483 577 470 602 q 523 193 523 499 q 525 47 523 66 q 538 0 528 28 l 437 0 q 425 77 427 20 q 422 258 422 134 l 422 389 q 407 548 422 514 q 317 582 392 582 l 210 589 l 210 0 l 109 0 l 109 1194 m 193 1331 l 463 1438 l 463 1341 l 193 1284 l 193 1331 z "},"ŕ":{"ha":418,"x_min":109,"x_max":386,"o":"m 383 1029 q 386 1008 386 1029 q 385 964 386 986 l 385 943 q 291 922 332 943 q 210 845 250 901 l 210 0 l 109 0 l 109 1017 l 210 1017 l 210 904 q 272 997 228 964 q 383 1029 317 1029 m 109 1155 l 378 1262 l 378 1164 l 109 1108 l 109 1155 z "},"Ŗ":{"ha":612,"x_min":109,"x_max":538,"o":"m 254 -100 l 387 -100 l 387 -224 l 334 -415 l 292 -415 l 321 -230 l 254 -230 l 254 -100 m 422 905 q 414 1038 422 996 q 386 1095 406 1080 q 322 1109 366 1109 l 209 1109 l 209 656 l 315 656 q 385 674 366 656 q 413 733 404 692 q 422 897 422 774 l 422 905 m 109 1194 l 311 1194 q 475 1142 434 1194 q 515 1047 507 1103 q 524 885 524 991 q 499 711 524 779 q 414 627 474 644 q 454 613 437 623 q 483 577 470 602 q 523 193 523 499 q 525 47 523 66 q 538 0 528 28 l 437 0 q 425 77 427 20 q 422 258 422 134 l 422 389 q 407 548 422 514 q 317 582 392 582 l 210 589 l 210 0 l 109 0 l 109 1194 z "},"ŗ":{"ha":418,"x_min":109,"x_max":386,"o":"m 115 -100 l 248 -100 l 248 -224 l 195 -415 l 153 -415 l 182 -230 l 115 -230 l 115 -100 m 383 1029 q 386 1008 386 1029 q 385 964 386 986 l 385 943 q 291 922 332 943 q 210 845 250 901 l 210 0 l 109 0 l 109 1017 l 210 1017 l 210 904 q 272 997 228 964 q 383 1029 317 1029 z "},"Ř":{"ha":612,"x_min":109,"x_max":538,"o":"m 422 905 q 414 1038 422 996 q 386 1095 406 1080 q 322 1109 366 1109 l 209 1109 l 209 656 l 315 656 q 385 674 366 656 q 413 733 404 692 q 422 897 422 774 l 422 905 m 109 1194 l 311 1194 q 475 1142 434 1194 q 515 1047 507 1103 q 524 885 524 991 q 499 711 524 779 q 414 627 474 644 q 454 613 437 623 q 483 577 470 602 q 523 193 523 499 q 525 47 523 66 q 538 0 528 28 l 437 0 q 425 77 427 20 q 422 258 422 134 l 422 389 q 407 548 422 514 q 317 582 392 582 l 210 589 l 210 0 l 109 0 l 109 1194 m 369 1417 l 448 1417 l 367 1246 l 254 1246 l 172 1417 l 252 1417 l 311 1299 l 369 1417 z "},"ř":{"ha":418,"x_min":88,"x_max":386,"o":"m 383 1029 q 386 1008 386 1029 q 385 964 386 986 l 385 943 q 291 922 332 943 q 210 845 250 901 l 210 0 l 109 0 l 109 1017 l 210 1017 l 210 904 q 272 997 228 964 q 383 1029 317 1029 m 285 1241 l 364 1241 l 283 1069 l 170 1069 l 88 1241 l 168 1241 l 227 1122 l 285 1241 z "},"Ś":{"ha":539,"x_min":62,"x_max":491,"o":"m 66 1010 q 124 1158 77 1107 q 271 1208 171 1208 q 411 1158 372 1208 q 445 1104 433 1131 q 471 842 471 1049 l 471 775 l 368 775 l 368 850 q 357 1040 368 1007 q 336 1090 347 1074 q 266 1122 317 1122 q 163 930 163 1122 q 176 839 163 863 q 195 801 189 814 q 281 707 201 787 l 347 642 q 491 301 491 493 q 436 47 491 109 q 272 -14 380 -14 q 80 188 105 -14 q 71 355 71 256 l 71 479 l 174 479 l 174 357 q 196 134 174 195 q 283 73 217 73 q 367 113 349 73 q 386 209 385 153 q 388 330 388 265 q 283 565 388 463 l 214 631 q 92 780 123 720 q 62 904 62 841 q 66 1010 62 966 m 171 1331 l 441 1438 l 441 1341 l 171 1284 l 171 1331 z "},"ś":{"ha":554,"x_min":81,"x_max":481,"o":"m 81 800 q 135 971 81 913 q 284 1029 189 1029 q 423 954 379 1029 q 467 703 467 879 l 467 649 l 362 649 l 362 722 q 343 883 362 829 q 278 937 325 937 q 208 906 232 937 q 184 799 184 875 q 184 795 184 797 q 294 569 184 676 l 347 518 q 481 220 481 383 q 435 49 481 112 q 288 -14 388 -14 q 137 56 187 -14 q 87 276 87 125 l 87 363 l 191 363 l 191 294 q 285 79 191 79 q 356 111 335 79 q 377 227 377 144 q 271 457 377 349 l 218 511 q 81 800 81 650 m 172 1155 l 441 1262 l 441 1164 l 172 1108 l 172 1155 z "},"Ŝ":{"ha":539,"x_min":62,"x_max":491,"o":"m 66 1010 q 124 1158 77 1107 q 271 1208 171 1208 q 411 1158 372 1208 q 445 1104 433 1131 q 471 842 471 1049 l 471 775 l 368 775 l 368 850 q 357 1040 368 1007 q 336 1090 347 1074 q 266 1122 317 1122 q 163 930 163 1122 q 176 839 163 863 q 195 801 189 814 q 281 707 201 787 l 347 642 q 491 301 491 493 q 436 47 491 109 q 272 -14 380 -14 q 80 188 105 -14 q 71 355 71 256 l 71 479 l 174 479 l 174 357 q 196 134 174 195 q 283 73 217 73 q 367 113 349 73 q 386 209 385 153 q 388 330 388 265 q 283 565 388 463 l 214 631 q 92 780 123 720 q 62 904 62 841 q 66 1010 62 966 m 232 1418 l 345 1418 l 426 1246 l 347 1246 l 288 1364 l 230 1246 l 150 1246 l 232 1418 z "},"ŝ":{"ha":554,"x_min":81,"x_max":481,"o":"m 81 800 q 135 971 81 913 q 284 1029 189 1029 q 423 954 379 1029 q 467 703 467 879 l 467 649 l 362 649 l 362 722 q 343 883 362 829 q 278 937 325 937 q 208 906 232 937 q 184 799 184 875 q 184 795 184 797 q 294 569 184 676 l 347 518 q 481 220 481 383 q 435 49 481 112 q 288 -14 388 -14 q 137 56 187 -14 q 87 276 87 125 l 87 363 l 191 363 l 191 294 q 285 79 191 79 q 356 111 335 79 q 377 227 377 144 q 271 457 377 349 l 218 511 q 81 800 81 650 m 233 1242 l 345 1242 l 427 1069 l 347 1069 l 289 1188 l 231 1069 l 151 1069 l 233 1242 z "},"Ş":{"ha":539,"x_min":62,"x_max":491,"o":"m 180 -340 q 336 -244 336 -340 q 305 -172 336 -201 q 228 -133 273 -143 l 255 0 l 294 0 l 300 -100 q 421 -264 421 -161 q 369 -360 421 -315 q 239 -404 317 -404 q 180 -398 212 -404 l 180 -340 m 66 1010 q 124 1158 77 1107 q 271 1208 171 1208 q 411 1158 372 1208 q 445 1104 433 1131 q 471 842 471 1049 l 471 775 l 368 775 l 368 850 q 357 1040 368 1007 q 336 1090 347 1074 q 266 1122 317 1122 q 163 930 163 1122 q 176 839 163 863 q 195 801 189 814 q 281 707 201 787 l 347 642 q 491 301 491 493 q 436 47 491 109 q 272 -14 380 -14 q 80 188 105 -14 q 71 355 71 256 l 71 479 l 174 479 l 174 357 q 196 134 174 195 q 283 73 217 73 q 367 113 349 73 q 386 209 385 153 q 388 330 388 265 q 283 565 388 463 l 214 631 q 92 780 123 720 q 62 904 62 841 q 66 1010 62 966 z "},"ş":{"ha":554,"x_min":81,"x_max":481,"o":"m 186 -340 q 343 -244 343 -340 q 312 -172 343 -201 q 235 -133 280 -143 l 262 0 l 300 0 l 307 -100 q 428 -264 428 -161 q 376 -360 428 -315 q 245 -404 323 -404 q 186 -398 218 -404 l 186 -340 m 81 800 q 135 971 81 913 q 284 1029 189 1029 q 423 954 379 1029 q 467 703 467 879 l 467 649 l 362 649 l 362 722 q 343 883 362 829 q 278 937 325 937 q 208 906 232 937 q 184 799 184 875 q 184 795 184 797 q 294 569 184 676 l 347 518 q 481 220 481 383 q 435 49 481 112 q 288 -14 388 -14 q 137 56 187 -14 q 87 276 87 125 l 87 363 l 191 363 l 191 294 q 285 79 191 79 q 356 111 335 79 q 377 227 377 144 q 271 457 377 349 l 218 511 q 81 800 81 650 z "},"Š":{"ha":539,"x_min":62,"x_max":491,"o":"m 66 1010 q 124 1158 77 1107 q 271 1208 171 1208 q 411 1158 372 1208 q 445 1104 433 1131 q 471 842 471 1049 l 471 775 l 368 775 l 368 850 q 357 1040 368 1007 q 336 1090 347 1074 q 266 1122 317 1122 q 163 930 163 1122 q 176 839 163 863 q 195 801 189 814 q 281 707 201 787 l 347 642 q 491 301 491 493 q 436 47 491 109 q 272 -14 380 -14 q 80 188 105 -14 q 71 355 71 256 l 71 479 l 174 479 l 174 357 q 196 134 174 195 q 283 73 217 73 q 367 113 349 73 q 386 209 385 153 q 388 330 388 265 q 283 565 388 463 l 214 631 q 92 780 123 720 q 62 904 62 841 q 66 1010 62 966 m 347 1417 l 426 1417 l 345 1246 l 232 1246 l 150 1417 l 230 1417 l 288 1299 l 347 1417 z "},"š":{"ha":554,"x_min":81,"x_max":481,"o":"m 81 800 q 135 971 81 913 q 284 1029 189 1029 q 423 954 379 1029 q 467 703 467 879 l 467 649 l 362 649 l 362 722 q 343 883 362 829 q 278 937 325 937 q 208 906 232 937 q 184 799 184 875 q 184 795 184 797 q 294 569 184 676 l 347 518 q 481 220 481 383 q 435 49 481 112 q 288 -14 388 -14 q 137 56 187 -14 q 87 276 87 125 l 87 363 l 191 363 l 191 294 q 285 79 191 79 q 356 111 335 79 q 377 227 377 144 q 271 457 377 349 l 218 511 q 81 800 81 650 m 347 1241 l 427 1241 l 345 1069 l 233 1069 l 151 1241 l 231 1241 l 289 1122 l 347 1241 z "},"Ť":{"ha":391,"x_min":27,"x_max":364,"o":"m 27 1194 l 364 1194 l 364 1115 l 252 1115 l 252 0 l 152 0 l 152 1115 l 27 1115 l 27 1194 m 251 1417 l 330 1417 l 249 1246 l 136 1246 l 54 1417 l 134 1417 l 193 1299 l 251 1417 z "},"ť":{"ha":395,"x_min":31,"x_max":597,"o":"m 132 1194 l 234 1194 l 234 1021 l 354 1021 l 354 943 l 234 943 l 234 142 q 241 100 234 111 q 269 84 249 88 q 353 80 290 80 l 353 -6 l 283 -6 q 159 28 186 -6 q 137 74 142 47 q 132 147 132 101 l 132 943 l 31 943 l 31 1021 l 132 1021 l 132 1194 m 413 1193 l 597 1193 l 597 1062 l 519 773 l 448 773 l 509 1056 l 413 1056 l 413 1193 z "},"Ũ":{"ha":618,"x_min":99,"x_max":519,"o":"m 111 1320 q 158 1398 130 1385 q 221 1411 187 1411 q 317 1386 254 1411 q 394 1361 380 1361 l 397 1361 q 417 1372 408 1363 q 435 1409 425 1381 l 506 1390 l 500 1373 q 460 1293 480 1311 q 407 1274 440 1274 q 313 1302 374 1274 q 232 1330 252 1330 q 202 1327 213 1330 q 174 1289 191 1324 l 111 1320 m 418 1194 l 519 1194 l 519 307 q 476 62 519 138 q 310 -14 433 -14 q 143 62 186 -14 q 99 307 99 139 l 99 1194 l 200 1194 l 200 310 q 211 144 200 186 q 306 69 231 69 q 392 104 367 69 q 418 309 418 139 l 418 1194 z "},"ũ":{"ha":627,"x_min":102,"x_max":525,"o":"m 130 1143 q 177 1221 149 1208 q 240 1234 206 1234 q 336 1209 273 1234 q 413 1184 399 1184 l 416 1184 q 436 1195 427 1186 q 454 1232 444 1204 l 525 1213 l 519 1196 q 479 1116 499 1134 q 426 1097 459 1097 q 332 1125 393 1097 q 251 1153 271 1153 q 221 1150 232 1153 q 193 1112 210 1147 l 130 1143 m 203 198 q 307 81 203 81 q 387 114 357 81 q 417 205 417 148 l 416 1017 l 518 1017 l 518 0 l 417 0 l 417 102 q 362 21 404 56 q 264 -14 319 -14 q 155 32 208 -14 q 102 193 102 78 l 102 1017 l 203 1017 l 203 198 z "},"Ū":{"ha":618,"x_min":99,"x_max":519,"o":"m 134 1325 l 469 1325 l 469 1249 l 134 1249 l 134 1325 m 418 1194 l 519 1194 l 519 307 q 476 62 519 138 q 310 -14 433 -14 q 143 62 186 -14 q 99 307 99 139 l 99 1194 l 200 1194 l 200 310 q 211 144 200 186 q 306 69 231 69 q 392 104 367 69 q 418 309 418 139 l 418 1194 z "},"ū":{"ha":627,"x_min":102,"x_max":518,"o":"m 153 1148 l 488 1148 l 488 1072 l 153 1072 l 153 1148 m 203 198 q 307 81 203 81 q 387 114 357 81 q 417 205 417 148 l 416 1017 l 518 1017 l 518 0 l 417 0 l 417 102 q 362 21 404 56 q 264 -14 319 -14 q 155 32 208 -14 q 102 193 102 78 l 102 1017 l 203 1017 l 203 198 z "},"Ŭ":{"ha":618,"x_min":99,"x_max":519,"o":"m 393 1413 l 436 1413 l 436 1404 q 403 1310 436 1345 q 307 1275 370 1275 q 211 1309 244 1275 q 178 1403 178 1343 l 178 1413 l 221 1413 q 307 1337 222 1337 q 393 1413 393 1337 m 418 1194 l 519 1194 l 519 307 q 476 62 519 138 q 310 -14 433 -14 q 143 62 186 -14 q 99 307 99 139 l 99 1194 l 200 1194 l 200 310 q 211 144 200 186 q 306 69 231 69 q 392 104 367 69 q 418 309 418 139 l 418 1194 z "},"ŭ":{"ha":627,"x_min":102,"x_max":518,"o":"m 412 1236 l 455 1236 l 455 1227 q 422 1133 455 1168 q 326 1098 389 1098 q 230 1132 263 1098 q 197 1226 197 1166 l 197 1236 l 240 1236 q 326 1160 241 1160 q 412 1236 412 1160 m 203 198 q 307 81 203 81 q 387 114 357 81 q 417 205 417 148 l 416 1017 l 518 1017 l 518 0 l 417 0 l 417 102 q 362 21 404 56 q 264 -14 319 -14 q 155 32 208 -14 q 102 193 102 78 l 102 1017 l 203 1017 l 203 198 z "},"Ů":{"ha":618,"x_min":99,"x_max":519,"o":"m 418 1194 l 519 1194 l 519 307 q 476 62 519 138 q 310 -14 433 -14 q 143 62 186 -14 q 99 307 99 139 l 99 1194 l 200 1194 l 200 310 q 211 144 200 186 q 306 69 231 69 q 392 104 367 69 q 418 309 418 139 l 418 1194 m 365 1296 q 374 1306 365 1296 q 383 1345 383 1316 q 365 1394 383 1373 q 316 1414 347 1414 q 267 1393 285 1414 q 250 1345 250 1373 q 267 1296 250 1317 q 316 1276 285 1276 q 365 1296 347 1276 m 316 1241 q 288 1241 316 1241 q 231 1272 261 1241 q 201 1344 201 1303 q 231 1417 201 1385 q 316 1448 261 1448 q 400 1417 370 1448 q 430 1344 430 1385 q 400 1272 430 1303 q 316 1241 370 1241 z "},"ů":{"ha":627,"x_min":102,"x_max":518,"o":"m 203 198 q 307 81 203 81 q 387 114 357 81 q 417 205 417 148 l 416 1017 l 518 1017 l 518 0 l 417 0 l 417 102 q 362 21 404 56 q 264 -14 319 -14 q 155 32 208 -14 q 102 193 102 78 l 102 1017 l 203 1017 l 203 198 m 377 1119 q 386 1129 377 1119 q 395 1168 395 1139 q 377 1217 395 1196 q 328 1237 359 1237 q 279 1216 296 1237 q 261 1168 261 1196 q 279 1119 261 1140 q 328 1099 296 1099 q 377 1119 359 1099 m 327 1064 q 300 1064 327 1064 q 242 1095 273 1064 q 212 1167 212 1126 q 242 1240 212 1208 q 327 1271 273 1271 q 412 1240 382 1271 q 441 1167 441 1208 q 412 1095 441 1126 q 327 1064 382 1064 z "},"Ű":{"ha":618,"x_min":99,"x_max":562,"o":"m 167 1323 l 239 1588 l 351 1535 l 214 1303 l 167 1323 m 337 1323 l 448 1588 l 562 1528 l 383 1296 l 337 1323 m 418 1194 l 519 1194 l 519 307 q 476 62 519 138 q 310 -14 433 -14 q 143 62 186 -14 q 99 307 99 139 l 99 1194 l 200 1194 l 200 310 q 211 144 200 186 q 306 69 231 69 q 392 104 367 69 q 418 309 418 139 l 418 1194 z "},"ű":{"ha":627,"x_min":102,"x_max":581,"o":"m 186 1146 l 258 1411 l 370 1358 l 233 1126 l 186 1146 m 356 1146 l 467 1411 l 581 1351 l 402 1119 l 356 1146 m 203 198 q 307 81 203 81 q 387 114 357 81 q 417 205 417 148 l 416 1017 l 518 1017 l 518 0 l 417 0 l 417 102 q 362 21 404 56 q 264 -14 319 -14 q 155 32 208 -14 q 102 193 102 78 l 102 1017 l 203 1017 l 203 198 z "},"Ų":{"ha":618,"x_min":99,"x_max":519,"o":"m 418 1194 l 519 1194 l 519 307 q 476 62 519 138 q 310 -14 433 -14 q 143 62 186 -14 q 99 307 99 139 l 99 1194 l 200 1194 l 200 310 q 211 144 200 186 q 306 69 231 69 q 392 104 367 69 q 418 309 418 139 l 418 1194 m 410 -272 q 323 -286 380 -286 q 192 -187 192 -286 q 222 -89 192 -140 q 311 7 252 -38 l 355 7 q 280 -81 305 -35 q 256 -164 256 -127 q 329 -223 256 -223 q 387 -216 364 -223 q 410 -209 409 -210 l 410 -272 z "},"ų":{"ha":627,"x_min":102,"x_max":547,"o":"m 203 198 q 307 81 203 81 q 387 114 357 81 q 417 205 417 148 l 416 1017 l 518 1017 l 518 0 l 417 0 l 417 102 q 362 21 404 56 q 264 -14 319 -14 q 155 32 208 -14 q 102 193 102 78 l 102 1017 l 203 1017 l 203 198 m 547 -272 q 460 -286 517 -286 q 329 -187 329 -286 q 359 -89 329 -140 q 448 7 389 -38 l 492 7 q 417 -81 442 -35 q 393 -164 393 -127 q 466 -223 393 -223 q 524 -216 501 -223 q 547 -209 546 -210 l 547 -272 z "},"Ŵ":{"ha":907,"x_min":47,"x_max":860,"o":"m 764 1194 l 860 1194 l 715 0 l 616 0 l 468 982 l 309 0 l 216 0 l 47 1194 l 146 1194 l 271 218 l 420 1194 l 505 1194 l 664 218 l 764 1194 m 413 1418 l 526 1418 l 607 1246 l 528 1246 l 469 1364 l 411 1246 l 331 1246 l 413 1418 z "},"ŵ":{"ha":729,"x_min":39,"x_max":690,"o":"m 600 1017 l 690 1017 l 572 0 l 471 0 l 372 870 l 254 0 l 158 0 l 39 1017 l 132 1017 l 193 416 l 209 205 l 217 205 l 237 416 l 323 1017 l 409 1017 l 502 438 l 529 205 l 536 205 l 549 439 l 600 1017 m 315 1242 l 427 1242 l 509 1069 l 429 1069 l 371 1188 l 313 1069 l 233 1069 l 315 1242 z "},"Ŷ":{"ha":544,"x_min":16,"x_max":528,"o":"m 221 1418 l 334 1418 l 415 1246 l 336 1246 l 277 1364 l 219 1246 l 139 1246 l 221 1418 m 423 1194 l 528 1194 l 333 524 l 333 0 l 232 0 l 232 524 l 16 1194 l 118 1194 l 281 666 l 283 666 l 423 1194 z "},"ŷ":{"ha":497,"x_min":41,"x_max":468,"o":"m 199 1242 l 312 1242 l 393 1069 l 314 1069 l 256 1188 l 197 1069 l 117 1069 l 199 1242 m 367 1017 l 468 1017 l 306 2 q 270 -127 290 -102 q 224 -157 250 -153 q 172 -161 199 -161 l 88 -161 l 88 -75 l 125 -75 q 209 -67 198 -75 q 218 -40 218 -58 q 216 -10 218 -22 q 211 26 214 2 l 41 1017 l 143 1017 l 224 479 l 256 203 l 265 203 l 294 479 l 367 1017 z "},"Ÿ":{"ha":544,"x_min":16,"x_max":528,"o":"m 52 1360 l 175 1360 l 175 1270 l 52 1270 l 52 1360 m 343 1360 l 467 1360 l 467 1270 l 343 1270 l 343 1360 m 423 1194 l 528 1194 l 333 524 l 333 0 l 232 0 l 232 524 l 16 1194 l 118 1194 l 281 666 l 283 666 l 423 1194 z "},"Ź":{"ha":469,"x_min":76,"x_max":431,"o":"m 82 1194 l 409 1194 l 409 1124 l 178 80 l 405 80 l 405 0 l 76 0 l 76 85 l 306 1115 l 82 1115 l 82 1194 m 161 1331 l 431 1438 l 431 1341 l 161 1284 l 161 1331 z "},"ź":{"ha":431,"x_min":56,"x_max":399,"o":"m 73 1017 l 387 1017 l 387 954 l 160 88 l 373 88 l 373 0 l 56 0 l 56 73 l 279 930 l 73 930 l 73 1017 m 130 1155 l 399 1262 l 399 1164 l 130 1108 l 130 1155 z "},"Ż":{"ha":469,"x_min":76,"x_max":409,"o":"m 217 1348 l 325 1348 l 325 1258 l 217 1258 l 217 1348 m 82 1194 l 409 1194 l 409 1124 l 178 80 l 405 80 l 405 0 l 76 0 l 76 85 l 306 1115 l 82 1115 l 82 1194 z "},"ż":{"ha":431,"x_min":56,"x_max":387,"o":"m 198 1172 l 306 1172 l 306 1082 l 198 1082 l 198 1172 m 73 1017 l 387 1017 l 387 954 l 160 88 l 373 88 l 373 0 l 56 0 l 56 73 l 279 930 l 73 930 l 73 1017 z "},"Ž":{"ha":469,"x_min":76,"x_max":417,"o":"m 82 1194 l 409 1194 l 409 1124 l 178 80 l 405 80 l 405 0 l 76 0 l 76 85 l 306 1115 l 82 1115 l 82 1194 m 338 1417 l 417 1417 l 336 1246 l 223 1246 l 141 1417 l 221 1417 l 279 1299 l 338 1417 z "},"ž":{"ha":431,"x_min":56,"x_max":387,"o":"m 73 1017 l 387 1017 l 387 954 l 160 88 l 373 88 l 373 0 l 56 0 l 56 73 l 279 930 l 73 930 l 73 1017 m 305 1241 l 385 1241 l 303 1069 l 191 1069 l 109 1241 l 189 1241 l 247 1122 l 305 1241 z "},"ƒ":{"ha":520,"x_min":73,"x_max":452,"o":"m 214 1044 q 336 1212 214 1212 q 442 1188 378 1212 l 442 1105 q 361 1122 390 1122 q 320 1101 333 1122 q 307 1031 307 1080 l 307 849 l 452 849 l 452 777 l 307 777 l 307 150 q 171 -8 307 -8 q 78 5 132 -8 l 78 88 q 115 87 105 87 q 197 109 179 87 q 214 207 214 132 l 214 777 l 73 777 l 73 849 l 214 849 l 214 1044 z "},"Ǆ":{"ha":1081,"x_min":108,"x_max":1029,"o":"m 694 1194 l 1021 1194 l 1021 1124 l 790 80 l 1017 80 l 1017 0 l 688 0 l 688 85 l 918 1115 l 694 1115 l 694 1194 m 950 1417 l 1029 1417 l 948 1246 l 836 1246 l 753 1417 l 833 1417 l 892 1299 l 950 1417 m 421 864 q 391 1052 421 994 q 298 1109 361 1109 l 208 1109 l 208 87 l 292 87 q 401 163 376 87 q 422 352 422 227 l 421 864 m 108 1194 l 292 1194 q 496 1062 452 1194 q 522 853 522 985 l 523 342 q 470 78 523 155 q 288 0 417 0 l 108 0 l 108 1194 z "},"ǅ":{"ha":1043,"x_min":108,"x_max":999,"o":"m 685 1017 l 999 1017 l 999 954 l 772 88 l 985 88 l 985 0 l 668 0 l 668 73 l 891 930 l 685 930 l 685 1017 m 918 1241 l 997 1241 l 916 1069 l 803 1069 l 721 1241 l 801 1241 l 859 1122 l 918 1241 m 421 864 q 391 1052 421 994 q 298 1109 361 1109 l 208 1109 l 208 87 l 292 87 q 401 163 376 87 q 422 352 422 227 l 421 864 m 108 1194 l 292 1194 q 496 1062 452 1194 q 522 853 522 985 l 523 342 q 470 78 523 155 q 288 0 417 0 l 108 0 l 108 1194 z "},"ǆ":{"ha":1021,"x_min":88,"x_max":977,"o":"m 663 1017 l 977 1017 l 977 954 l 750 88 l 963 88 l 963 0 l 646 0 l 646 73 l 869 930 l 663 930 l 663 1017 m 895 1241 l 975 1241 l 893 1069 l 781 1069 l 699 1241 l 779 1241 l 837 1122 l 895 1241 m 385 703 q 365 887 385 834 q 287 939 345 939 q 210 885 229 939 q 190 699 190 831 l 190 296 q 212 117 190 156 q 277 77 234 77 q 339 93 321 77 q 371 147 358 109 q 385 294 385 184 l 385 703 m 384 1209 l 486 1209 l 486 0 l 384 0 l 384 77 q 249 -7 349 -7 q 105 127 136 -7 q 88 326 88 201 l 88 684 q 137 959 88 888 q 276 1029 186 1029 q 340 1005 311 1029 q 384 945 370 980 l 384 1209 z "},"Ǉ":{"ha":975,"x_min":109,"x_max":871,"o":"m 770 1194 l 871 1194 l 871 285 q 829 57 871 129 q 684 -14 787 -14 q 539 52 582 -14 q 497 264 497 118 l 497 366 l 600 366 l 600 224 q 619 104 600 130 q 654 74 639 78 q 688 70 669 70 q 767 164 760 70 q 770 237 770 202 l 770 1194 m 109 1194 l 210 1194 l 210 80 l 421 80 l 421 0 l 109 0 l 109 1194 z "},"ǈ":{"ha":775,"x_min":109,"x_max":667,"o":"m 566 1208 l 667 1208 l 667 1111 l 566 1111 l 566 1208 m 631 -125 q 601 -145 616 -138 q 550 -152 585 -152 q 494 -148 515 -152 l 492 -148 l 492 -75 q 517 -77 505 -77 q 541 -75 530 -77 q 565 -30 565 -71 l 565 1017 l 666 1017 l 666 -23 q 631 -125 665 -98 m 109 1194 l 210 1194 l 210 80 l 421 80 l 421 0 l 109 0 l 109 1194 z "},"ǉ":{"ha":661,"x_min":109,"x_max":552,"o":"m 451 1208 l 552 1208 l 552 1111 l 451 1111 l 451 1208 m 517 -125 q 486 -145 502 -138 q 435 -152 471 -152 q 380 -148 400 -152 l 377 -148 l 377 -75 q 403 -77 391 -77 q 426 -75 415 -77 q 450 -30 450 -71 l 450 1017 l 551 1017 l 551 -23 q 517 -125 551 -98 m 109 1209 l 210 1209 l 210 0 l 109 0 l 109 1209 z "},"Ǌ":{"ha":1200,"x_min":109,"x_max":1097,"o":"m 996 1194 l 1097 1194 l 1097 285 q 1054 57 1097 129 q 909 -14 1012 -14 q 765 52 807 -14 q 722 264 722 118 l 722 366 l 825 366 l 825 224 q 844 104 825 130 q 879 74 864 78 q 913 70 895 70 q 992 164 985 70 q 996 237 996 202 l 996 1194 m 462 1194 l 550 1194 l 550 0 l 471 0 l 197 899 l 203 576 l 203 0 l 109 0 l 109 1194 l 179 1194 l 472 271 l 462 682 l 462 1194 z "},"ǋ":{"ha":1000,"x_min":109,"x_max":892,"o":"m 791 1208 l 892 1208 l 892 1111 l 791 1111 l 791 1208 m 857 -125 q 826 -145 842 -138 q 775 -152 810 -152 q 720 -148 740 -152 l 717 -148 l 717 -75 q 743 -77 730 -77 q 766 -75 755 -77 q 790 -30 790 -71 l 790 1017 l 891 1017 l 891 -23 q 857 -125 890 -98 m 462 1194 l 550 1194 l 550 0 l 471 0 l 197 899 l 203 576 l 203 0 l 109 0 l 109 1194 l 179 1194 l 472 271 l 462 682 l 462 1194 z "},"ǌ":{"ha":967,"x_min":109,"x_max":859,"o":"m 758 1208 l 859 1208 l 859 1111 l 758 1111 l 758 1208 m 823 -125 q 793 -145 808 -138 q 742 -152 777 -152 q 686 -148 707 -152 l 684 -148 l 684 -75 q 709 -77 697 -77 q 732 -75 722 -77 q 757 -30 757 -71 l 757 1017 l 858 1017 l 858 -23 q 823 -125 857 -98 m 210 918 q 270 997 223 963 q 379 1030 316 1030 q 483 978 442 1030 q 524 821 524 926 l 524 0 l 422 0 l 422 829 q 396 915 422 888 q 324 941 369 941 q 210 827 210 941 l 210 0 l 109 0 l 109 1017 l 210 1017 l 210 918 z "},"Ǳ":{"ha":1081,"x_min":108,"x_max":1021,"o":"m 694 1194 l 1021 1194 l 1021 1124 l 790 80 l 1017 80 l 1017 0 l 688 0 l 688 85 l 918 1115 l 694 1115 l 694 1194 m 421 864 q 391 1052 421 994 q 298 1109 361 1109 l 208 1109 l 208 87 l 292 87 q 401 163 376 87 q 422 352 422 227 l 421 864 m 108 1194 l 292 1194 q 496 1062 452 1194 q 522 853 522 985 l 523 342 q 470 78 523 155 q 288 0 417 0 l 108 0 l 108 1194 z "},"ǲ":{"ha":1043,"x_min":108,"x_max":999,"o":"m 685 1017 l 999 1017 l 999 954 l 772 88 l 985 88 l 985 0 l 668 0 l 668 73 l 891 930 l 685 930 l 685 1017 m 421 864 q 391 1052 421 994 q 298 1109 361 1109 l 208 1109 l 208 87 l 292 87 q 401 163 376 87 q 422 352 422 227 l 421 864 m 108 1194 l 292 1194 q 496 1062 452 1194 q 522 853 522 985 l 523 342 q 470 78 523 155 q 288 0 417 0 l 108 0 l 108 1194 z "},"ǳ":{"ha":1021,"x_min":88,"x_max":977,"o":"m 663 1017 l 977 1017 l 977 954 l 750 88 l 963 88 l 963 0 l 646 0 l 646 73 l 869 930 l 663 930 l 663 1017 m 385 703 q 365 887 385 834 q 287 939 345 939 q 210 885 229 939 q 190 699 190 831 l 190 296 q 212 117 190 156 q 277 77 234 77 q 339 93 321 77 q 371 147 358 109 q 385 294 385 184 l 385 703 m 384 1209 l 486 1209 l 486 0 l 384 0 l 384 77 q 249 -7 349 -7 q 105 127 136 -7 q 88 326 88 201 l 88 684 q 137 959 88 888 q 276 1029 186 1029 q 340 1005 311 1029 q 384 945 370 980 l 384 1209 z "},"Ǵ":{"ha":603,"x_min":91,"x_max":507,"o":"m 191 1331 l 461 1438 l 461 1341 l 191 1284 l 191 1331 m 91 844 q 127 1102 91 1029 q 302 1208 180 1208 q 421 1178 380 1208 q 475 1112 463 1147 q 502 984 498 1044 q 507 846 507 923 l 507 746 l 404 746 l 404 930 q 383 1079 404 1032 q 302 1126 363 1126 q 217 1065 241 1126 q 192 855 192 1004 l 192 368 q 214 134 192 199 q 299 69 235 69 q 385 135 363 69 q 406 367 406 201 l 406 517 l 304 517 l 304 604 l 507 604 l 507 0 l 440 0 l 429 69 q 370 7 404 27 q 283 -14 336 -14 q 137 74 182 -14 q 91 361 91 162 l 91 844 z "},"ǵ":{"ha":583,"x_min":85,"x_max":483,"o":"m 187 1155 l 457 1262 l 457 1164 l 187 1108 l 187 1155 m 382 712 q 358 903 382 865 q 284 941 334 941 q 214 904 235 941 q 190 813 193 867 q 186 713 186 759 l 186 414 q 209 228 186 283 q 294 173 232 173 q 345 191 327 174 q 382 416 382 229 l 382 712 m 85 687 q 129 933 85 838 q 264 1029 173 1029 q 382 958 355 1029 l 382 1017 l 483 1017 l 483 66 q 370 -138 483 -85 q 278 -159 326 -159 q 177 -143 230 -159 q 90 -100 125 -127 l 128 -22 q 277 -71 195 -71 q 356 -37 330 -71 q 382 54 382 -3 l 382 166 q 331 103 361 121 q 258 86 300 86 q 106 218 141 86 q 85 429 85 300 l 85 687 z "},"Ȁ":{"ha":583,"x_min":9,"x_max":545,"o":"m 214 1473 l 303 1539 l 406 1318 l 360 1286 l 214 1473 m 9 1473 l 100 1539 l 228 1318 l 182 1286 l 9 1473 m 230 1194 l 333 1194 l 545 0 l 448 0 l 408 242 l 170 242 l 134 0 l 38 0 l 230 1194 m 395 326 l 285 1001 l 283 1001 l 182 326 l 395 326 z "},"ȁ":{"ha":593,"x_min":35,"x_max":494,"o":"m 241 1297 l 330 1362 l 432 1142 l 387 1110 l 241 1297 m 35 1297 l 127 1362 l 254 1142 l 209 1110 l 35 1297 m 110 713 q 116 856 110 823 q 129 912 122 888 q 146 951 136 936 q 171 983 156 967 q 204 1009 185 1000 q 249 1024 223 1018 q 305 1029 274 1029 q 361 1024 336 1029 q 406 1012 387 1019 q 438 988 425 1005 q 462 958 452 970 q 494 707 494 913 l 494 0 l 393 0 l 393 76 q 350 21 385 49 q 260 -7 315 -7 q 139 60 180 -7 q 98 256 98 127 l 98 386 q 131 494 98 456 q 189 549 165 533 q 319 617 254 589 q 393 648 384 644 l 393 762 q 386 878 393 861 q 374 907 378 896 q 302 941 359 941 q 228 893 245 941 q 212 711 212 845 l 212 686 l 110 686 l 110 713 m 393 568 q 264 504 281 517 q 233 477 247 491 q 198 345 198 442 l 198 264 q 214 118 198 159 q 273 77 231 77 q 347 98 315 77 q 393 143 380 119 l 393 568 z "},"Ȃ":{"ha":583,"x_min":38,"x_max":545,"o":"m 150 1259 l 150 1272 q 182 1365 150 1329 q 277 1402 214 1402 q 374 1370 340 1402 q 409 1278 408 1337 l 409 1267 l 366 1265 q 278 1339 364 1339 q 193 1263 193 1339 q 193 1261 193 1262 l 150 1259 m 230 1194 l 333 1194 l 545 0 l 448 0 l 408 242 l 170 242 l 134 0 l 38 0 l 230 1194 m 395 326 l 285 1001 l 283 1001 l 182 326 l 395 326 z "},"ȃ":{"ha":593,"x_min":98,"x_max":494,"o":"m 176 1082 l 176 1096 q 208 1189 176 1152 q 303 1225 240 1225 q 400 1193 367 1225 q 435 1101 434 1161 l 435 1091 l 392 1089 q 304 1163 391 1163 q 220 1087 220 1163 q 220 1084 220 1086 l 176 1082 m 110 713 q 116 856 110 823 q 129 912 122 888 q 146 951 136 936 q 171 983 156 967 q 204 1009 185 1000 q 249 1024 223 1018 q 305 1029 274 1029 q 361 1024 336 1029 q 406 1012 387 1019 q 438 988 425 1005 q 462 958 452 970 q 494 707 494 913 l 494 0 l 393 0 l 393 76 q 350 21 385 49 q 260 -7 315 -7 q 139 60 180 -7 q 98 256 98 127 l 98 386 q 131 494 98 456 q 189 549 165 533 q 319 617 254 589 q 393 648 384 644 l 393 762 q 386 878 393 861 q 374 907 378 896 q 302 941 359 941 q 228 893 245 941 q 212 711 212 845 l 212 686 l 110 686 l 110 713 m 393 568 q 264 504 281 517 q 233 477 247 491 q 198 345 198 442 l 198 264 q 214 118 198 159 q 273 77 231 77 q 347 98 315 77 q 393 143 380 119 l 393 568 z "},"Ȅ":{"ha":481,"x_min":-3,"x_max":424,"o":"m 202 1473 l 291 1539 l 393 1318 l 348 1286 l 202 1473 m -3 1473 l 88 1539 l 216 1318 l 170 1286 l -3 1473 m 109 1194 l 424 1194 l 424 1115 l 210 1115 l 210 648 l 411 648 l 411 566 l 210 566 l 210 80 l 422 80 l 422 0 l 109 0 l 109 1194 z "},"ȅ":{"ha":554,"x_min":13,"x_max":473,"o":"m 218 1297 l 307 1362 l 410 1142 l 364 1110 l 218 1297 m 13 1297 l 104 1362 l 232 1142 l 186 1110 l 13 1297 m 372 595 l 372 731 q 363 881 372 846 q 289 941 349 941 q 194 836 209 941 q 188 731 188 793 q 188 719 188 725 l 188 595 l 372 595 m 87 688 q 119 932 87 865 q 210 1018 153 998 q 289 1029 244 1029 q 366 1019 333 1029 q 449 930 415 1002 q 473 680 473 879 l 473 510 l 188 510 l 188 305 q 211 112 188 148 q 280 77 235 77 q 345 105 326 77 q 368 179 363 134 q 372 301 372 224 l 372 377 l 471 377 l 471 344 q 460 138 471 193 q 293 -12 435 -12 q 129 64 170 -12 q 94 178 101 114 q 87 347 87 243 l 87 688 z "},"Ȇ":{"ha":481,"x_min":109,"x_max":424,"o":"m 109 1194 l 424 1194 l 424 1115 l 210 1115 l 210 648 l 411 648 l 411 566 l 210 566 l 210 80 l 422 80 l 422 0 l 109 0 l 109 1194 m 134 1259 l 134 1272 q 165 1365 134 1329 q 261 1402 197 1402 q 358 1370 324 1402 q 393 1278 391 1337 l 393 1267 l 349 1265 q 262 1339 348 1339 q 177 1263 177 1339 q 177 1261 177 1262 l 134 1259 z "},"ȇ":{"ha":554,"x_min":87,"x_max":473,"o":"m 154 1082 l 154 1096 q 186 1189 154 1152 q 281 1225 218 1225 q 378 1193 345 1225 q 413 1101 412 1161 l 413 1091 l 370 1089 q 282 1163 368 1163 q 197 1087 197 1163 q 197 1084 197 1086 l 154 1082 m 372 595 l 372 731 q 363 881 372 846 q 289 941 349 941 q 194 836 209 941 q 188 731 188 793 q 188 719 188 725 l 188 595 l 372 595 m 87 688 q 119 932 87 865 q 210 1018 153 998 q 289 1029 244 1029 q 366 1019 333 1029 q 449 930 415 1002 q 473 680 473 879 l 473 510 l 188 510 l 188 305 q 211 112 188 148 q 280 77 235 77 q 345 105 326 77 q 368 179 363 134 q 372 301 372 224 l 372 377 l 471 377 l 471 344 q 460 138 471 193 q 293 -12 435 -12 q 129 64 170 -12 q 94 178 101 114 q 87 347 87 243 l 87 688 z "},"Ȉ":{"ha":342,"x_min":-102,"x_max":294,"o":"m 103 1473 l 192 1539 l 294 1318 l 249 1286 l 103 1473 m -102 1473 l -11 1539 l 117 1318 l 71 1286 l -102 1473 m 121 1194 l 222 1194 l 222 0 l 121 0 l 121 1194 z "},"ȉ":{"ha":321,"x_min":-102,"x_max":295,"o":"m 104 1299 l 193 1364 l 295 1144 l 250 1112 l 104 1299 m -102 1299 l -10 1364 l 117 1144 l 72 1112 l -102 1299 m 110 1017 l 212 1017 l 212 0 l 110 0 l 110 1017 z "},"Ȋ":{"ha":342,"x_min":39,"x_max":298,"o":"m 39 1259 l 39 1272 q 71 1365 39 1329 q 166 1402 102 1402 q 263 1370 229 1402 q 298 1278 296 1337 l 298 1267 l 254 1265 q 167 1339 253 1339 q 82 1263 82 1339 q 82 1261 82 1262 l 39 1259 m 121 1194 l 222 1194 l 222 0 l 121 0 l 121 1194 z "},"ȋ":{"ha":321,"x_min":31,"x_max":290,"o":"m 31 1112 l 31 1126 q 63 1219 31 1182 q 158 1255 95 1255 q 255 1223 222 1255 q 290 1131 289 1191 l 290 1121 l 247 1119 q 159 1193 245 1193 q 75 1117 75 1193 q 75 1114 75 1116 l 31 1112 m 110 1017 l 212 1017 l 212 0 l 110 0 l 110 1017 z "},"Ȍ":{"ha":602,"x_min":28,"x_max":511,"o":"m 233 1472 l 322 1538 l 425 1318 l 379 1286 l 233 1472 m 28 1472 l 119 1538 l 247 1318 l 201 1286 l 28 1472 m 410 868 q 389 1068 410 1010 q 304 1126 368 1126 q 216 1066 241 1126 q 192 869 192 1007 l 192 352 q 209 141 192 187 q 247 82 226 95 q 301 69 267 69 q 355 82 335 69 q 393 141 376 95 q 410 352 410 186 l 410 868 m 91 860 q 145 1142 91 1076 q 312 1208 199 1208 q 467 1135 425 1208 q 503 1020 496 1086 q 511 860 511 954 l 511 352 q 492 133 511 197 q 450 43 473 70 q 302 -14 401 -14 q 116 115 153 -14 q 91 352 91 199 l 91 860 z "},"ȍ":{"ha":573,"x_min":14,"x_max":486,"o":"m 219 1297 l 308 1362 l 410 1142 l 365 1110 l 219 1297 m 14 1297 l 105 1362 l 233 1142 l 187 1110 l 14 1297 m 385 714 q 339 925 385 889 q 290 941 319 941 q 198 854 213 941 q 188 714 188 801 l 188 314 q 213 120 188 164 q 294 77 239 77 q 368 139 350 77 q 385 314 385 201 l 385 714 m 87 690 q 120 933 87 867 q 210 1019 153 1000 q 286 1029 244 1029 q 479 843 458 1029 q 486 690 486 779 l 486 349 q 481 194 486 229 q 471 133 476 159 q 283 -12 444 -12 q 178 15 217 -12 q 92 204 103 66 q 87 349 87 265 l 87 690 z "},"Ȏ":{"ha":602,"x_min":91,"x_max":511,"o":"m 410 868 q 389 1068 410 1010 q 304 1126 368 1126 q 216 1066 241 1126 q 192 869 192 1007 l 192 352 q 209 141 192 187 q 247 82 226 95 q 301 69 267 69 q 355 82 335 69 q 393 141 376 95 q 410 352 410 186 l 410 868 m 91 860 q 145 1142 91 1076 q 312 1208 199 1208 q 467 1135 425 1208 q 503 1020 496 1086 q 511 860 511 954 l 511 352 q 492 133 511 197 q 450 43 473 70 q 302 -14 401 -14 q 116 115 153 -14 q 91 352 91 199 l 91 860 m 167 1258 l 167 1272 q 199 1364 167 1328 q 294 1401 231 1401 q 391 1369 357 1401 q 426 1277 425 1337 l 426 1267 l 382 1265 q 295 1339 381 1339 q 210 1263 210 1339 q 210 1260 210 1261 l 167 1258 z "},"ȏ":{"ha":573,"x_min":87,"x_max":486,"o":"m 155 1082 l 155 1096 q 186 1189 155 1152 q 282 1225 218 1225 q 379 1193 345 1225 q 414 1101 412 1161 l 414 1091 l 370 1089 q 283 1163 369 1163 q 198 1087 198 1163 q 198 1084 198 1086 l 155 1082 m 385 714 q 339 925 385 889 q 290 941 319 941 q 198 854 213 941 q 188 714 188 801 l 188 314 q 213 120 188 164 q 294 77 239 77 q 368 139 350 77 q 385 314 385 201 l 385 714 m 87 690 q 120 933 87 867 q 210 1019 153 1000 q 286 1029 244 1029 q 479 843 458 1029 q 486 690 486 779 l 486 349 q 481 194 486 229 q 471 133 476 159 q 283 -12 444 -12 q 178 15 217 -12 q 92 204 103 66 q 87 349 87 265 l 87 690 z "},"Ȑ":{"ha":612,"x_min":40,"x_max":538,"o":"m 245 1473 l 334 1539 l 437 1318 l 391 1286 l 245 1473 m 40 1473 l 132 1539 l 259 1318 l 214 1286 l 40 1473 m 422 905 q 414 1038 422 996 q 386 1095 406 1080 q 322 1109 366 1109 l 209 1109 l 209 656 l 315 656 q 385 674 366 656 q 413 733 404 692 q 422 897 422 774 l 422 905 m 109 1194 l 311 1194 q 475 1142 434 1194 q 515 1047 507 1103 q 524 885 524 991 q 499 711 524 779 q 414 627 474 644 q 454 613 437 623 q 483 577 470 602 q 523 193 523 499 q 525 47 523 66 q 538 0 528 28 l 437 0 q 425 77 427 20 q 422 258 422 134 l 422 389 q 407 548 422 514 q 317 582 392 582 l 210 589 l 210 0 l 109 0 l 109 1194 z "},"ȑ":{"ha":418,"x_min":-47,"x_max":386,"o":"m 159 1297 l 248 1362 l 350 1142 l 304 1110 l 159 1297 m -47 1297 l 45 1362 l 172 1142 l 127 1110 l -47 1297 m 383 1029 q 386 1008 386 1029 q 385 964 386 986 l 385 943 q 291 922 332 943 q 210 845 250 901 l 210 0 l 109 0 l 109 1017 l 210 1017 l 210 904 q 272 997 228 964 q 383 1029 317 1029 z "},"Ȓ":{"ha":612,"x_min":109,"x_max":538,"o":"m 422 905 q 414 1038 422 996 q 386 1095 406 1080 q 322 1109 366 1109 l 209 1109 l 209 656 l 315 656 q 385 674 366 656 q 413 733 404 692 q 422 897 422 774 l 422 905 m 109 1194 l 311 1194 q 475 1142 434 1194 q 515 1047 507 1103 q 524 885 524 991 q 499 711 524 779 q 414 627 474 644 q 454 613 437 623 q 483 577 470 602 q 523 193 523 499 q 525 47 523 66 q 538 0 528 28 l 437 0 q 425 77 427 20 q 422 258 422 134 l 422 389 q 407 548 422 514 q 317 582 392 582 l 210 589 l 210 0 l 109 0 l 109 1194 m 178 1259 l 178 1272 q 210 1365 178 1329 q 306 1402 242 1402 q 402 1370 369 1402 q 437 1278 436 1337 l 437 1267 l 394 1265 q 307 1339 393 1339 q 222 1263 222 1339 q 222 1261 222 1262 l 178 1259 z "},"ȓ":{"ha":418,"x_min":109,"x_max":386,"o":"m 118 1112 l 118 1126 q 150 1219 118 1182 q 245 1255 182 1255 q 342 1223 309 1255 q 377 1131 376 1191 l 377 1121 l 334 1119 q 246 1193 332 1193 q 161 1117 161 1193 q 161 1114 161 1116 l 118 1112 m 383 1029 q 386 1008 386 1029 q 385 964 386 986 l 385 943 q 291 922 332 943 q 210 845 250 901 l 210 0 l 109 0 l 109 1017 l 210 1017 l 210 904 q 272 997 228 964 q 383 1029 317 1029 z "},"Ȕ":{"ha":618,"x_min":35,"x_max":519,"o":"m 241 1474 l 330 1539 l 432 1319 l 387 1287 l 241 1474 m 35 1474 l 127 1539 l 254 1319 l 209 1287 l 35 1474 m 418 1194 l 519 1194 l 519 307 q 476 62 519 138 q 310 -14 433 -14 q 143 62 186 -14 q 99 307 99 139 l 99 1194 l 200 1194 l 200 310 q 211 144 200 186 q 306 69 231 69 q 392 104 367 69 q 418 309 418 139 l 418 1194 z "},"ȕ":{"ha":627,"x_min":54,"x_max":518,"o":"m 260 1297 l 349 1362 l 451 1142 l 406 1110 l 260 1297 m 54 1297 l 146 1362 l 273 1142 l 228 1110 l 54 1297 m 203 198 q 307 81 203 81 q 387 114 357 81 q 417 205 417 148 l 416 1017 l 518 1017 l 518 0 l 417 0 l 417 102 q 362 21 404 56 q 264 -14 319 -14 q 155 32 208 -14 q 102 193 102 78 l 102 1017 l 203 1017 l 203 198 z "},"Ȗ":{"ha":618,"x_min":99,"x_max":519,"o":"m 418 1194 l 519 1194 l 519 307 q 476 62 519 138 q 310 -14 433 -14 q 143 62 186 -14 q 99 307 99 139 l 99 1194 l 200 1194 l 200 310 q 211 144 200 186 q 306 69 231 69 q 392 104 367 69 q 418 309 418 139 l 418 1194 m 184 1259 l 184 1273 q 216 1366 184 1329 q 311 1402 248 1402 q 408 1370 374 1402 q 443 1278 441 1338 l 443 1268 l 399 1266 q 312 1340 398 1340 q 227 1264 227 1340 q 227 1261 227 1263 l 184 1259 z "},"ȗ":{"ha":627,"x_min":102,"x_max":518,"o":"m 181 1112 l 181 1126 q 213 1219 181 1182 q 308 1255 245 1255 q 405 1223 372 1255 q 440 1131 439 1191 l 440 1121 l 397 1119 q 309 1193 395 1193 q 224 1117 224 1193 q 224 1114 224 1116 l 181 1112 m 203 198 q 307 81 203 81 q 387 114 357 81 q 417 205 417 148 l 416 1017 l 518 1017 l 518 0 l 417 0 l 417 102 q 362 21 404 56 q 264 -14 319 -14 q 155 32 208 -14 q 102 193 102 78 l 102 1017 l 203 1017 l 203 198 z "},"Ș":{"ha":539,"x_min":62,"x_max":491,"o":"m 210 -100 l 343 -100 l 343 -224 l 290 -415 l 248 -415 l 277 -230 l 210 -230 l 210 -100 m 66 1010 q 124 1158 77 1107 q 271 1208 171 1208 q 411 1158 372 1208 q 445 1104 433 1131 q 471 842 471 1049 l 471 775 l 368 775 l 368 850 q 357 1040 368 1007 q 336 1090 347 1074 q 266 1122 317 1122 q 163 930 163 1122 q 176 839 163 863 q 195 801 189 814 q 281 707 201 787 l 347 642 q 491 301 491 493 q 436 47 491 109 q 272 -14 380 -14 q 80 188 105 -14 q 71 355 71 256 l 71 479 l 174 479 l 174 357 q 196 134 174 195 q 283 73 217 73 q 367 113 349 73 q 386 209 385 153 q 388 330 388 265 q 283 565 388 463 l 214 631 q 92 780 123 720 q 62 904 62 841 q 66 1010 62 966 z "},"ș":{"ha":554,"x_min":81,"x_max":481,"o":"m 216 -100 l 350 -100 l 350 -224 l 297 -415 l 255 -415 l 284 -230 l 216 -230 l 216 -100 m 81 800 q 135 971 81 913 q 284 1029 189 1029 q 423 954 379 1029 q 467 703 467 879 l 467 649 l 362 649 l 362 722 q 343 883 362 829 q 278 937 325 937 q 208 906 232 937 q 184 799 184 875 q 184 795 184 797 q 294 569 184 676 l 347 518 q 481 220 481 383 q 435 49 481 112 q 288 -14 388 -14 q 137 56 187 -14 q 87 276 87 125 l 87 363 l 191 363 l 191 294 q 285 79 191 79 q 356 111 335 79 q 377 227 377 144 q 271 457 377 349 l 218 511 q 81 800 81 650 z "},"Ț":{"ha":391,"x_min":27,"x_max":364,"o":"m 136 -100 l 270 -100 l 270 -224 l 217 -415 l 175 -415 l 204 -230 l 136 -230 l 136 -100 m 27 1194 l 364 1194 l 364 1115 l 252 1115 l 252 0 l 152 0 l 152 1115 l 27 1115 l 27 1194 z "},"ț":{"ha":395,"x_min":31,"x_max":354,"o":"m 212 -100 l 345 -100 l 345 -224 l 292 -415 l 250 -415 l 279 -230 l 212 -230 l 212 -100 m 132 1194 l 234 1194 l 234 1021 l 354 1021 l 354 943 l 234 943 l 234 142 q 241 100 234 111 q 269 84 249 88 q 353 80 290 80 l 353 -6 l 283 -6 q 159 28 186 -6 q 137 74 142 47 q 132 147 132 101 l 132 943 l 31 943 l 31 1021 l 132 1021 l 132 1194 z "},"ȷ":{"ha":348,"x_min":64,"x_max":239,"o":"m 239 23 q 123 -106 239 -106 q 79 -103 103 -106 l 64 -102 l 64 -28 q 85 -30 68 -28 q 113 -29 102 -31 q 138 16 138 -25 l 138 1017 l 239 1017 l 239 23 z "},"ˆ":{"ha":658,"x_min":191,"x_max":467,"o":"m 273 1242 l 385 1242 l 467 1069 l 387 1069 l 329 1188 l 271 1069 l 191 1069 l 273 1242 z "},"ˇ":{"ha":658,"x_min":191,"x_max":467,"o":"m 387 1241 l 467 1241 l 385 1069 l 273 1069 l 191 1241 l 271 1241 l 329 1122 l 387 1241 z "},"ˉ":{"ha":472,"x_min":61,"x_max":411,"o":"m 61 503 l 411 503 l 411 425 l 61 425 l 61 503 z "},"˘":{"ha":689,"x_min":214,"x_max":472,"o":"m 429 1236 l 472 1236 l 472 1227 q 439 1133 472 1168 q 343 1098 406 1098 q 247 1132 280 1098 q 214 1226 214 1166 l 214 1236 l 257 1236 q 343 1160 258 1160 q 429 1236 429 1160 z "},"˙":{"ha":388,"x_min":144,"x_max":252,"o":"m 144 53 l 252 53 l 252 -37 l 144 -37 l 144 53 z "},"˚":{"ha":626,"x_min":198,"x_max":427,"o":"m 362 0 q 371 10 362 0 q 380 49 380 20 q 362 98 380 77 q 313 118 345 118 q 264 97 282 118 q 247 49 247 77 q 264 0 247 21 q 313 -20 282 -20 q 362 0 345 -20 m 313 -55 q 286 -55 313 -55 q 228 -24 258 -55 q 198 48 198 7 q 228 121 198 90 q 313 152 258 152 q 397 121 368 152 q 427 48 427 90 q 397 -24 427 7 q 313 -55 368 -55 z "},"˛":{"ha":688,"x_min":333,"x_max":551,"o":"m 551 -279 q 464 -292 521 -292 q 333 -194 333 -292 q 363 -96 333 -146 q 452 0 393 -45 l 496 0 q 421 -88 446 -42 q 397 -171 397 -134 q 470 -230 397 -230 q 528 -223 505 -230 q 551 -216 550 -216 l 551 -279 z "},"˜":{"ha":758,"x_min":180,"x_max":576,"o":"m 180 24 q 228 102 199 90 q 291 115 257 115 q 387 90 324 115 q 464 65 450 65 l 467 65 q 487 76 478 67 q 505 113 495 85 l 576 94 l 570 77 q 530 -3 550 15 q 477 -22 510 -22 q 382 6 444 -22 q 302 34 321 34 q 272 31 283 34 q 243 -7 261 28 l 180 24 z "},"˝":{"ha":882,"x_min":307,"x_max":701,"o":"m 307 27 l 379 292 l 490 239 l 353 7 l 307 27 m 477 27 l 588 292 l 701 232 l 523 0 l 477 27 z "},"̇":{"ha":388,"x_min":100,"x_max":288,"o":"m 100 176 l 288 176 l 288 -5 l 100 -5 l 100 176 z "},"̏":{"ha":559,"x_min":6,"x_max":403,"o":"m 212 1297 l 300 1362 l 403 1142 l 357 1110 l 212 1297 m 6 1297 l 98 1362 l 225 1142 l 180 1110 l 6 1297 z "},"̑":{"ha":689,"x_min":212,"x_max":471,"o":"m 212 1082 l 212 1096 q 244 1189 212 1152 q 339 1225 276 1225 q 436 1193 403 1225 q 471 1101 470 1161 l 471 1091 l 428 1089 q 340 1163 427 1163 q 256 1087 256 1163 q 256 1084 256 1086 l 212 1082 z "},"̦":{"ha":358,"x_min":114,"x_max":248,"o":"m 114 164 l 248 164 l 248 40 l 195 -151 l 153 -151 l 182 34 l 114 34 l 114 164 z "},"Δ":{"ha":589,"x_min":41,"x_max":548,"o":"m 149 83 l 437 83 l 288 1001 l 286 1001 l 149 83 m 336 1194 l 548 0 l 41 0 l 233 1194 l 336 1194 z "},"μ":{"ha":626,"x_min":102,"x_max":518,"o":"m 203 198 q 307 81 203 81 q 387 114 357 81 q 416 203 416 147 q 416 205 416 204 l 416 1017 l 518 1017 l 518 0 l 417 0 l 417 102 q 362 21 404 56 q 275 -14 319 -14 q 203 -1 231 -14 l 203 -126 l 102 -126 l 102 1017 l 203 1017 l 203 198 z "},"Ḃ":{"ha":600,"x_min":109,"x_max":522,"o":"m 268 1366 l 376 1366 l 376 1276 l 268 1276 l 268 1366 m 286 1105 l 210 1105 l 210 681 l 300 681 q 363 691 347 681 q 385 715 379 701 q 404 883 404 758 q 392 1042 404 1008 q 358 1090 379 1076 q 286 1105 337 1105 m 319 600 l 210 600 l 210 87 l 317 87 q 389 119 366 87 q 416 221 412 152 q 420 339 420 290 l 420 395 q 400 548 420 496 q 319 600 379 600 m 109 1194 l 283 1194 q 438 1157 390 1194 q 499 1028 487 1120 q 505 926 505 987 l 505 911 q 490 734 505 795 q 429 642 475 673 q 502 541 481 616 q 522 351 522 465 l 522 330 q 477 78 519 156 q 313 0 435 0 l 109 0 l 109 1194 z "},"ḃ":{"ha":594,"x_min":109,"x_max":506,"o":"m 278 1348 l 386 1348 l 386 1258 l 278 1258 l 278 1348 m 405 720 q 395 868 405 839 q 375 912 385 898 q 326 940 357 940 q 281 936 296 940 q 227 878 244 926 q 210 718 210 830 l 210 312 q 230 131 210 184 q 309 78 251 78 q 386 131 366 78 q 405 316 405 184 l 405 720 m 109 1209 l 210 1209 l 210 930 q 253 1001 217 971 q 331 1030 289 1030 q 486 899 452 1030 q 506 686 506 814 l 506 332 q 479 91 506 158 q 407 4 453 23 q 346 -7 381 -7 q 210 77 246 -7 l 210 0 l 109 0 l 109 1209 z "},"Ḋ":{"ha":612,"x_min":108,"x_max":523,"o":"m 249 1348 l 357 1348 l 357 1258 l 249 1258 l 249 1348 m 421 864 q 391 1052 421 994 q 298 1109 361 1109 l 208 1109 l 208 87 l 292 87 q 401 163 376 87 q 422 352 422 227 l 421 864 m 108 1194 l 292 1194 q 496 1062 452 1194 q 522 853 522 985 l 523 342 q 470 78 523 155 q 288 0 417 0 l 108 0 l 108 1194 z "},"ḋ":{"ha":591,"x_min":88,"x_max":486,"o":"m 212 1348 l 320 1348 l 320 1258 l 212 1258 l 212 1348 m 385 703 q 365 887 385 834 q 287 939 345 939 q 210 885 229 939 q 190 699 190 831 l 190 296 q 212 117 190 156 q 277 77 234 77 q 339 93 321 77 q 371 147 358 109 q 385 294 385 184 l 385 703 m 384 1209 l 486 1209 l 486 0 l 384 0 l 384 77 q 249 -7 349 -7 q 105 127 136 -7 q 88 326 88 201 l 88 684 q 137 959 88 888 q 276 1029 186 1029 q 340 1005 311 1029 q 384 945 370 980 l 384 1209 z "},"Ḟ":{"ha":468,"x_min":109,"x_max":422,"o":"m 216 1348 l 324 1348 l 324 1258 l 216 1258 l 216 1348 m 109 1194 l 422 1194 l 422 1115 l 209 1115 l 209 682 l 410 682 l 410 601 l 209 601 l 209 0 l 109 0 l 109 1194 z "},"ḟ":{"ha":414,"x_min":57,"x_max":389,"o":"m 217 1348 l 325 1348 l 325 1258 l 217 1258 l 217 1348 m 152 1025 q 185 1166 152 1119 q 297 1213 218 1213 q 389 1201 352 1213 l 389 1119 q 320 1124 358 1124 q 268 1104 282 1124 q 254 1040 254 1084 l 254 978 l 389 978 l 389 901 l 254 901 l 254 0 l 152 0 l 152 901 l 57 901 l 57 978 l 152 978 l 152 1025 z "},"Ṁ":{"ha":812,"x_min":109,"x_max":704,"o":"m 360 1348 l 468 1348 l 468 1258 l 360 1258 l 360 1348 m 591 1194 l 704 1194 l 704 0 l 612 0 l 612 511 l 628 992 l 458 26 l 361 26 l 185 992 l 201 511 l 201 0 l 109 0 l 109 1194 l 222 1194 l 410 191 l 591 1194 z "},"ṁ":{"ha":924,"x_min":109,"x_max":822,"o":"m 446 1172 l 553 1172 l 553 1082 l 446 1082 l 446 1172 m 720 831 q 627 937 720 937 q 528 891 549 937 q 515 840 518 871 l 515 0 l 414 0 l 414 831 q 390 913 414 890 q 317 937 366 937 q 239 907 268 937 q 210 820 210 878 l 210 0 l 109 0 l 109 1017 l 210 1017 l 210 916 q 266 996 223 962 q 365 1030 309 1030 q 501 927 467 1030 q 572 1002 526 973 q 680 1030 618 1030 q 781 979 741 1030 q 822 825 822 928 l 822 0 l 720 0 l 720 831 z "},"Ṗ":{"ha":572,"x_min":109,"x_max":523,"o":"m 254 1348 l 362 1348 l 362 1258 l 254 1258 l 254 1348 m 422 833 l 422 865 q 402 1053 422 997 q 321 1109 382 1109 l 210 1109 l 210 553 l 317 553 q 400 612 379 553 q 422 833 422 671 m 109 1194 l 316 1194 q 432 1166 389 1194 q 488 1105 474 1139 q 518 986 513 1044 q 523 847 523 928 l 523 835 q 504 616 523 680 q 460 524 484 552 q 310 467 410 467 l 210 467 l 210 0 l 109 0 l 109 1194 z "},"ṗ":{"ha":592,"x_min":109,"x_max":505,"o":"m 254 1172 l 361 1172 l 361 1082 l 254 1082 l 254 1172 m 404 720 q 394 868 404 839 q 371 919 385 898 q 326 940 357 940 q 280 936 295 940 q 227 877 243 926 q 210 718 210 829 l 210 314 q 230 131 210 184 q 309 78 251 78 q 385 131 366 78 q 404 317 404 184 l 404 720 m 210 939 q 345 1025 245 1025 q 449 979 414 1025 q 494 861 484 933 q 505 687 505 789 l 505 322 q 505 317 505 320 q 455 57 505 125 q 318 -12 405 -12 q 253 13 283 -12 q 210 73 223 37 l 210 -180 l 109 -180 l 109 1017 l 210 1017 l 210 939 z "},"Ṡ":{"ha":539,"x_min":62,"x_max":491,"o":"m 218 1348 l 326 1348 l 326 1258 l 218 1258 l 218 1348 m 66 1010 q 124 1158 77 1107 q 271 1208 171 1208 q 411 1158 372 1208 q 445 1104 433 1131 q 471 842 471 1049 l 471 775 l 368 775 l 368 850 q 357 1040 368 1007 q 336 1090 347 1074 q 266 1122 317 1122 q 163 930 163 1122 q 176 839 163 863 q 195 801 189 814 q 281 707 201 787 l 347 642 q 491 301 491 493 q 436 47 491 109 q 272 -14 380 -14 q 80 188 105 -14 q 71 355 71 256 l 71 479 l 174 479 l 174 357 q 196 134 174 195 q 283 73 217 73 q 367 113 349 73 q 386 209 385 153 q 388 330 388 265 q 283 565 388 463 l 214 631 q 92 780 123 720 q 62 904 62 841 q 66 1010 62 966 z "},"ṡ":{"ha":554,"x_min":81,"x_max":481,"o":"m 239 1172 l 347 1172 l 347 1082 l 239 1082 l 239 1172 m 81 800 q 135 971 81 913 q 284 1029 189 1029 q 423 954 379 1029 q 467 703 467 879 l 467 649 l 362 649 l 362 722 q 343 883 362 829 q 278 937 325 937 q 208 906 232 937 q 184 799 184 875 q 184 795 184 797 q 294 569 184 676 l 347 518 q 481 220 481 383 q 435 49 481 112 q 288 -14 388 -14 q 137 56 187 -14 q 87 276 87 125 l 87 363 l 191 363 l 191 294 q 285 79 191 79 q 356 111 335 79 q 377 227 377 144 q 271 457 377 349 l 218 511 q 81 800 81 650 z "},"Ṫ":{"ha":391,"x_min":27,"x_max":364,"o":"m 146 1348 l 254 1348 l 254 1258 l 146 1258 l 146 1348 m 27 1194 l 364 1194 l 364 1115 l 252 1115 l 252 0 l 152 0 l 152 1115 l 27 1115 l 27 1194 z "},"ṫ":{"ha":395,"x_min":31,"x_max":354,"o":"m 125 1348 l 233 1348 l 233 1258 l 125 1258 l 125 1348 m 132 1194 l 234 1194 l 234 1021 l 354 1021 l 354 943 l 234 943 l 234 142 q 241 100 234 111 q 269 84 249 88 q 353 80 290 80 l 353 -6 l 283 -6 q 159 28 186 -6 q 137 74 142 47 q 132 147 132 101 l 132 943 l 31 943 l 31 1021 l 132 1021 l 132 1194 z "},"Ẁ":{"ha":907,"x_min":47,"x_max":860,"o":"m 351 1305 l 351 1413 l 576 1288 l 576 1241 l 351 1305 m 764 1194 l 860 1194 l 715 0 l 616 0 l 468 982 l 309 0 l 216 0 l 47 1194 l 146 1194 l 271 218 l 420 1194 l 505 1194 l 664 218 l 764 1194 z "},"ẁ":{"ha":729,"x_min":39,"x_max":690,"o":"m 261 1128 l 261 1237 l 486 1112 l 486 1065 l 261 1128 m 600 1017 l 690 1017 l 572 0 l 471 0 l 372 870 l 254 0 l 158 0 l 39 1017 l 132 1017 l 193 416 l 209 205 l 217 205 l 237 416 l 323 1017 l 409 1017 l 502 438 l 529 205 l 536 205 l 549 439 l 600 1017 z "},"Ẃ":{"ha":907,"x_min":47,"x_max":860,"o":"m 764 1194 l 860 1194 l 715 0 l 616 0 l 468 982 l 309 0 l 216 0 l 47 1194 l 146 1194 l 271 218 l 420 1194 l 505 1194 l 664 218 l 764 1194 m 351 1331 l 621 1438 l 621 1341 l 351 1284 l 351 1331 z "},"ẃ":{"ha":729,"x_min":39,"x_max":690,"o":"m 600 1017 l 690 1017 l 572 0 l 471 0 l 372 870 l 254 0 l 158 0 l 39 1017 l 132 1017 l 193 416 l 209 205 l 217 205 l 237 416 l 323 1017 l 409 1017 l 502 438 l 529 205 l 536 205 l 549 439 l 600 1017 m 253 1155 l 523 1262 l 523 1164 l 253 1108 l 253 1155 z "},"Ẅ":{"ha":907,"x_min":47,"x_max":860,"o":"m 764 1194 l 860 1194 l 715 0 l 616 0 l 468 982 l 309 0 l 216 0 l 47 1194 l 146 1194 l 271 218 l 420 1194 l 505 1194 l 664 218 l 764 1194 m 243 1360 l 367 1360 l 367 1270 l 243 1270 l 243 1360 m 535 1360 l 659 1360 l 659 1270 l 535 1270 l 535 1360 z "},"ẅ":{"ha":729,"x_min":39,"x_max":690,"o":"m 600 1017 l 690 1017 l 572 0 l 471 0 l 372 870 l 254 0 l 158 0 l 39 1017 l 132 1017 l 193 416 l 209 205 l 217 205 l 237 416 l 323 1017 l 409 1017 l 502 438 l 529 205 l 536 205 l 549 439 l 600 1017 m 145 1183 l 269 1183 l 269 1093 l 145 1093 l 145 1183 m 437 1183 l 560 1183 l 560 1093 l 437 1093 l 437 1183 z "},"Ỳ":{"ha":544,"x_min":16,"x_max":528,"o":"m 168 1305 l 168 1413 l 393 1288 l 393 1241 l 168 1305 m 423 1194 l 528 1194 l 333 524 l 333 0 l 232 0 l 232 524 l 16 1194 l 118 1194 l 281 666 l 283 666 l 423 1194 z "},"ỳ":{"ha":497,"x_min":41,"x_max":468,"o":"m 146 1128 l 146 1237 l 371 1112 l 371 1065 l 146 1128 m 367 1017 l 468 1017 l 306 2 q 270 -127 290 -102 q 224 -157 250 -153 q 172 -161 199 -161 l 88 -161 l 88 -75 l 125 -75 q 209 -67 198 -75 q 218 -40 218 -58 q 216 -10 218 -22 q 211 26 214 2 l 41 1017 l 143 1017 l 224 479 l 256 203 l 265 203 l 294 479 l 367 1017 z "},"–":{"ha":513,"x_min":81,"x_max":431,"o":"m 81 503 l 431 503 l 431 425 l 81 425 l 81 503 z "},"—":{"ha":782,"x_min":68,"x_max":713,"o":"m 68 503 l 713 503 l 713 425 l 68 425 l 68 503 z "},"‘":{"ha":405,"x_min":113,"x_max":297,"o":"m 191 1209 l 262 1209 l 201 926 l 297 926 l 297 789 l 113 789 l 113 920 l 191 1209 z "},"’":{"ha":405,"x_min":128,"x_max":312,"o":"m 128 1209 l 312 1209 l 312 1078 l 235 789 l 163 789 l 224 1072 l 128 1072 l 128 1209 z "},"‚":{"ha":328,"x_min":77,"x_max":263,"o":"m 77 140 l 263 140 l 263 6 l 182 -296 l 113 -296 l 176 0 l 77 0 l 77 140 z "},"“":{"ha":699,"x_min":119,"x_max":609,"o":"m 200 1209 l 271 1209 l 207 919 l 306 919 l 306 779 l 119 779 l 119 913 l 200 1209 m 503 1209 l 573 1209 l 510 919 l 609 919 l 609 779 l 422 779 l 422 913 l 503 1209 z "},"”":{"ha":730,"x_min":130,"x_max":619,"o":"m 130 1209 l 316 1209 l 316 1076 l 235 779 l 165 779 l 229 1069 l 130 1069 l 130 1209 m 433 1209 l 619 1209 l 619 1076 l 538 779 l 468 779 l 531 1069 l 433 1069 l 433 1209 z "},"„":{"ha":689,"x_min":123,"x_max":612,"o":"m 123 140 l 309 140 l 309 6 l 228 -290 l 158 -290 l 222 0 l 123 0 l 123 140 m 426 140 l 612 140 l 612 6 l 531 -290 l 461 -290 l 525 0 l 426 0 l 426 140 z "},"†":{"ha":616,"x_min":62,"x_max":555,"o":"m 259 1080 l 359 1080 l 359 802 l 555 802 l 555 723 l 359 723 l 359 0 l 259 0 l 259 723 l 62 723 l 62 802 l 259 802 l 259 1080 z "},"‡":{"ha":629,"x_min":62,"x_max":555,"o":"m 555 723 l 359 723 l 359 415 l 555 415 l 555 336 l 359 336 l 359 0 l 259 0 l 259 336 l 62 336 l 62 415 l 259 415 l 259 723 l 62 723 l 62 802 l 259 802 l 259 1080 l 359 1080 l 359 802 l 555 802 l 555 723 z "},"•":{"ha":584,"x_min":153,"x_max":430,"o":"m 154 501 q 154 503 154 502 q 154 504 154 503 q 292 657 154 657 q 430 503 430 657 q 292 348 430 348 q 154 501 154 348 z "},"‰":{"ha":2174,"x_min":122,"x_max":1899,"o":"m 1799 566 q 1780 679 1799 650 q 1707 709 1761 709 q 1633 679 1653 709 q 1613 566 1613 650 l 1613 227 q 1633 110 1613 140 q 1706 79 1652 79 q 1780 110 1761 79 q 1799 227 1799 140 l 1799 566 m 1514 517 q 1573 765 1514 716 q 1706 800 1617 800 q 1839 765 1796 800 q 1899 517 1899 715 l 1899 279 q 1890 135 1899 190 q 1859 46 1882 81 q 1801 -1 1836 12 q 1706 -14 1765 -14 q 1612 -1 1648 -14 q 1553 46 1576 12 q 1522 135 1531 81 q 1514 279 1514 190 l 1514 517 m 1251 566 q 1232 679 1251 650 q 1158 709 1212 709 q 1085 679 1104 709 q 1065 566 1065 650 l 1065 227 q 1085 110 1065 140 q 1158 79 1104 79 q 1232 110 1213 79 q 1251 227 1251 140 l 1251 566 m 966 517 q 1025 765 966 716 q 1158 800 1069 800 q 1291 765 1248 800 q 1351 517 1351 715 l 1351 279 q 1342 135 1351 190 q 1311 46 1334 81 q 1253 -1 1289 12 q 1158 -14 1217 -14 q 1064 -1 1100 -14 q 1005 46 1028 12 q 974 135 983 81 q 966 279 966 190 l 966 517 m 122 925 q 182 1173 122 1124 q 314 1208 225 1208 q 448 1173 404 1208 q 508 925 508 1124 l 508 686 q 499 543 508 597 q 468 454 491 488 q 409 407 445 420 q 315 394 374 394 q 220 407 256 394 q 162 454 184 420 q 131 543 139 488 q 122 686 122 597 l 122 925 m 408 974 q 388 1087 408 1057 q 315 1116 369 1116 q 241 1087 261 1116 q 222 974 222 1057 l 222 635 q 241 517 222 548 q 315 487 260 487 q 388 517 369 487 q 408 635 408 548 l 408 974 m 930 1194 l 1025 1194 l 536 0 l 435 0 l 930 1194 z "},"‹":{"ha":411,"x_min":56,"x_max":372,"o":"m 56 538 l 372 722 l 372 621 l 160 508 l 372 389 l 372 281 l 56 474 l 56 538 z "},"›":{"ha":493,"x_min":113,"x_max":429,"o":"m 113 621 l 113 722 l 429 538 l 429 474 l 113 281 l 113 389 l 324 508 l 113 621 z "},"⁄":{"ha":562,"x_min":64,"x_max":456,"o":"m 363 1199 l 456 1199 l 157 0 l 64 0 l 363 1199 z "},"⁴":{"ha":581,"x_min":152,"x_max":467,"o":"m 332 592 l 332 1040 l 210 592 l 332 592 m 336 1194 l 393 1194 l 393 592 l 467 592 l 467 539 l 393 539 l 393 376 l 332 376 l 332 539 l 152 539 l 152 585 l 336 1194 z "},"€":{"ha":730,"x_min":16,"x_max":508,"o":"m 91 848 q 145 1137 91 1065 q 301 1208 200 1208 q 445 1159 401 1208 q 486 1088 476 1123 q 508 840 508 1005 l 508 737 l 406 737 l 406 852 q 389 1054 406 1003 q 343 1118 373 1105 q 306 1126 327 1126 q 217 1060 241 1126 q 192 853 192 994 l 192 730 l 345 730 l 345 669 l 192 669 l 192 576 l 345 576 l 345 509 l 192 509 l 192 374 q 214 135 192 201 q 300 69 235 69 q 386 135 366 69 q 406 374 406 201 l 406 469 l 507 469 l 507 374 q 490 149 507 218 q 450 50 472 80 q 302 -14 402 -14 q 153 50 203 -14 q 91 373 91 127 l 91 509 l 16 509 l 16 576 l 91 576 l 91 669 l 16 669 l 16 730 l 91 730 l 91 848 z "},"™":{"ha":954,"x_min":83,"x_max":864,"o":"m 83 1194 l 334 1194 l 334 1135 l 250 1135 l 250 303 l 176 303 l 176 1135 l 83 1135 l 83 1194 m 775 1194 l 864 1194 l 864 303 l 800 303 l 800 682 l 810 1034 l 687 303 l 610 303 l 481 1034 l 493 682 l 493 303 l 428 303 l 428 1194 l 517 1194 l 648 381 l 775 1194 z "},"∂":{"ha":652,"x_min":56,"x_max":589,"o":"m 466 623 q 355 651 394 651 q 278 618 316 651 q 217 534 240 586 q 167 295 167 422 q 217 110 167 167 q 286 79 243 79 q 371 133 330 79 q 425 284 412 186 l 466 623 m 167 646 q 185 668 167 646 q 250 715 202 690 q 348 741 297 741 q 481 710 398 741 q 489 879 489 813 q 460 996 489 945 q 350 1048 431 1048 q 153 1007 269 1048 l 136 1090 q 368 1135 277 1135 q 537 1061 486 1135 q 589 832 589 987 q 574 627 589 749 l 531 283 q 442 62 513 136 q 286 -12 371 -12 q 91 120 151 -12 q 56 280 56 197 q 68 426 56 363 q 107 546 81 489 q 167 646 132 602 z "},"∏":{"ha":633,"x_min":105,"x_max":528,"o":"m 105 1194 l 528 1194 l 528 0 l 426 0 l 426 1118 l 207 1118 l 207 0 l 105 0 l 105 1194 z "},"∑":{"ha":462,"x_min":69,"x_max":375,"o":"m 69 1194 l 375 1194 l 375 1106 l 180 1106 l 342 597 l 180 98 l 375 98 l 375 0 l 69 0 l 69 96 l 229 597 l 69 1088 l 69 1194 z "},"−":{"ha":432,"x_min":14,"x_max":418,"o":"m 14 503 l 418 503 l 418 425 l 14 425 l 14 503 z "},"∕":{"ha":562,"x_min":64,"x_max":456,"o":"m 363 1199 l 456 1199 l 157 0 l 64 0 l 363 1199 z "},"√":{"ha":781,"x_min":60,"x_max":761,"o":"m 454 1017 l 761 1017 l 761 927 l 548 927 l 362 0 l 258 0 l 60 503 l 175 503 l 300 148 l 454 1017 z "},"∞":{"ha":882,"x_min":60,"x_max":815,"o":"m 698 422 q 713 437 698 422 q 728 502 728 452 q 698 582 728 551 q 625 612 667 612 q 539 582 582 612 q 463 502 497 551 q 537 422 494 452 q 623 392 579 392 q 698 422 667 392 m 399 502 q 247 611 308 597 q 177 581 206 611 q 148 502 148 551 q 177 422 148 452 q 247 392 206 392 q 328 422 288 392 q 399 502 368 452 m 433 580 q 530 671 479 637 q 618 706 581 706 q 761 651 707 706 q 815 503 815 595 q 761 354 815 411 q 618 298 707 298 q 526 331 577 298 q 433 417 475 363 q 339 337 389 367 q 251 307 289 307 q 112 361 165 307 q 60 503 60 415 q 112 644 60 591 q 251 697 165 697 q 336 665 286 697 q 433 580 386 633 z "},"∫":{"ha":520,"x_min":78,"x_max":442,"o":"m 214 1044 q 336 1212 214 1212 q 442 1188 378 1212 l 442 1105 q 361 1122 390 1122 q 320 1101 333 1122 q 307 1031 307 1080 l 307 150 q 171 -8 307 -8 q 78 5 132 -8 l 78 88 q 115 87 105 87 q 197 109 179 87 q 214 207 214 132 l 214 1044 z "},"≈":{"ha":758,"x_min":90,"x_max":671,"o":"m 671 487 q 531 321 629 321 q 514 317 531 317 q 387 346 497 317 q 240 375 276 375 q 176 312 203 375 l 90 363 q 235 489 143 489 q 380 462 273 489 q 506 435 488 435 q 574 515 551 440 l 671 487 m 671 760 q 531 593 629 593 q 380 621 485 593 q 240 648 276 648 q 176 585 203 648 l 90 635 q 235 762 142 762 q 380 735 273 762 q 506 708 488 708 q 574 788 551 714 l 671 760 z "},"≠":{"ha":600,"x_min":60,"x_max":456,"o":"m 84 497 l 433 497 l 433 408 l 84 408 l 84 497 m 84 695 l 433 695 l 433 605 l 84 605 l 84 695 m 365 1199 l 456 1199 l 151 0 l 60 0 l 365 1199 z "},"≤":{"ha":530,"x_min":40,"x_max":435,"o":"m 63 75 l 435 75 l 435 0 l 63 0 l 63 75 m 40 551 l 433 820 l 433 707 l 116 508 l 433 298 l 433 189 l 40 460 l 40 551 z "},"≥":{"ha":530,"x_min":62,"x_max":460,"o":"m 62 75 l 435 75 l 435 0 l 62 0 l 62 75 m 68 707 l 68 820 l 460 551 l 460 460 l 68 189 l 68 298 l 385 508 l 68 707 z "},"◊":{"ha":625,"x_min":77,"x_max":547,"o":"m 447 599 l 315 1101 l 307 1101 l 176 599 l 307 87 l 315 87 l 447 599 m 249 1195 l 378 1195 l 547 599 l 378 0 l 249 0 l 77 599 l 249 1195 z "},"":{"ha":222,"x_min":0,"x_max":0,"o":""},"ﬀ":{"ha":827,"x_min":57,"x_max":802,"o":"m 566 978 l 566 1025 q 599 1166 566 1119 q 711 1213 632 1213 q 802 1201 766 1213 l 802 1119 q 734 1124 772 1124 q 682 1104 696 1124 q 667 1040 667 1084 l 667 978 l 802 978 l 802 901 l 667 901 l 667 0 l 566 0 l 566 901 l 254 901 l 254 0 l 152 0 l 152 901 l 57 901 l 57 978 l 152 978 l 152 1025 q 185 1166 152 1119 q 297 1213 218 1213 q 389 1201 352 1213 l 389 1119 q 320 1124 358 1124 q 268 1104 282 1124 q 254 1040 254 1084 l 254 978 l 566 978 z "},"ﬁ":{"ha":735,"x_min":57,"x_max":625,"o":"m 625 0 l 524 0 l 524 941 l 254 941 l 254 0 l 152 0 l 152 941 l 57 941 l 57 1018 l 152 1018 l 152 1029 q 185 1170 152 1123 q 297 1217 218 1217 q 389 1205 352 1217 l 389 1123 q 320 1128 358 1128 q 268 1108 282 1128 q 254 1044 254 1088 l 254 1017 l 625 1017 l 625 0 m 625 1095 l 524 1095 l 524 1221 l 625 1221 l 625 1095 z "},"ﬂ":{"ha":732,"x_min":57,"x_max":624,"o":"m 624 1183 l 624 0 l 522 0 l 522 1126 q 385 1147 433 1147 q 305 1137 338 1147 q 263 1101 273 1126 q 254 1045 254 1076 l 254 978 l 389 978 l 389 901 l 254 901 l 254 0 l 152 0 l 152 901 l 57 901 l 57 978 l 152 978 l 152 1025 q 200 1189 152 1150 q 347 1228 249 1228 q 624 1183 445 1228 z "},"ﬃ":{"ha":1149,"x_min":57,"x_max":1039,"o":"m 667 1017 l 1039 1017 l 1039 0 l 937 0 l 937 941 l 667 941 l 667 0 l 566 0 l 566 941 l 254 941 l 254 0 l 152 0 l 152 941 l 57 941 l 57 1017 l 152 1017 l 152 1030 q 185 1171 152 1124 q 297 1218 218 1218 q 389 1206 352 1218 l 389 1124 q 320 1128 358 1128 q 268 1108 282 1128 q 254 1045 254 1088 l 254 1017 l 566 1017 l 566 1030 q 599 1171 566 1124 q 711 1218 632 1218 q 802 1206 766 1218 l 802 1124 q 734 1128 772 1128 q 682 1108 696 1128 q 667 1045 667 1088 l 667 1017 m 937 1221 l 1039 1221 l 1039 1095 l 937 1095 l 937 1221 z "},"ﬄ":{"ha":1109,"x_min":57,"x_max":1000,"o":"m 528 978 l 528 1025 q 577 1189 528 1150 q 723 1228 625 1228 q 1000 1183 821 1228 l 1000 0 l 899 0 l 899 1126 q 762 1147 809 1147 q 682 1137 714 1147 q 640 1101 649 1126 q 630 1045 630 1076 l 630 978 l 765 978 l 765 901 l 630 901 l 630 0 l 528 0 l 528 901 l 254 901 l 254 0 l 152 0 l 152 901 l 57 901 l 57 978 l 152 978 l 152 1025 q 185 1166 152 1119 q 297 1213 218 1213 q 389 1201 352 1213 l 389 1119 q 320 1124 358 1124 q 268 1104 282 1124 q 254 1040 254 1084 l 254 978 l 528 978 z "}}}
